<?xml version="1.0" standalone="no"?>
<!DOCTYPE svg PUBLIC "-//W3C//DTD SVG 1.1//EN" "http://www.w3.org/Graphics/SVG/1.1/DTD/svg11.dtd" >
<svg>
<metadata>
Created by FontForge 20090622 at Mon Nov 12 04:52:00 2018
 By ffonts
Copyright (c) 2016 by Margarita Dyakovich. All rights reserved.
</metadata>
<defs>
<font id="MDGrotesk" horiz-adv-x="639" >
  <font-face 
    font-family="MD Grotesk"
    font-weight="400"
    font-stretch="normal"
    units-per-em="1000"
    panose-1="0 0 0 0 0 0 0 0 0 0"
    ascent="800"
    descent="-200"
    x-height="550"
    cap-height="733"
    bbox="-50 -274 1230 1011"
    underline-thickness="50"
    underline-position="-50"
    unicode-range="U+0020-U+FB04"
  />
<missing-glyph horiz-adv-x="317" 
 />
    <glyph glyph-name=".notdef" horiz-adv-x="317" 
 />
    <glyph glyph-name="B" unicode="B" horiz-adv-x="602" 
d="M406 406q80 -24 118 -74.5t38 -116.5q0 -44 -14.5 -83.5t-46.5 -68.5t-84.5 -46t-127.5 -17h-189v732l170 1q55 0 97 -15t70 -40.5t42 -60t14 -74.5q0 -38 -24.5 -76t-62.5 -61zM269 656h-80v-226h85q32 0 56.5 10t41 26t24.5 36t8 41t-7 41.5t-22.5 36.5t-41.5 25.5
t-63 9.5h-1zM304 78q46 0 78.5 11.5t52.5 30.5t29.5 44t9.5 51t-10 51t-30.5 44t-52.5 30.5t-77 11.5h-115v-274h115z" />
    <glyph glyph-name="C" unicode="C" horiz-adv-x="720" 
d="M690 69q-54 -39 -120.5 -60.5t-133.5 -21.5q-79 0 -150.5 30t-126 81.5t-87 120.5t-32.5 147q0 79 32.5 148t87 120.5t126 81.5t150.5 30q67 0 133.5 -22t120.5 -60v-108q-20 25 -48.5 45.5t-62 34.5t-70 22t-73.5 8q-65 0 -121 -23.5t-97.5 -64t-65.5 -95.5t-24 -117
t24 -116.5t66 -95t98 -64t120 -23.5q36 0 73 7.5t71 22t62 34.5t48 45v-107z" />
    <glyph glyph-name="D" unicode="D" horiz-adv-x="757" 
d="M326 733q99 0 172.5 -29t122 -78.5t72.5 -116.5t24 -143q0 -74 -22.5 -140.5t-70 -116.5t-120.5 -79.5t-175 -29.5h-229v733h226zM326 77q79 0 136 24t93.5 64t54 92t17.5 109t-18 109.5t-55.5 92t-94 63.5t-133.5 24h-138v-578h138z" />
    <glyph glyph-name="E" unicode="E" horiz-adv-x="544" 
d="M188 77h326v-77h-414v733h401v-77h-313v-227h295v-77h-295v-275v0z" />
    <glyph glyph-name="F" unicode="F" horiz-adv-x="513" 
d="M493 656h-305v-258h287v-78h-287v-320h-88v733v0h393v-77v0z" />
    <glyph glyph-name="G" unicode="G" horiz-adv-x="829" 
d="M789 366q0 -78 -24 -147t-70.5 -120.5t-115.5 -81.5t-159 -30q-79 0 -148 30t-120.5 82t-81.5 121t-30 146q0 80 32.5 149.5t87 120.5t126 80.5t150.5 29.5q68 0 134 -22.5t120 -62.5v-109q-20 26 -48 47t-61 36t-70.5 23t-74.5 8q-65 0 -121 -24t-97.5 -64.5
t-65.5 -95.5t-24 -116q0 -62 21.5 -116.5t60.5 -95t92.5 -64t117.5 -23.5q63 0 111 19t82 50t54 71t26 82h-283v77h379z" />
    <glyph glyph-name="H" unicode="H" horiz-adv-x="779" 
d="M590 733h89v-733h-89v353h-402v-353h-88v733h88v-303h402v303v0z" />
    <glyph glyph-name="I" unicode="I" horiz-adv-x="288" 
d="M188 -1h-88v733h88v-733v0z" />
    <glyph glyph-name="J" unicode="J" horiz-adv-x="397" 
d="M297 733v-574q0 -42 -13.5 -74t-36.5 -54t-54 -33.5t-66 -11.5q-15 -1 -33 2q-16 2 -37.5 6t-46.5 12v77q20 -10 40.5 -13.5t37.5 -5.5q20 -2 39 -1q34 0 58 25.5t24 70.5v574h88z" />
    <glyph glyph-name="K" unicode="K" horiz-adv-x="642" 
d="M100 0v733h88v-733h-88zM637 2h-114l-307 372v26l255 333h112l-265 -344z" />
    <glyph glyph-name="L" unicode="L" horiz-adv-x="461" 
d="M188 77h268v-77h-356v733h88v-656v0z" />
    <glyph glyph-name="M" unicode="M" horiz-adv-x="953" 
d="M80 0l77 746h27l292 -598l291 598h28l78 -746h-89l-50 487l-244 -498h-26l-246 497l-49 -486h-89v0z" />
    <glyph glyph-name="N" unicode="N" horiz-adv-x="779" 
d="M591 734h88v-748h-28l-463 549v-535h-88v746h26l465 -551v539v0z" />
    <glyph glyph-name="O" unicode="O" horiz-adv-x="839" 
d="M419 746q79 0 148 -30t120.5 -81.5t81.5 -120.5t30 -148q0 -78 -30 -147t-81.5 -120.5t-120.5 -81.5t-148 -30q-78 0 -147 30t-120.5 81.5t-81.5 120.5t-30 147q0 79 30 148t81.5 120.5t120.5 81.5t147 30zM420 66q64 0 118 23.5t92 64.5t59.5 95.5t21.5 116.5t-21 116.5
t-59.5 95.5t-92 64.5t-118.5 23.5t-118.5 -23.5t-92 -64.5t-60 -95.5t-21.5 -116.5t21.5 -116.5t60.5 -95.5t92.5 -64.5t117.5 -23.5z" />
    <glyph glyph-name="P" unicode="P" horiz-adv-x="592" 
d="M188 0h-88v733h199q69 0 119 -18.5t82 -49.5t47 -72t15 -85t-14.5 -84.5t-46.5 -71.5t-82 -49.5t-120 -18.5v-1h-111v-283zM188 361h110q52 0 86 14.5t54 36t28 47.5t8 49q0 24 -8.5 50t-28.5 47.5t-54 35.5t-85 14h-110v-294z" />
    <glyph glyph-name="Q" unicode="Q" horiz-adv-x="861" 
d="M706 -84l-99 120q-42 -23 -89 -36t-98 -13q-79 0 -148 30t-120.5 81.5t-81.5 120.5t-30 148q0 78 30 147t81.5 120.5t120.5 81.5t148 30q78 0 147.5 -30t121 -81.5t81.5 -120.5t30 -147q0 -83 -32.5 -154.5t-89.5 -124.5l143 -172h-115zM128 366q0 -62 21.5 -116.5
t60.5 -95t92.5 -64t117.5 -23.5q65 0 118.5 23.5t92 64t60 95t21.5 116.5t-21 117t-59.5 95.5t-92.5 64t-119 23.5t-118.5 -23.5t-92 -64t-60 -95.5t-21.5 -117z" />
    <glyph glyph-name="R" unicode="R" horiz-adv-x="637" 
d="M304 733q69 0 117.5 -18.5t80 -49.5t46 -72t14.5 -85q0 -40 -13 -77.5t-37.5 -67.5t-60 -50t-81.5 -26l257 -287h-115l-287 336v26h78q49 0 81.5 13t52.5 34t28.5 47t8.5 52t-8.5 52.5t-29 47.5t-53 34t-80.5 13h-115v-655h-88v733h204z" />
    <glyph glyph-name="S" unicode="S" horiz-adv-x="556" 
d="M291 428q53 -24 95 -47.5t71 -51.5t44 -62.5t15 -80.5q0 -29 -14.5 -64t-46 -65t-80.5 -50.5t-118 -20.5q-48 0 -87.5 9t-68 20t-45 20.5t-16.5 10.5v105q10 -15 33.5 -30.5t53.5 -27.5t64 -19.5t66 -7.5q42 0 73.5 11.5t52.5 29.5t32 39.5t11 41.5q0 37 -16 62
t-40.5 43.5t-55.5 32l-61 27.5q-101 45 -152 94t-51 113q0 28 13 61t40.5 60.5t70 46t102.5 18.5q45 0 90 -11t85 -35v-107q-14 14 -28.5 27t-34.5 23.5t-46.5 16.5t-64.5 6t-64 -10.5t-43 -26.5t-24.5 -35t-7.5 -35q0 -25 15 -44.5t38 -35.5t49.5 -28.5t50.5 -22.5z" />
    <glyph glyph-name="T" unicode="T" horiz-adv-x="570" 
d="M560 733v-78h-231v-655h-89v655h-230v78h550v0z" />
    <glyph glyph-name="U" unicode="U" horiz-adv-x="688" 
d="M618 733v-457q0 -72 -20.5 -126t-56.5 -90.5t-86.5 -55t-110.5 -18.5t-110.5 18.5t-86.5 54.5t-56.5 90t-20.5 126v458h88v-457q1 -97 50 -153.5t136 -56.5q88 0 136.5 56.5t48.5 153.5v457h89z" />
    <glyph glyph-name="V" unicode="V" horiz-adv-x="694" 
d="M589 733h95l-324 -746h-26l-324 746h95l242 -577l242 577v0z" />
    <glyph glyph-name="W" unicode="W" horiz-adv-x="984" 
d="M881 733h93l-241 -747h-27l-214 555l-214 -555h-26l-242 747h93l168 -538l208 551h26l208 -551l168 538v0z" />
    <glyph glyph-name="X" unicode="X" horiz-adv-x="643" 
d="M10 1l259 384l-223 347h105l170 -265l170 265h105l-222 -347l259 -384h-106l-206 302l-206 -302h-105v0z" />
    <glyph glyph-name="Y" unicode="Y" horiz-adv-x="600" 
d="M590 732l-246 -417v-314h-88v314l-246 417h102l188 -329l188 329h102v0z" />
    <glyph glyph-name="Z" unicode="Z" horiz-adv-x="600" 
d="M574 707l-422 -630h438v-78h-580v25l423 631h-369v77l510 1v-26v0z" />
    <glyph glyph-name="a" unicode="a" horiz-adv-x="689" 
d="M609 549v-550h-83v88q-16 -23 -39 -41.5t-50 -32t-57 -21t-60 -7.5q-60 0 -113 23t-92 62t-62 92t-23 113t23 112.5t62 92t92 62t113 22.5q30 0 60.5 -8t58 -21.5t50.5 -32.5t37 -40v87h83zM320 61q44 0 81.5 17t65 46t43 68t15.5 83t-15.5 83t-43 68t-65 46t-81.5 17
q-45 0 -82.5 -17t-65.5 -46t-43.5 -68t-15.5 -83t15.5 -83t43.5 -68t65.5 -46t82.5 -17z" />
    <glyph glyph-name="b" unicode="b" horiz-adv-x="689" 
d="M163 773v-310q15 21 37.5 40t50 32.5t58.5 21.5t61 8q60 0 112.5 -22.5t92 -62t62 -92t22.5 -112.5t-22.5 -113t-62 -92t-92 -62t-112.5 -23q-30 0 -60.5 7.5t-57.5 21t-50 32t-39 41.5v-88h-83v773h83zM164 276q0 -45 15.5 -84t43 -68t65.5 -45.5t82 -16.5t82 16.5
t65.5 45.5t43.5 68t16 84q0 44 -16 83t-43.5 68t-65.5 45.5t-82 16.5t-82 -16.5t-65.5 -45.5t-43 -68t-15.5 -83z" />
    <glyph glyph-name="c" unicode="c" horiz-adv-x="559" 
d="M332 489q-45 0 -85 -17t-70 -46t-47.5 -68t-17.5 -84q0 -44 17.5 -83t47.5 -68t70 -46t85 -17q53 0 90 15t61 33q28 21 46 49v-107q-24 -19 -54 -33q-26 -12 -62 -22t-81 -10q-51 0 -104.5 20t-97.5 57.5t-72 91t-28 121.5q0 52 22 103.5t62 93t95.5 67.5t122.5 26
q45 0 81 -10.5t62 -22.5q30 -14 54 -32v-107q-19 27 -47 48q-24 18 -61.5 33t-88.5 15z" />
    <glyph glyph-name="d" unicode="d" horiz-adv-x="689" 
d="M609 774v-773h-83v88q-16 -23 -39 -41.5t-50 -32t-57 -21t-60 -7.5q-60 0 -113 23t-92 62t-62 92t-23 113t23 112.5t62 92t92 62t113 22.5q30 0 60.5 -8t58 -21.5t50.5 -32.5t37 -40v310h83zM320 63q44 0 81.5 16.5t65 45.5t43 68t15.5 84q0 44 -15.5 83t-43 68t-65 45.5
t-81.5 16.5q-45 0 -82.5 -16.5t-65.5 -45.5t-43.5 -68t-15.5 -83q0 -45 15.5 -84t43.5 -68t65.5 -45.5t82.5 -16.5z" />
    <glyph glyph-name="e" unicode="e" 
d="M320 566q60 0 112.5 -22.5t92 -62t62 -92t22.5 -112.5v-22h-495q4 -41 22 -76t47 -60.5t68.5 -40.5t85.5 -15q29 0 57.5 4t57 16t57 33.5t58.5 56.5v-100q-29 -27 -62 -44t-64 -26.5t-58.5 -12.5t-45.5 -3q-69 0 -125.5 23t-97 62t-62.5 92t-22 113t23 112.5t62 92t92 62
t113 22.5zM320 491q-38 0 -70.5 -12t-59 -33.5t-44.5 -51t-27 -63.5h400q-8 34 -26.5 63.5t-44.5 51t-58.5 33.5t-69.5 12z" />
    <glyph glyph-name="f" unicode="f" horiz-adv-x="329" 
d="M324 695q-37 12 -61.5 8t-39 -18.5t-20.5 -37.5t-6 -48v-48h127v-76h-127v-477h-84v477h-83v76h83v48q0 45 10 81t34 59t64.5 31.5t102.5 -1.5v-74v0z" />
    <glyph glyph-name="g" unicode="g" horiz-adv-x="679" 
d="M609 550v-483q0 -72 -22 -127.5t-62.5 -92.5t-97 -56t-124.5 -19q-19 0 -46.5 3t-58.5 12.5t-64 26.5t-62 44v100q30 -35 59 -56.5t57.5 -33.5t57 -16t57.5 -4q49 0 90 13.5t70.5 41t46 68.5t16.5 96v34q-16 -23 -39 -41.5t-50 -32t-57 -21t-60 -7.5q-60 0 -113 22
t-92 60t-62 90t-23 112t23 111.5t62 89.5t92 59.5t113 21.5q30 0 60.5 -8t58 -21.5t50.5 -32.5t37 -40v87h83zM320 75q44 0 82 16t65.5 44t43 66t15.5 82t-15.5 82t-43 65.5t-65.5 43.5t-82 16t-82 -16t-66 -43.5t-43.5 -65.5t-15.5 -82t15.5 -82t43.5 -66t66 -44t82 -16z
" />
    <glyph glyph-name="h" unicode="h" horiz-adv-x="631" 
d="M321 566q49 0 93 -16.5t76.5 -47.5t51.5 -76t19 -101v-324h-83v324q0 40 -11.5 71t-32.5 52t-50 31.5t-63 10.5q-35 0 -64 -13t-50 -35.5t-32.5 -52.5t-11.5 -64v-326h-83v774h83v-282q31 35 71.5 55t86.5 20z" />
    <glyph glyph-name="i" unicode="i" horiz-adv-x="286" 
d="M101 551h84v-551h-84v551zM143 784q26 0 44.5 -18.5t18.5 -44.5t-18.5 -44t-44.5 -18t-44.5 18t-18.5 44t18.5 44.5t44.5 18.5z" />
    <glyph glyph-name="j" unicode="j" horiz-adv-x="260" 
d="M117 779q26 0 44.5 -18t18.5 -44t-18.5 -44.5t-44.5 -18.5t-44 18.5t-18 44.5t18 44t44 18zM77 547h83v-601q0 -46 -10 -82t-34 -59.5t-64.5 -31.5t-101.5 2v75q36 -12 60.5 -8t39.5 18.5t21 37.5t6 48v601z" />
    <glyph glyph-name="k" unicode="k" horiz-adv-x="552" 
d="M80 0v773h83v-773h-83zM547 -1h-109l-255 303v26l202 222h113l-216 -237z" />
    <glyph glyph-name="l" unicode="l" horiz-adv-x="243" 
d="M163 0h-83v773h83v-773v0z" />
    <glyph glyph-name="m" unicode="m" horiz-adv-x="957" 
d="M665 565q50 0 91 -16.5t70 -47.5t45 -75.5t16 -100.5v-325h-83v325q0 81 -35 123t-104 42q-34 0 -59.5 -12.5t-43 -34.5t-27 -51.5t-10.5 -62.5v-4v-325h-83v325q0 81 -35 123t-104 42q-35 0 -61 -13t-43.5 -35.5t-26.5 -52.5t-9 -64v-326h-83v548h83v-56
q31 35 62.5 54.5t77.5 19.5q66 0 115 -29t78 -83q35 61 79.5 86.5t89.5 25.5z" />
    <glyph glyph-name="n" unicode="n" horiz-adv-x="631" 
d="M321 565q49 0 93 -16.5t76.5 -47.5t51.5 -75.5t19 -100.5v-325h-83v325q0 40 -11.5 71t-32.5 52t-50 31.5t-63 10.5q-35 0 -64 -13t-50 -35.5t-32.5 -52.5t-11.5 -64v-326h-83v549h83v-57q31 35 71.5 54.5t86.5 19.5z" />
    <glyph glyph-name="o" unicode="o" 
d="M319 566q60 0 113 -23t92.5 -62t62 -92t22.5 -113t-22.5 -113t-62 -92t-92.5 -62t-113 -23t-112.5 23t-92 62t-62 92t-22.5 113t22.5 113t62 92t92 62t112.5 23zM319 62q45 0 82.5 17t65 46t43 68t15.5 83t-15.5 83t-43 68t-65 46t-82.5 17q-44 0 -82 -17t-65.5 -46
t-43 -68t-15.5 -83t15.5 -83t43 -68t65.5 -46t82 -17z" />
    <glyph glyph-name="p" unicode="p" horiz-adv-x="689" 
d="M80 -220v773h83v-89q16 23 39 42t50 32.5t57.5 21t60.5 7.5q60 0 112.5 -23t92 -62t62 -92t22.5 -113t-22.5 -112.5t-62 -92t-92 -62t-112.5 -22.5q-30 0 -61 8t-58.5 21.5t-50 32.5t-37.5 40v-310h-83zM370 491q-44 0 -82 -17t-65.5 -46t-43 -68t-15.5 -83t15.5 -83
t43 -68t65.5 -46t82 -17t82 17t65.5 46t43.5 68t16 83t-16 83t-43.5 68t-65.5 46t-82 17z" />
    <glyph glyph-name="q" unicode="q" horiz-adv-x="689" 
d="M526 -221v310q-14 -21 -37 -39.5t-50.5 -32.5t-58 -22t-60.5 -8q-60 0 -113 23t-92 62t-62 92t-23 113t23 112.5t62 92t92 62t113 22.5q30 0 60 -7.5t57 -21t50 -32t39 -41.5v88h83v-773h-83zM525 277q0 44 -15.5 83t-43 68t-65 46t-81.5 17q-45 0 -82.5 -17t-65.5 -46
t-43.5 -68t-15.5 -83t15.5 -83t43.5 -68t65.5 -46t82.5 -17q44 0 81.5 17t65 46t43 68t15.5 83z" />
    <glyph glyph-name="r" unicode="r" horiz-adv-x="374" 
d="M369 487q-17 2 -26 2.5t-22 0.5q-35 0 -64 -13t-50 -35.5t-32.5 -52.5t-11.5 -64v-326h-83v549h83v-57q31 35 71.5 54.5t86.5 19.5q12 0 24 -1t24 -3v-74z" />
    <glyph glyph-name="s" unicode="s" horiz-adv-x="429" 
d="M222 331q28 -12 59 -27t57 -36.5t43.5 -52t17.5 -73.5q0 -26 -12.5 -53.5t-37.5 -50.5t-62.5 -37.5t-87.5 -14.5q-39 0 -70.5 7.5t-53.5 16.5q-26 11 -45 24v108q13 -23 37 -41q20 -15 52 -27.5t80 -12.5q29 0 51 8t37 20t22.5 26.5t7.5 27.5q0 25 -12 43t-30 31
t-40 22.5l-43 18.5q-81 37 -118 75t-37 86q0 30 13 56.5t36.5 46.5t55.5 32t71 12h1q31 0 56 -6t43 -13q21 -9 38 -19v-103l-24 24t-27.5 21.5t-36 15t-49.5 5.5q-26 0 -44.5 -7.5t-29.5 -18t-16 -23.5t-5 -23q0 -16 10 -29t25 -23.5t33 -19.5t35 -16z" />
    <glyph glyph-name="t" unicode="t" horiz-adv-x="333" 
d="M313 66v-75q-61 -10 -101.5 -2t-64.5 31.5t-34 59.5t-10 82v310h-83v76h83v139h84v-139h126v-76h-126v-310q0 -25 6 -48t20.5 -37.5t39 -18.5t60.5 8z" />
    <glyph glyph-name="u" unicode="u" horiz-adv-x="631" 
d="M311 -16q-50 0 -94 16.5t-76.5 47.5t-51.5 76t-19 101v324h83v-324q0 -81 44.5 -123t113.5 -42q34 0 63 13t50 35.5t32.5 52.5t11.5 64v326h83v-549h-83v57q-31 -35 -71.5 -55t-85.5 -20z" />
    <glyph glyph-name="v" unicode="v" horiz-adv-x="536" 
d="M441 550h90l-250 -565h-27l-249 565h90l173 -410l173 410v0z" />
    <glyph glyph-name="w" unicode="w" horiz-adv-x="797" 
d="M706 551h86l-198 -564h-26l-169 400l-170 -400h-26l-198 564h86l131 -390l164 406h26l163 -406l131 390v0z" />
    <glyph glyph-name="x" unicode="x" horiz-adv-x="534" 
d="M529 0h-103l-159 226l-159 -226h-103l211 293l-185 257h102l134 -198l134 198h102l-185 -257l211 -293v0z" />
    <glyph glyph-name="y" unicode="y" horiz-adv-x="536" 
d="M100 -226l124 283l-219 493h90l174 -413l171 413h91l-340 -776h-91v0z" />
    <glyph glyph-name="z" unicode="z" horiz-adv-x="447" 
d="M133 75h309v-75h-437v26l299 448h-260v76h387v-27l-298 -448v0z" />
    <glyph glyph-name="uni0410" unicode="&#x410;" horiz-adv-x="684" 
d="M507 185h-330l-77 -185h-95l324 746h26l324 -746h-95zM475 263l-133 320l-133 -320h266z" />
    <glyph glyph-name="uni0411" unicode="&#x411;" horiz-adv-x="602" 
d="M299 449q70 0 120 -18.5t82 -49.5t46.5 -71.5t14.5 -84.5q0 -45 -15 -85.5t-46.5 -71.5t-81.5 -49.5t-119 -18.5h-200v733h391v-78h-303v-206h111zM298 77q51 0 85 14t54 36t28.5 48t8.5 50q0 22 -8 48t-28 48t-54 36.5t-86 14.5h-110v-295h110z" />
    <glyph glyph-name="uni0412" unicode="&#x412;" horiz-adv-x="602" 
d="M406 406q80 -24 118 -74.5t38 -116.5q0 -44 -14.5 -83.5t-46.5 -68.5t-84.5 -46t-127.5 -17h-189v732l170 1q55 0 97 -15t70 -40.5t42 -60t14 -74.5q0 -38 -24.5 -76t-62.5 -61zM269 656h-80v-226h85q32 0 56.5 10t41 26t24.5 36t8 41t-7 41.5t-22.5 36.5t-41.5 25.5
t-63 9.5h-1zM304 78q46 0 78.5 11.5t52.5 30.5t29.5 44t9.5 51t-10 51t-30.5 44t-52.5 30.5t-77 11.5h-115v-274h115z" />
    <glyph glyph-name="uni0413" unicode="&#x413;" horiz-adv-x="461" 
d="M188 655v-655h-88v733h356v-78h-268v0z" />
    <glyph glyph-name="uni0414" unicode="&#x414;" horiz-adv-x="773" 
d="M690 78h73v-188h-89v111h-576v-111h-88v188h73l290 669h27zM177 78h419l-210 506z" />
    <glyph glyph-name="uni0415" unicode="&#x415;" horiz-adv-x="534" 
d="M514 77v-77h-414v733h401v-77h-313v-227h295v-77h-295v-275h326z" />
    <glyph glyph-name="uni0416" unicode="&#x416;" horiz-adv-x="938" 
d="M425 0v733h88v-733h-88zM640 389l293 -389h-111l-281 374l-1 27l228 332h107zM170 733l227 -332v-27l-281 -374h-111l293 390l-235 343h107z" />
    <glyph glyph-name="uni0417" unicode="&#x417;" horiz-adv-x="505" 
d="M323 408q42 -12 69 -35.5t43.5 -51t23 -57t6.5 -54.5q0 -46 -17.5 -87t-50 -71.5t-78 -48t-101.5 -17.5q-52 0 -90.5 7.5t-64.5 16.5q-31 11 -53 24v83q21 -16 52 -27q26 -10 64.5 -18t90.5 -8q39 0 68.5 12.5t50 33t30.5 47t10 53.5t-10 53t-30.5 46.5t-50 33
t-68.5 12.5h-94v78h84q26 1 49.5 11.5t41 27t28 37t10.5 41.5q0 22 -8.5 43.5t-24.5 38t-39 27t-52 10.5q-39 0 -68 -6.5t-49 -14.5q-23 -10 -39 -21v79q15 11 38 20q20 8 49 14t69 6q48 0 87 -15t67 -41.5t43.5 -62.5t15.5 -77q0 -23 -8.5 -43.5t-22.5 -38.5t-32.5 -33
t-38.5 -27z" />
    <glyph glyph-name="uni0418" unicode="&#x418;" horiz-adv-x="779" 
d="M188 734v-539l465 551h26v-746h-88v535l-463 -549h-28v748h88v0z" />
    <glyph glyph-name="uni0419" unicode="&#x419;" horiz-adv-x="779" 
d="M679 748v-746h-88v541l-463 -555h-28v748h88v-546l465 558h26zM397 854q58 0 111 22l1 -69q-48 -21 -112 -21q-32 0 -61.5 5t-52.5 16v69q55 -22 114 -22z" />
    <glyph glyph-name="uni041A" unicode="&#x41a;" horiz-adv-x="642" 
d="M100 733h88v-733h-88v733zM523 2l-307 372v26l255 333h112l-265 -344l319 -387h-114z" />
    <glyph glyph-name="uni041B" unicode="&#x41b;" horiz-adv-x="684" 
d="M100 0h-95l324 746h26l324 -746h-95l-242 582l-242 -582v0z" />
    <glyph glyph-name="uni041C" unicode="&#x41c;" horiz-adv-x="953" 
d="M80 0l77 746h27l292 -598l291 598h28l78 -746h-89l-50 487l-244 -498h-26l-246 497l-49 -486h-89z" />
    <glyph glyph-name="uni041D" unicode="&#x41d;" horiz-adv-x="779" 
d="M679 733v-733h-89v353h-402v-353h-88v733h88v-303h402v303h89z" />
    <glyph glyph-name="uni041E" unicode="&#x41e;" horiz-adv-x="839" 
d="M419 746q79 0 148 -30t120.5 -81.5t81.5 -120.5t30 -148q0 -78 -30 -147t-81.5 -120.5t-120.5 -81.5t-148 -30q-78 0 -147 30t-120.5 81.5t-81.5 120.5t-30 147q0 79 30 148t81.5 120.5t120.5 81.5t147 30zM420 66q64 0 118 23.5t92 64.5t59.5 95.5t21.5 116.5t-21 116.5
t-59.5 95.5t-92 64.5t-118.5 23.5t-118.5 -23.5t-92 -64.5t-60 -95.5t-21.5 -116.5t21.5 -116.5t60.5 -95.5t92.5 -64.5t117.5 -23.5z" />
    <glyph glyph-name="uni041F" unicode="&#x41f;" horiz-adv-x="756" 
d="M100 733h556v-733h-88v655h-380v-655h-88v733v0z" />
    <glyph glyph-name="uni0420" unicode="&#x420;" horiz-adv-x="582" 
d="M188 0h-88v733h199q69 0 119 -18.5t82 -49.5t47 -72t15 -85t-14.5 -84.5t-46.5 -71.5t-82 -49.5t-120 -18.5v-1h-111v-283zM188 361h110q52 0 86 14.5t54 36t28 47.5t8 49q0 24 -8.5 50t-28.5 47.5t-54 35.5t-85 14h-110v-294z" />
    <glyph glyph-name="uni0421" unicode="&#x421;" horiz-adv-x="720" 
d="M690 69q-54 -39 -120.5 -60.5t-133.5 -21.5q-79 0 -150.5 30t-126 81.5t-87 120.5t-32.5 147q0 79 32.5 148t87 120.5t126 81.5t150.5 30q67 0 133.5 -22t120.5 -60v-108q-20 25 -48.5 45.5t-62 34.5t-70 22t-73.5 8q-65 0 -121 -23.5t-97.5 -64t-65.5 -95.5t-24 -117
t24 -116.5t66 -95t98 -64t120 -23.5q36 0 73 7.5t71 22t62 34.5t48 45v-107z" />
    <glyph glyph-name="uni0422" unicode="&#x422;" horiz-adv-x="570" 
d="M560 655h-231v-655h-89v655h-230v78h550v-78z" />
    <glyph glyph-name="uni0423" unicode="&#x423;" horiz-adv-x="618" 
d="M510 733h98l-332 -733h-97l102 226l-271 507h100l217 -411l183 411v0z" />
    <glyph glyph-name="uni0424" unicode="&#x424;" horiz-adv-x="926" 
d="M886 366q0 -78 -29.5 -147t-81 -120.5t-120.5 -81.5t-148 -30v-56h-88v56q-78 0 -147 30t-120.5 81.5t-81.5 120.5t-30 147q0 79 30 148t81.5 120.5t120.5 81.5t147 30v58h88v-58q79 0 148 -30t120.5 -81.5t81 -120.5t29.5 -148zM419 666q-64 0 -117.5 -24t-92 -64.5
t-60 -95t-21.5 -116.5t21.5 -116.5t60 -95t92 -64t117.5 -23.5v599zM507 66q64 0 117.5 24t92 64.5t60 95t21.5 116.5t-21.5 116.5t-60 95t-92 64t-117.5 23.5v-599z" />
    <glyph glyph-name="uni0425" unicode="&#x425;" horiz-adv-x="643" 
d="M269 385l-223 347h105l170 -265l170 265h105l-222 -347l259 -384h-106l-206 302l-206 -302h-105z" />
    <glyph glyph-name="uni0426" unicode="&#x426;" horiz-adv-x="766" 
d="M659 77h87v-189h-89v112h-557v733h88v-656h383v656h88v-656v0z" />
    <glyph glyph-name="uni0427" unicode="&#x427;" horiz-adv-x="611" 
d="M511 733v-733h-89v327q-11 -11 -29 -20.5t-39 -16t-44.5 -10.5t-44.5 -4q-47 0 -91 15.5t-78.5 47.5t-55 80.5t-20.5 115.5v198h88v-198q0 -51 12.5 -86t34.5 -56.5t50 -31t60 -9.5q74 0 115.5 35.5t41.5 107.5v238h89z" />
    <glyph glyph-name="uni0428" unicode="&#x428;" horiz-adv-x="1021" 
d="M833 733h88v-733h-821v733h88v-656h279v656h88v-656h278v656v0z" />
    <glyph glyph-name="uni0429" unicode="&#x429;" horiz-adv-x="1027" 
d="M922 77h85v-189h-88v112h-819v733h89v-655h278v655h89v-655h277v655h89v-656v0z" />
    <glyph glyph-name="uni042A" unicode="&#x42a;" horiz-adv-x="630" 
d="M348 449q70 0 120 -18.5t81.5 -49.5t46 -71.5t14.5 -85.5q0 -44 -15 -84.5t-47.5 -71.5t-82 -49.5t-118.5 -18.5v-1l-199 1v655h-138v78h226v-284h112zM346 77q51 0 85 14t54 36t28.5 47.5t8.5 49.5q0 23 -8 49t-28 47.5t-54 36t-86 14.5h-110v-294h110z" />
    <glyph glyph-name="uni042C" unicode="&#x42c;" horiz-adv-x="582" 
d="M300 449q70 0 120 -18.5t81.5 -49.5t46 -71.5t14.5 -85.5q0 -44 -15 -84.5t-47.5 -71.5t-82 -49.5t-118.5 -18.5v-1l-199 1v733h88v-284h112zM298 77q51 0 85 14t54 36t28.5 47.5t8.5 49.5q0 23 -8 49t-28 47.5t-54 36t-86 14.5h-110v-294h110z" />
    <glyph glyph-name="uni042E" unicode="&#x42e;" horiz-adv-x="1089" 
d="M669 746q79 0 148 -30t120.5 -81.5t81.5 -120.5t30 -148q0 -78 -30 -147t-81.5 -120.5t-120.5 -81.5t-148 -30q-77 0 -145 28.5t-119 78t-81.5 116.5t-33.5 143h-102v-353h-88v733h88v-302h107q12 67 45.5 124.5t83 100t112.5 66.5t133 24zM670 66q65 0 118.5 23.5
t92 64.5t59.5 95.5t21 116.5t-21 116.5t-59.5 95.5t-92 64.5t-118.5 23.5t-118.5 -23.5t-92 -64.5t-60 -95.5t-21.5 -116.5t21.5 -116.5t60.5 -95.5t92.5 -64.5t117.5 -23.5z" />
    <glyph glyph-name="uni042F" unicode="&#x42f;" horiz-adv-x="637" 
d="M537 733v-733h-89v655h-114q-48 0 -80.5 -13t-53 -34t-29 -47.5t-8.5 -52.5t8.5 -52t28.5 -47t52.5 -34t81.5 -13h78v-26l-287 -336h-115l256 287q-46 6 -81.5 26t-60 50t-37 67.5t-12.5 77.5q0 44 14.5 85t45.5 72t80 49.5t118 18.5h204z" />
    <glyph glyph-name="uni044C" unicode="&#x44c;" horiz-adv-x="551" 
d="M300 426q46 0 86 -17.5t70 -47.5t47.5 -70t17.5 -85q0 -46 -17.5 -86t-47.5 -70t-70 -47.5t-86 -17.5q-45 0 -84.5 17t-69.5 46t-47.5 68.5t-18.5 84.5v349h83v-172q29 23 64 35.5t73 12.5zM300 61q30 0 55 11.5t43 31.5t28.5 46t10.5 56q0 29 -10.5 55.5t-28.5 46
t-43 31t-55 11.5q-29 0 -54 -11.5t-43.5 -31t-29 -46t-10.5 -55.5q0 -30 10.5 -56t29 -46t43.5 -31.5t54 -11.5z" />
    <glyph glyph-name="uni044A" unicode="&#x44a;" horiz-adv-x="590" 
d="M339 426q46 0 86 -17.5t70 -47.5t47.5 -70t17.5 -85q0 -46 -17.5 -86t-47.5 -70t-70 -47.5t-86 -17.5q-45 0 -84.5 17t-69.5 46t-47.5 68.5t-18.5 84.5v273h-114v76h197v-172q29 23 64 35.5t73 12.5zM339 61q30 0 55 11.5t43 31.5t28.5 46t10.5 56q0 29 -10.5 55.5
t-28.5 46t-43 31t-55 11.5q-29 0 -54 -11.5t-43.5 -31t-29 -46t-10.5 -55.5q0 -30 10.5 -56t29 -46t43.5 -31.5t54 -11.5z" />
    <glyph glyph-name="uni044E" unicode="&#x44e;" horiz-adv-x="856" 
d="M536 565q60 0 113 -23t92 -62t62 -92t23 -113t-23 -113t-62 -92t-92 -62t-113 -23q-57 0 -108 21t-90 57.5t-63 85.5t-28 106h-84v-255h-83v773h83v-442h89q10 50 35.5 92.5t63 74t85 49.5t100.5 18zM536 61q44 0 82 17t65.5 46t43 68t15.5 83t-15.5 83t-43 68t-65.5 46
t-82 17t-82 -17t-66 -46t-43.5 -68t-15.5 -83t15.5 -83t43.5 -68t66 -46t82 -17z" />
    <glyph glyph-name="uni044F" unicode="&#x44f;" horiz-adv-x="522" 
d="M442 549v-549h-83v473h-116q-24 0 -42.5 -8t-31.5 -21.5t-20 -30.5t-7 -35t6.5 -35.5t19 -31.5t31.5 -22.5t44 -8.5l83 -1v-26l-216 -253h-105l191 207q-14 3 -37 13.5t-45.5 30.5t-38.5 51t-16 76q0 50 18.5 83t46 52.5t59.5 28t60 8.5z" />
    <glyph glyph-name="uni0430" unicode="&#x430;" horiz-adv-x="689" 
d="M609 549v-550h-83v88q-16 -23 -39 -41.5t-50 -32t-57 -21t-60 -7.5q-60 0 -113 23t-92 62t-62 92t-23 113t23 112.5t62 92t92 62t113 22.5q30 0 60.5 -8t58 -21.5t50.5 -32.5t37 -40v87h83zM320 61q44 0 81.5 17t65 46t43 68t15.5 83t-15.5 83t-43 68t-65 46t-81.5 17
q-45 0 -82.5 -17t-65.5 -46t-43.5 -68t-15.5 -83t15.5 -83t43.5 -68t65.5 -46t82.5 -17z" />
    <glyph glyph-name="uni0431" unicode="&#x431;" horiz-adv-x="660" 
d="M350 536q58 0 109.5 -21.5t89 -58.5t59.5 -88t22 -109q0 -59 -22 -108.5t-59.5 -86t-89 -57t-109.5 -20.5q-56 0 -106.5 19t-89 54t-61.5 85.5t-23 113.5v190q0 46 6.5 82.5t16 64.5t21 47.5t22.5 31.5q36 43 91 63t115 27.5t119 9t103 9.5v-75q-52 -8 -103 -9t-98 -6
t-88.5 -19.5t-73.5 -48.5q-14 -15 -30.5 -62t-17.5 -125q40 55 89 76t108 21zM350 63q41 0 77 14.5t62.5 40.5t42 62t15.5 79q0 42 -15.5 79t-42 64t-62.5 42.5t-77 15.5q-42 0 -78 -15.5t-62.5 -42.5t-41.5 -64t-15 -79q0 -41 15 -76.5t41.5 -62t62.5 -42t78 -15.5z" />
    <glyph glyph-name="uni0432" unicode="&#x432;" horiz-adv-x="592" 
d="M398 433q78 -23 121 -81t43 -129q0 -49 -18 -92t-51 -75t-78 -50.5t-99 -18.5q-55 0 -100 18.5t-77.5 50.5t-50.5 75t-18 92v362q0 42 15.5 78.5t43.5 63.5t67 43t85 16q47 0 86 -16t67 -43t43.5 -63.5t15.5 -78.5q0 -45 -26.5 -85t-68.5 -67zM316 62q31 0 60.5 10.5
t52.5 30.5t36.5 50.5t13.5 69.5t-16.5 68.5t-44 50t-63 31t-73.5 10.5h-85v76h67q30 0 56.5 9t46 25.5t31 39.5t11.5 52q0 26 -9.5 49t-26.5 40.5t-40.5 27.5t-51.5 10q-24 0 -47 -10t-41 -27.5t-29 -40.5t-11 -49v-362q0 -39 13.5 -69t36.5 -50.5t52 -31t61 -10.5z" />
    <glyph glyph-name="uni0433" unicode="&#x433;" horiz-adv-x="429" 
d="M207 330q16 7 34.5 16t33.5 19.5t25 23.5t10 29q0 10 -5 22.5t-16.5 23.5t-29.5 18t-44 7q-29 0 -49.5 -5.5t-36 -14.5t-27.5 -21l-24 -24v103q17 10 38 19q18 7 43 13t56 6h1q39 0 71 -12t55.5 -32t36.5 -46.5t13 -56.5q0 -48 -37 -86t-118 -75l-43 -18.5t-40 -22.5
t-30 -31t-12 -43q0 -13 7.5 -27.5t22.5 -26.5t37 -20t51 -8q48 0 80 12.5t52 27.5q23 18 37 41v-108q-20 -13 -46 -24q-22 -9 -53 -16.5t-70 -7.5q-50 0 -87.5 14.5t-62.5 37.5t-37.5 50.5t-12.5 53.5q0 43 17 73.5t43.5 52t57.5 36.5t59 27z" />
    <glyph glyph-name="uni0434" unicode="&#x434;" horiz-adv-x="679" 
d="M609 550v-483q0 -72 -22 -127.5t-62.5 -92.5t-97 -56t-124.5 -19q-19 0 -46.5 3t-58.5 12.5t-64 26.5t-62 44v100q30 -35 59 -56.5t57.5 -33.5t57 -16t57.5 -4q49 0 90 13.5t70.5 41t46 68.5t16.5 96v34q-16 -23 -39 -41.5t-50 -32t-57 -21t-60 -7.5q-60 0 -113 22
t-92 60t-62 90t-23 112t23 111.5t62 89.5t92 59.5t113 21.5q30 0 60.5 -8t58 -21.5t50.5 -32.5t37 -40v87h83zM320 75q44 0 82 16t65.5 44t43 66t15.5 82t-15.5 82t-43 65.5t-65.5 43.5t-82 16t-82 -16t-66 -43.5t-43.5 -65.5t-15.5 -82t15.5 -82t43.5 -66t66 -44t82 -16z
" />
    <glyph glyph-name="uni0435" unicode="&#x435;" 
d="M320 566q60 0 112.5 -22.5t92 -62t62 -92t22.5 -112.5v-22h-495q4 -41 22 -76t47 -60.5t68.5 -40.5t85.5 -15q29 0 57.5 4t57 16t57 33.5t58.5 56.5v-100q-29 -27 -62 -44t-64 -26.5t-58.5 -12.5t-45.5 -3q-69 0 -125.5 23t-97 62t-62.5 92t-22 113t23 112.5t62 92t92 62
t113 22.5zM320 491q-38 0 -70.5 -12t-59 -33.5t-44.5 -51t-27 -63.5h400q-8 34 -26.5 63.5t-44.5 51t-58.5 33.5t-69.5 12z" />
    <glyph glyph-name="uni0436" unicode="&#x436;" horiz-adv-x="835" 
d="M376 1v773h83v-773h-83zM574 314l256 -315h-110l-242 304v26l190 220h112zM54 549h113l189 -220v-26l-242 -304h-109l256 315z" />
    <glyph glyph-name="uni0437" unicode="&#x437;" horiz-adv-x="478" 
d="M294 214q39 -11 67.5 -32t48 -48.5t29 -61t9.5 -68.5q0 -49 -19.5 -92t-53.5 -75t-80 -50.5t-99 -18.5q-35 0 -69.5 8.5t-61.5 19.5q-32 12 -60 28v76q32 -16 65 -28q29 -11 62 -19.5t64 -8.5q36 0 66.5 11.5t53 32.5t35.5 50.5t13 65.5q0 37 -13.5 67t-38 50.5
t-58.5 31.5t-75 11h-90v76h72q38 0 68 10.5t51 28.5t32 40.5t11 46.5q0 25 -7.5 48t-23 40.5t-39.5 27.5t-57 10q-45 0 -74.5 -5.5t-46.5 -12.5q-20 -8 -32 -18v75q20 10 45 18q21 7 48.5 12.5t59.5 5.5q46 0 85 -16t66.5 -43.5t43 -64t15.5 -77.5q0 -22 -8.5 -44
t-23.5 -42.5t-35.5 -37t-44.5 -28.5z" />
    <glyph glyph-name="uni0438" unicode="&#x438;" horiz-adv-x="631" 
d="M311 -16q-50 0 -94 16.5t-76.5 47.5t-51.5 76t-19 101v324h83v-324q0 -81 44.5 -123t113.5 -42q34 0 63 13t50 35.5t32.5 52.5t11.5 64v326h83v-549h-83v57q-31 -35 -71.5 -55t-85.5 -20z" />
    <glyph glyph-name="uni0439" unicode="&#x439;" horiz-adv-x="631" 
d="M425 660q-24 -11 -52.5 -16.5t-59.5 -5.5q-32 0 -61.5 5.5t-52.5 16.5v69q54 -23 114 -23q29 0 56.5 5.5t54.5 16.5zM551 551v-549h-83v57q-31 -35 -71.5 -55t-85.5 -20q-50 0 -94 16.5t-76.5 47.5t-51.5 76t-19 101v324h83v-324q0 -81 44.5 -123t113.5 -42q34 0 63 13
t50 35.5t32.5 52.5t11.5 64v326h83z" />
    <glyph glyph-name="uni043A" unicode="&#x43a;" horiz-adv-x="552" 
d="M80 773h83v-773h-83v773zM438 -1l-255 303v26l202 222h113l-216 -237l265 -314h-109z" />
    <glyph glyph-name="uni043B" unicode="&#x43b;" horiz-adv-x="536" 
d="M95 1h-90l250 564h26l250 -564h-90l-173 416l-173 -416v0z" />
    <glyph glyph-name="uni043C" unicode="&#x43c;" horiz-adv-x="785" 
d="M715 -1h-82l-39 352l-187 -366h-27l-188 365l-40 -351h-82l68 566h27l228 -443l228 442h27l67 -565v0z" />
    <glyph glyph-name="uni043D" unicode="&#x43d;" horiz-adv-x="641" 
d="M478 550h83v-550h-83v255h-315v-255h-83v550h83v-219h315v219v0z" />
    <glyph glyph-name="uni043E" unicode="&#x43e;" 
d="M319 566q60 0 113 -23t92.5 -62t62 -92t22.5 -113t-22.5 -113t-62 -92t-92.5 -62t-113 -23t-112.5 23t-92 62t-62 92t-22.5 113t22.5 113t62 92t92 62t112.5 23zM319 62q45 0 82.5 17t65 46t43 68t15.5 83t-15.5 83t-43 68t-65 46t-82.5 17q-44 0 -82 -17t-65.5 -46
t-43 -68t-15.5 -83t15.5 -83t43 -68t65.5 -46t82 -17z" />
    <glyph glyph-name="uni043F" unicode="&#x43f;" horiz-adv-x="631" 
d="M321 565q49 0 93 -16.5t76.5 -47.5t51.5 -75.5t19 -100.5v-325h-83v325q0 40 -11.5 71t-32.5 52t-50 31.5t-63 10.5q-35 0 -64 -13t-50 -35.5t-32.5 -52.5t-11.5 -64v-326h-83v549h83v-57q31 35 71.5 54.5t86.5 19.5z" />
    <glyph glyph-name="uni0440" unicode="&#x440;" horiz-adv-x="689" 
d="M80 -220v773h83v-89q16 23 39 42t50 32.5t57.5 21t60.5 7.5q60 0 112.5 -23t92 -62t62 -92t22.5 -113t-22.5 -112.5t-62 -92t-92 -62t-112.5 -22.5q-30 0 -61 8t-58.5 21.5t-50 32.5t-37.5 40v-310h-83zM370 491q-44 0 -82 -17t-65.5 -46t-43 -68t-15.5 -83t15.5 -83
t43 -68t65.5 -46t82 -17t82 17t65.5 46t43.5 68t16 83t-16 83t-43.5 68t-65.5 46t-82 17z" />
    <glyph glyph-name="uni0441" unicode="&#x441;" horiz-adv-x="559" 
d="M332 489q-45 0 -85 -17t-70 -46t-47.5 -68t-17.5 -84q0 -44 17.5 -83t47.5 -68t70 -46t85 -17q53 0 90 15t61 33q28 21 46 49v-107q-24 -19 -54 -33q-26 -12 -62 -22t-81 -10q-51 0 -104.5 20t-97.5 57.5t-72 91t-28 121.5q0 52 22 103.5t62 93t95.5 67.5t122.5 26
q45 0 81 -10.5t62 -22.5q30 -14 54 -32v-107q-19 27 -47 48q-24 18 -61.5 33t-88.5 15z" />
    <glyph glyph-name="uni0442" unicode="&#x442;" horiz-adv-x="957" 
d="M665 565q50 0 91 -16.5t70 -47.5t45 -75.5t16 -100.5v-325h-83v325q0 81 -35 123t-104 42q-34 0 -59.5 -12.5t-43 -34.5t-27 -51.5t-10.5 -62.5v-4v-325h-83v325q0 81 -35 123t-104 42q-35 0 -61 -13t-43.5 -35.5t-26.5 -52.5t-9 -64v-326h-83v548h83v-56
q31 35 62.5 54.5t77.5 19.5q66 0 115 -29t78 -83q35 61 79.5 86.5t89.5 25.5z" />
    <glyph glyph-name="uni0443" unicode="&#x443;" horiz-adv-x="536" 
d="M100 -226l124 283l-219 493h90l174 -413l171 413h91l-340 -776h-91v0z" />
    <glyph glyph-name="uni0444" unicode="&#x444;" horiz-adv-x="722" 
d="M403 565q60 0 112.5 -22.5t92 -62t62 -92t22.5 -112.5t-22.5 -113t-62 -92t-92 -62t-112.5 -23v-212h-83v212q-60 0 -113 23t-92 62t-62 92t-23 113t23 112.5t62 92t92 62t113 22.5v207h83v-207zM320 490q-45 0 -82.5 -17t-65.5 -46t-43.5 -68t-15.5 -83t15.5 -83
t43.5 -68t65.5 -46t82.5 -17v428zM403 62q44 0 82 17t65.5 46t43 68t15.5 83t-15.5 83t-43 68t-65.5 46t-82 17v-428z" />
    <glyph glyph-name="uni0445" unicode="&#x445;" horiz-adv-x="534" 
d="M426 0l-159 226l-159 -226h-103l211 293l-185 257h102l134 -198l134 198h102l-185 -257l211 -293h-103z" />
    <glyph glyph-name="uni0446" unicode="&#x446;" horiz-adv-x="656" 
d="M551 159q1 -42 20.5 -70.5t69.5 -27.5v-190h-84v122q-30 10 -48.5 29.5t-28.5 47.5q-38 -45 -81 -66t-88 -21q-50 0 -94 16.5t-76.5 47.5t-51.5 76t-19 101v324h83v-324q0 -81 44.5 -123t113.5 -42q34 0 63 13t50 35.5t32.5 52.5t11.5 64v326h83v-391v0z" />
    <glyph glyph-name="uni0447" unicode="&#x447;" horiz-adv-x="554" 
d="M247 148q-50 0 -92.5 18t-73.5 51t-48.5 79t-17.5 103v149h83v-149q0 -81 40 -128t109 -47q34 0 60.5 14.5t45 39t28 56t9.5 65.5v151h84v-550h-84v225q-23 -37 -60.5 -57t-82.5 -20z" />
    <glyph glyph-name="uni0448" unicode="&#x448;" horiz-adv-x="957" 
d="M293 -15q-50 0 -91 16.5t-70.5 47.5t-45.5 76t-16 101v324h83v-324q0 -81 35.5 -123t104.5 -42q33 0 59 12.5t43.5 34t26.5 51t10 62.5v5v324h83v-324q0 -81 35.5 -123t104.5 -42q34 0 60 13t43.5 35.5t26.5 52.5t9 64v326h83v-549h-83v57q-31 -35 -62.5 -55t-76.5 -20
q-67 0 -116 29t-78 83q-35 -61 -79 -86.5t-89 -25.5z" />
    <glyph glyph-name="uni0449" unicode="&#x449;" horiz-adv-x="982" 
d="M877 160q0 -43 20 -71.5t70 -28.5v-189h-83v122h1q-32 10 -51.5 31.5t-28.5 52.5q-11 -27 -30 -47q-17 -17 -46 -31.5t-74 -14.5q-67 0 -116 29t-78 83q-35 -61 -79 -86.5t-89 -25.5q-50 0 -91 16.5t-70.5 47.5t-45.5 75.5t-16 100.5v325h83v-325q0 -81 35.5 -122.5
t104.5 -41.5q34 0 59.5 13.5t43 36t26.5 52.5t10 62v325h83v-325q0 -81 35.5 -122.5t104.5 -41.5q34 0 60 13t43.5 35t26.5 52t9 64v326h83v-390v0z" />
    <glyph glyph-name="period" unicode="." horiz-adv-x="249" 
d="M125 116q26 0 45 -19t19 -46t-19 -46t-45 -19q-27 0 -46 19t-19 46t19 46t46 19z" />
    <glyph glyph-name="exclam" unicode="!" horiz-adv-x="254" 
d="M169 182h-83l-12 591h108zM128 -12q-27 0 -46 19t-19 46t19 46t46 19t46 -19t19 -46t-19 -46t-46 -19z" />
    <glyph glyph-name="colon" unicode=":" horiz-adv-x="258" 
d="M129 116q26 0 45 -19t19 -46t-19 -46t-45 -19q-27 0 -46 19t-19 46t19 46t46 19zM129 421q-27 0 -46 19t-19 46t19 46t46 19q26 0 45 -19t19 -46t-19 -46t-45 -19z" />
    <glyph glyph-name="semicolon" unicode=";" horiz-adv-x="258" 
d="M129 421q-27 0 -46 19t-19 46t19 46t46 19q26 0 45 -19t19 -46t-19 -46t-45 -19zM82 115h96l-69 -222h-63z" />
    <glyph glyph-name="comma" unicode="," horiz-adv-x="236" 
d="M46 -107l36 222h96l-69 -222h-63v0z" />
    <glyph glyph-name="quotedblright" unicode="&#x201d;" horiz-adv-x="399" 
d="M46 550l36 222h96l-69 -222h-63zM249 772h96l-69 -222h-63z" />
    <glyph glyph-name="quotedblbase" unicode="&#x201e;" horiz-adv-x="403" 
d="M46 -108l36 223h96l-69 -223h-63zM249 115h96l-69 -223h-63z" />
    <glyph glyph-name="quotedblleft" unicode="&#x201c;" horiz-adv-x="401" 
d="M345 772l-37 -222h-95l69 222h63zM141 550h-95l69 222h63z" />
    <glyph glyph-name="quotedbl" unicode="&#x22;" horiz-adv-x="360" 
d="M61 550l-15 222h95l-17 -222h-63zM213 772h95l-17 -222h-63z" />
    <glyph glyph-name="quotesingle" unicode="'" horiz-adv-x="192" 
d="M61 550l-15 222h95l-17 -222h-63v0z" />
    <glyph glyph-name="numbersign" unicode="#" horiz-adv-x="684" 
d="M627 460h-106l-24 -181h105l-11 -74h-103l-27 -204h-84l27 204h-181l-27 -204h-83l27 204h-107l11 74h105l24 181h-104l10 75h104l26 198h84l-26 -198h181l26 198h83l-26 -198h106zM414 279l24 181h-181l-24 -181h181z" />
    <glyph glyph-name="dollar" unicode="$" horiz-adv-x="833" 
d="M502 186q0 -26 -11.5 -56t-35.5 -58t-62 -50t-91 -31v-91h-76v87q-44 2 -81 11t-63 19.5t-41 19.5l-15 9v105q10 -14 31 -28.5t48 -26.5t58.5 -20t62.5 -10v292q-94 45 -142 92.5t-48 109.5q0 26 11 56t34 56.5t59 46t86 25.5v85h76v-85q35 -4 69.5 -14.5t65.5 -29.5
v-106q-12 12 -24.5 23t-28 21t-35.5 17t-47 10v-248q48 -23 85 -45.5t62.5 -49t39 -60t13.5 -76.5zM124 559q0 -18 9 -33.5t23 -29t32.5 -24.5t37.5 -21v212q-27 -5 -46.5 -16.5t-32 -26t-18 -30.5t-5.5 -31zM302 73q27 7 48 20.5t35 29t21 33t7 32.5q0 27 -9 48t-24.5 37
t-35.5 28.5t-42 23.5v-252z" />
    <glyph glyph-name="percent" unicode="%" horiz-adv-x="833" 
d="M631 343q37 0 70 -14.5t57 -38.5t38 -56t14 -69t-14.5 -69.5t-39 -56.5t-57.5 -37.5t-71 -13.5t-71 14t-57 38t-38 56.5t-14 70.5q0 37 14.5 69.5t39 56.5t58 37t71.5 13zM738 165q0 24 -8 45t-23 37t-35 25t-43 9t-43 -9t-34.5 -24.5t-23 -36.5t-8.5 -45q0 -50 30.5 -82
t78.5 -32q47 0 77.5 32t31.5 81zM386 567q0 -37 -14 -69.5t-38.5 -56.5t-57.5 -38.5t-70 -14.5q-38 0 -71.5 14t-58 38.5t-38.5 57t-14 70.5q0 37 14.5 69.5t39 56.5t57.5 37.5t71 13.5q37 0 70 -14t57.5 -38t38.5 -56.5t14 -69.5zM96 568q0 -51 30.5 -83t77.5 -33
q48 -1 79 31.5t31 82.5q0 25 -8 46t-22 36.5t-34 24t-44 8.5q-48 1 -78.5 -31t-31.5 -82zM674 732l-419 -733h-91l419 733h91z" />
    <glyph glyph-name="parenleft" unicode="(" horiz-adv-x="307" 
d="M272 -220h-80q-27 66 -48 125t-35 119t-21 122.5t-7 127.5q0 133 28 251q14 60 35 121t48 127h80q-108 -233 -108 -499q0 -134 27 -255.5t81 -238.5z" />
    <glyph glyph-name="parenright" unicode=")" horiz-adv-x="311" 
d="M143 274q0 269 -107 499h79q55 -128 83 -248q29 -122 29 -251q0 -128 -29 -250q-14 -60 -34.5 -119t-48.5 -125h-79q54 117 80.5 238.5t26.5 255.5z" />
    <glyph glyph-name="ampersand" unicode="&#x26;" horiz-adv-x="642" 
d="M276 744q36 0 67.5 -11t55.5 -31t37.5 -48t13.5 -63q0 -30 -8 -53t-26 -45t-46 -46l-67 -56l150 -184q25 35 47 72t40 85h27h58q-6 -22 -19 -52.5t-29.5 -62t-34 -60.5t-32.5 -48l117 -141l-102 -2l-67 79q-55 -50 -105 -71.5t-101 -20.5q-47 1 -88.5 13.5t-73.5 37.5
t-50.5 61.5t-18.5 86.5q0 33 13 61.5t35.5 55t52.5 51.5l63 52q-38 45 -61.5 86.5t-23.5 84.5q0 81 49.5 125t131.5 44h-5zM366 589q0 34 -25 55t-70 21q-14 0 -29 -4.5t-28.5 -15t-22 -27.5t-8.5 -42q0 -14 6 -29.5t16 -32t22.5 -33t25.5 -31.5q28 19 49 35t35.5 32
t21.5 33.5t7 38.5zM106 184q0 -30 13 -52.5t34 -37.5t47.5 -22.5t53.5 -7.5q42 0 77 21.5t70 59.5l-165 199l-50.5 -37.5t-41.5 -36.5t-28 -40t-10 -46z" />
    <glyph glyph-name="plus" unicode="+" horiz-adv-x="509" 
d="M482 355v-83h-186v-186h-83v186h-186v83h186v186h83v-186h186v0z" />
    <glyph glyph-name="hyphen" unicode="-" horiz-adv-x="417" 
d="M27 354h362v-83h-362v83v0z" />
    <glyph glyph-name="equal" unicode="=" horiz-adv-x="511" 
d="M27 454h455v-84h-455v84zM27 180v84h455v-84h-455z" />
    <glyph glyph-name="quoteright" unicode="&#x2019;" horiz-adv-x="228" 
d="M82 772h96l-69 -222h-63z" />
    <glyph glyph-name="quoteleft" unicode="&#x2018;" horiz-adv-x="228" 
d="M46 550l69 222h63l-37 -222h-95z" />
    <glyph glyph-name="slash" unicode="/" horiz-adv-x="574" 
d="M464 746h91l-434 -760h-90l433 760v0z" />
    <glyph glyph-name="quotesinglbase" unicode="&#x201a;" horiz-adv-x="228" 
d="M82 115h96l-69 -222h-63z" />
    <glyph glyph-name="backslash" unicode="\" horiz-adv-x="582" 
d="M119 746l434 -760h-91l-433 760h90v0z" />
    <glyph glyph-name="bar" unicode="|" horiz-adv-x="276" 
d="M97 -220v993h83v-993h-83v0z" />
    <glyph glyph-name="ellipsis" unicode="&#x2026;" horiz-adv-x="786" 
d="M129 116q26 0 45 -19t19 -46t-19 -46t-45 -19q-27 0 -46 19t-19 46t19 46t46 19zM391 116q26 0 45 -19t19 -46t-19 -46t-45 -19q-27 0 -46 19t-19 46t19 46t46 19zM653 116q26 0 45 -19t19 -46t-19 -46t-45 -19q-27 0 -46 19t-19 46t19 46t46 19z" />
    <glyph glyph-name="perthousand" unicode="&#x2030;" horiz-adv-x="1258" 
d="M629 344q37 0 69.5 -14.5t57 -38.5t38.5 -56t14 -69t-14.5 -69.5t-39.5 -56.5t-58 -37.5t-71 -13.5t-71 14t-57 38t-37.5 56.5t-13.5 70.5q0 37 14.5 69.5t39 56.5t58 37t71.5 13zM736 166q0 24 -8.5 45t-23 37t-34.5 25t-43 9q-48 -1 -78.5 -33.5t-30.5 -81.5
q0 -25 8 -46t22.5 -36t34.5 -23.5t44 -8.5q47 0 77.5 32t31.5 81zM1052 344q37 0 69.5 -14.5t56.5 -38.5t38 -56t14 -69t-14.5 -69.5t-39 -56.5t-57.5 -37.5t-71 -13.5t-71 14t-57 38t-38 56.5t-14 70.5q0 37 14.5 69.5t39 56.5t58 37t72.5 13zM1158 166q0 24 -8 45t-23 37
t-35 25t-43 9t-43 -9t-34.5 -24.5t-23 -36.5t-8.5 -45q0 -50 30.5 -82t78.5 -32q47 0 77.5 32t31.5 81zM383 568q0 -37 -14 -69.5t-38 -56.5t-57 -38.5t-70 -14.5q-38 0 -71.5 14t-58 38.5t-38.5 57t-14 70.5q0 37 14.5 69.5t39 56.5t57 37.5t70.5 13.5t71 -14t57 -38
t38 -56.5t14 -69.5zM94 569q0 -51 30 -83t78 -33q23 0 43 8.5t35 23.5t23.5 36t8.5 46t-8 46t-22 36.5t-34 24t-44 8.5q-48 1 -78.5 -31t-31.5 -82zM672 733l-420 -733h-90l419 733h91z" />
    <glyph glyph-name="plusminus" unicode="&#xb1;" horiz-adv-x="530" 
d="M305 429h186v-84h-186v-186h-83v186h-186v84h186v185h83v-185zM36 1v83h455v-83h-455z" />
    <glyph glyph-name="bullet" unicode="&#x2022;" horiz-adv-x="443" 
d="M221 510q30 0 56.5 -11.5t46 -31t31 -45.5t11.5 -56q0 -29 -11.5 -55t-31 -45.5t-45.5 -31t-56 -11.5q-31 0 -57.5 11t-46 30.5t-31 46t-11.5 56.5t11 56t30.5 45.5t46 30.5t57.5 11z" />
    <glyph glyph-name="dagger" unicode="&#x2020;" horiz-adv-x="491" 
d="M459 532v-76h-175v-538h-83v538h-174v76h174v202h83v-202h175v0z" />
    <glyph glyph-name="daggerdbl" unicode="&#x2021;" horiz-adv-x="485" 
d="M459 456h-175v-261h175v-76h-175v-201h-83v201h-174v76h174v261h-174v76h174v202h83v-202h175v-76v0z" />
    <glyph glyph-name="ogonek" unicode="&#x2db;" horiz-adv-x="204" 
d="M177 -204q-19 -3 -46 -4t-52 6.5t-43 26.5t-18 57q0 24 13 53t47 65h81q-23 -13 -41 -30q-15 -14 -27.5 -33t-12.5 -41q0 -19 10.5 -28.5t25.5 -13t32 -2.5t31 3v-59z" />
    <glyph glyph-name="circumflex" unicode="&#x2c6;" horiz-adv-x="396" 
d="M99 622h-73l157 175h28l157 -175h-73l-98 94l-98 -94v0z" />
    <glyph glyph-name="caron" unicode="&#x2c7;" horiz-adv-x="400" 
d="M100 796l98 -93l98 93h73l-157 -175h-28l-157 175h73v0z" />
    <glyph glyph-name="breve" unicode="&#x2d8;" horiz-adv-x="382" 
d="M351 753q-5 -29 -19.5 -53t-36 -41.5t-48.5 -27.5t-57 -10q-31 0 -58 10t-49 27.5t-36.5 41.5t-19.5 53h74q8 -28 32 -46t55 -19q32 0 56.5 18t34.5 47h72z" />
    <glyph glyph-name="dotaccent" unicode="&#x2d9;" horiz-adv-x="202" 
d="M98 739q26 1 43.5 -16.5t17.5 -42.5q0 -23 -17.5 -40.5t-42.5 -18.5q-24 0 -42.5 17.5t-18.5 41.5t17.5 41.5t42.5 17.5z" />
    <glyph glyph-name="ring" unicode="&#x2da;" horiz-adv-x="312" 
d="M152 591q-26 0 -48 9t-38 25t-25.5 37.5t-9.5 46.5q0 24 9 45.5t25.5 37.5t39 25.5t47.5 9.5q26 0 48.5 -9.5t39 -25.5t26 -37.5t9.5 -46.5t-10 -46.5t-26.5 -37t-39 -24.5t-47.5 -9zM154 764q-25 0 -40.5 -15t-15.5 -40q0 -24 15.5 -39.5t39.5 -15.5q23 0 38.5 15.5
t16.5 38.5t-15 39.5t-39 16.5z" />
    <glyph glyph-name="tilde" unicode="&#x2dc;" horiz-adv-x="365" 
d="M255 687q14 0 32.5 8t41.5 21v-70q-12 -7 -26 -12q-12 -5 -24 -8.5t-26 -3.5q-18 0 -36 6t-37 15q-16 8 -30 16.5t-36 8.5q-27 0 -44.5 -13l-32.5 -24v77q17 10 36.5 16.5t41.5 6.5q16 0 34.5 -6t40.5 -16q20 -10 36.5 -16t28.5 -6z" />
    <glyph glyph-name="hungarumlaut" unicode="&#x2dd;" horiz-adv-x="426" 
d="M218 797l-128 -175h-54l81 175h101zM385 797l-128 -175h-54l81 175h101z" />
    <glyph glyph-name="asterisk" unicode="*" horiz-adv-x="375" 
d="M337 641l-91 -55l91 -55l-33 -56l-89 54v-103h-64v103l-89 -54l-33 56l91 55l-91 55l33 55l89 -53v103h64v-103l89 53l33 -55v0z" />
    <glyph glyph-name="endash" unicode="&#x2013;" horiz-adv-x="463" 
d="M0 352h461v-76h-461v76v0z" />
    <glyph glyph-name="emdash" unicode="&#x2014;" horiz-adv-x="970" 
d="M0 351h964v-76h-964v76v0z" />
    <glyph glyph-name="trademark" unicode="&#x2122;" horiz-adv-x="833" 
d="M348 733v-47h-139v-398h-54v398h-140v47h140h54h139zM768 740l47 -452h-54l-30 295l-148 -302h-16l-149 301l-30 -294h-54l47 452h16l177 -362l177 362h17z" />
    <glyph glyph-name="asciitilde" unicode="~" horiz-adv-x="508" 
d="M492 284q-16 -13 -35 -24q-17 -9 -40.5 -16.5t-51.5 -7.5q-34 0 -64.5 13t-59 28t-55.5 27.5t-54 11.5q-28 -1 -49 -9t-36 -18q-18 -11 -31 -25v75q17 15 35 26q16 10 36.5 18t43.5 8q33 0 64 -12.5t60.5 -27.5l56.5 -27.5t53 -12.5t49 7.5t40 16.5q20 11 38 24v-75v0z
" />
    <glyph glyph-name="bracketleft" unicode="[" horiz-adv-x="270" 
d="M237 697h-70v-841h70v-76h-153v993h153v-76v0z" />
    <glyph glyph-name="bracketright" unicode="]" horiz-adv-x="277" 
d="M30 697v76h153v-993h-153v76h70v841h-70v0z" />
    <glyph glyph-name="multiply" unicode="&#xd7;" horiz-adv-x="443" 
d="M352 177l-131 131l-132 -131l-58 59l131 131l-131 132l58 58l132 -131l131 131l59 -58l-131 -132l131 -131z" />
    <glyph glyph-name="brokenbar" unicode="&#xa6;" horiz-adv-x="281" 
d="M99 789h83v-453h-83v453zM99 -239v454h83v-454h-83z" />
    <glyph glyph-name="braceleft" unicode="{" horiz-adv-x="329" 
d="M292 -224q-48 -2 -79.5 9.5t-50.5 34t-27 55.5t-8 73v188q0 19 -1.5 37.5t-10 33t-27.5 23.5t-53 9v74q34 0 53 9t27.5 23t10 32.5t1.5 38.5v187q0 40 8 73t27 56t50.5 34.5t79.5 9.5v-70q-23 1 -38.5 -7.5t-25 -23t-13.5 -33.5t-4 -39v-187q0 -56 -13 -86t-46 -54
q33 -25 46 -56.5t13 -83.5v-188q0 -20 4 -39t13.5 -33t25 -22.5t38.5 -8.5v-69z" />
    <glyph glyph-name="braceright" unicode="}" horiz-adv-x="328" 
d="M35 777q48 2 79.5 -9.5t50.5 -34t27 -55.5t8 -73v-188q0 -19 1.5 -37.5t10 -33t27 -23.5t53.5 -9v-74q-35 0 -53.5 -9t-27 -23t-10 -33t-1.5 -38v-187q0 -41 -8 -73.5t-27 -55.5t-50.5 -34.5t-79.5 -9.5v70q23 -1 38.5 7.5t25 23t13.5 33.5t4 39v187q0 56 13 86t46 54
q-33 25 -46 56.5t-13 83.5v188q0 20 -4 39t-13.5 33t-25 22.5t-38.5 8.5v69z" />
    <glyph glyph-name="currency" unicode="&#xa4;" horiz-adv-x="555" 
d="M21 488l59 62l72 -72q55 37 122 37q70 0 123 -37l72 72l60 -62l-72 -70q37 -59 37 -121q0 -65 -37 -122l72 -71l-60 -61l-72 72q-53 -37 -123 -37q-67 0 -122 37l-72 -72l-59 61l72 71q-37 55 -37 122q0 65 37 121zM140 297q0 -56 39 -95q40 -40 95 -40t95 40
q39 39 39 95q0 55 -39 94q-39 40 -95 40q-55 0 -95 -40q-39 -39 -39 -94z" />
    <glyph glyph-name="less" unicode="&#x3c;" horiz-adv-x="352" 
d="M323 514v-95l-183 -107l183 -106v-92l-305 184v31l305 185v0z" />
    <glyph glyph-name="greater" unicode="&#x3e;" horiz-adv-x="353" 
d="M332 365v-31l-305 -184v92l183 106l-183 107v95l305 -185v0zM334 106h-308v-80h308v80v0z" />
    <glyph glyph-name="guilsinglleft" unicode="&#x2039;" horiz-adv-x="296" 
d="M268 550l-155 -236l155 -237h-97l-143 225v26l143 222h97v0z" />
    <glyph glyph-name="guilsinglright" unicode="&#x203a;" horiz-adv-x="305" 
d="M28 550h97l143 -222v-26l-143 -225h-97l155 237l-155 236v0z" />
    <glyph glyph-name="guillemotleft" unicode="&#xab;" horiz-adv-x="489" 
d="M113 314l155 -237h-97l-143 225v26l143 222h97zM311 314l155 -237h-97l-143 225v26l143 222h97z" />
    <glyph glyph-name="guillemotright" unicode="&#xbb;" horiz-adv-x="487" 
d="M377 314l-155 237h97l143 -225v-26l-143 -222h-97zM179 314l-155 237h97l143 -225v-26l-143 -222h-97z" />
    <glyph glyph-name="asciicircum" unicode="^" horiz-adv-x="502" 
d="M249 654l-126 -192h-104l217 311h26l218 -311h-101l-130 192v0z" />
    <glyph glyph-name="uni00AD" unicode="&#xad;" horiz-adv-x="417" 
d="M389 354v-83h-362v83h362z" />
    <glyph glyph-name="logicalnot" unicode="&#xac;" horiz-adv-x="532" 
d="M486 488h1v-278h-83v202h-378v76h460v0z" />
    <glyph glyph-name="underscore" unicode="_" horiz-adv-x="509" 
d="M24 -24h461v-76h-461v76z" />
    <glyph glyph-name="question" unicode="?" horiz-adv-x="457" 
d="M186 116q27 0 46 -19t19 -46t-19 -46t-46 -19t-46 19t-19 46t19 46t46 19zM201 767q60 0 102.5 -18.5t70 -46.5t40.5 -61t13 -61q0 -32 -6.5 -57.5t-20 -48.5t-35 -44t-50.5 -43q-42 -32 -63 -81t-21 -124h-90q0 46 5.5 83t18.5 68t34 57.5t52 52.5q20 16 36 30.5
t27.5 30t18 33.5t6.5 43q0 16 -7.5 35t-24 34.5t-43 26.5t-64.5 11t-64.5 -6t-46 -16.5t-34.5 -23.5t-29 -27v106q40 25 85 36t90 11z" />
    <glyph glyph-name="divide" unicode="&#xf7;" horiz-adv-x="517" 
d="M255 207q25 0 42.5 -17.5t17.5 -42.5q0 -26 -17.5 -43.5t-42.5 -17.5q-26 0 -43.5 17.5t-17.5 43.5q0 25 17.5 42.5t43.5 17.5zM255 420q-26 0 -43.5 17.5t-17.5 42.5q0 26 17.5 43.5t43.5 17.5q25 0 42.5 -17.5t17.5 -43.5q0 -25 -17.5 -42.5t-42.5 -17.5zM482 355v-83
h-455v83h455z" />
    <glyph glyph-name="at" unicode="@" horiz-adv-x="963" 
d="M481 786q94 0 176.5 -29t144 -84.5t97 -136.5t35.5 -185q0 -38 -12.5 -82t-40.5 -81.5t-73 -62.5t-111 -26h-68v73q-13 -19 -32 -34.5t-41 -26.5t-46.5 -17t-49.5 -6q-49 0 -92 18.5t-75.5 51t-51 75.5t-18.5 92t18.5 92t51 75.5t75.5 51t92 18.5q25 0 50 -6.5t47.5 -18
t41 -26.5t30.5 -33v71h68v-384q40 0 71 14t52.5 39t32.5 59t11 74q0 85 -30 152.5t-82 114.5t-122 72.5t-149 25.5q-80 0 -149.5 -30t-121.5 -82t-82 -122t-30 -149q0 -80 30 -149.5t82 -122t121.5 -82.5t149.5 -30q60 0 115 17.5t101 49.5v-82q-48 -26 -102.5 -40.5
t-113.5 -14.5q-94 0 -176.5 35.5t-144 97t-97 144.5t-35.5 177t35.5 176.5t97 144t144 97t176.5 35.5zM460 150q36 0 67 13.5t53.5 37.5t35.5 56t13 68t-13 68t-35.5 56t-53.5 37.5t-67 13.5t-67 -13.5t-53.5 -37.5t-35.5 -56t-13 -68t13 -68t35.5 -56t53.5 -37.5t67 -13.5z
" />
    <glyph glyph-name="copyright" unicode="&#xa9;" horiz-adv-x="833" 
d="M415 786q83 0 155.5 -31.5t126.5 -85.5t85.5 -127t31.5 -155q0 -83 -31.5 -156t-85.5 -127t-126.5 -85.5t-155.5 -31.5t-155.5 31.5t-126.5 85.5t-85.5 127t-31.5 156q0 82 31.5 155t85.5 127t126.5 85.5t155.5 31.5zM415 49q70 0 131.5 26.5t107.5 72.5t72.5 107.5
t26.5 131.5t-26.5 131t-72.5 107t-107.5 72.5t-131.5 26.5t-131.5 -26.5t-107.5 -72.5t-72.5 -107t-26.5 -131t26.5 -131.5t72.5 -107.5t107.5 -72.5t131.5 -26.5zM187 387q0 39 16.5 78t47 70.5t72.5 51.5t93 20q33 0 60.5 -8t47.5 -17q23 -11 41 -25v-81q-15 20 -36 36
q-18 14 -46.5 25.5t-66.5 11.5q-35 0 -65 -13t-53 -35t-36 -51.5t-13 -63.5q0 -33 13 -62.5t36 -51.5t53 -35t65 -13q39 0 67.5 11t46.5 25q21 16 35 37v-81q-18 -14 -41 -25q-20 -9 -47 -16.5t-61 -7.5q-39 0 -79.5 15t-74 43.5t-54.5 69.5t-21 92z" />
    <glyph glyph-name="registered" unicode="&#xae;" horiz-adv-x="833" 
d="M582 473q0 -36 -13.5 -61t-31.5 -41.5t-37 -24.5t-30 -11l155 -168h-85l-175 205v22h67q20 0 35.5 7t26 18t15.5 25.5t5 28.5q0 15 -5.5 29t-16 25t-26 17.5t-34.5 5.5h-94v-383h-67v445h2l159 1q22 0 48.5 -7t49 -23t37.5 -43t15 -67zM417 786q83 0 155.5 -31.5
t126.5 -85.5t85.5 -127t31.5 -155q0 -83 -31.5 -156t-85.5 -127t-126.5 -85.5t-155.5 -31.5t-155.5 31.5t-126.5 85.5t-85.5 127t-31.5 156q0 82 31.5 155t85.5 127t126.5 85.5t155.5 31.5zM417 49q70 0 131.5 26.5t107.5 72.5t72.5 107.5t26.5 131.5t-26.5 131t-72.5 107
t-107.5 72.5t-131.5 26.5t-131.5 -26.5t-107.5 -72.5t-72.5 -107t-26.5 -131t26.5 -131.5t72.5 -107.5t107.5 -72.5t131.5 -26.5z" />
    <glyph glyph-name="Euro" unicode="&#x20ac;" horiz-adv-x="691" 
d="M510 667q-48 0 -91 -13t-80 -37t-65 -57t-46 -72h322l-21 -79h-324q-3 -20 -3 -42q0 -14 1.5 -27t3.5 -27h298l-21 -79h-250q19 -37 47.5 -67.5t64 -52.5t77.5 -34t87 -12q39 0 79 8.5t75 25.5v-85q-75 -29 -154 -29q-61 0 -118.5 18t-106 51t-86 78t-59.5 99h-107v79h85
q-2 14 -3 27.5t-1 27.5q0 11 0.5 21t1.5 20h-83v79h102q20 57 57.5 104.5t87 82t108.5 53.5t122 19q79 0 154 -29v-85q-35 16 -74.5 25t-79.5 9z" />
    <glyph glyph-name="section" unicode="&#xa7;" horiz-adv-x="553" 
d="M452 111q30 -28 46 -61.5t16 -79.5q0 -28 -14.5 -61.5t-45.5 -63t-80.5 -49t-118.5 -19.5q-48 0 -87.5 9t-68 19.5t-45 19.5l-16.5 9v102q10 -15 33.5 -29.5t53.5 -26t64 -19t66 -7.5q42 0 73.5 11.5t53 28.5t32.5 38t11 39q0 36 -16 60.5t-41 42.5t-56 31l-61 26
q-101 44 -152 91t-51 108q0 33 18.5 71t58.5 66q-38 29 -57.5 61t-19.5 70q0 27 13 58.5t40.5 58.5t70.5 45t102 18q45 0 90 -11t85 -34v-103l-28.5 26t-34.5 23t-46.5 16t-64.5 6t-64 -10.5t-43 -26t-24.5 -33.5t-7.5 -34q0 -24 15 -42.5t38 -34t49.5 -28t50.5 -22.5
q53 -23 95 -45.5t71 -49.5t44 -60t15 -78q0 -29 -15 -63t-47 -63zM136 330q0 -24 15 -43t38 -34.5t49.5 -27.5l50.5 -22q26 -11 48.5 -21.5t42.5 -21.5q23 17 34 38t11 41q0 36 -16 60t-41 42t-56 31l-61 26q-13 5 -25 10.5t-23 11.5q-35 -15 -51 -41t-16 -49z" />
    <glyph glyph-name="mu" unicode="&#xb5;" horiz-adv-x="667" 
d="M573 549v-549h-84v57q-30 -35 -71 -54.5t-86 -19.5t-85 13.5t-72 39.5v-263h-83v450v1v324v1h83v-326q0 -40 11.5 -70.5t32.5 -51.5t50 -31.5t63 -10.5t63 13t50 35t32.5 52t11.5 65v325h84z" />
    <glyph glyph-name="degree" unicode="&#xb0;" horiz-adv-x="422" 
d="M211 447q-35 0 -65 12.5t-52.5 34.5t-35.5 52t-13 64q0 33 13.5 62.5t36 51.5t52.5 35t64 13t63.5 -13t52 -35t36 -51.5t13.5 -62.5q0 -34 -13 -64t-35 -52t-52.5 -34.5t-64.5 -12.5zM209 515q41 -1 68 25.5t28 68.5q0 39 -27 66.5t-66 28.5q-19 1 -36 -6t-30 -20
t-20.5 -30.5t-7.5 -37.5q-1 -20 6 -37t19.5 -30t29 -20.5t36.5 -7.5z" />
    <glyph glyph-name="paragraph" unicode="&#xb6;" horiz-adv-x="586" 
d="M494 775v-923h-82v847h-117v-847h-86v560q-41 0 -74.5 15.5t-57.5 40.5t-37 57t-13 66q0 35 13 68t37.5 59t59.5 41.5t78 15.5h279z" />
    <glyph glyph-name="periodcentered" unicode="&#xb7;" horiz-adv-x="249" 
d="M125 378q26 0 45 -19t19 -46t-19 -46t-45 -19q-27 0 -46 19t-19 46t19 46t46 19z" />
    <glyph glyph-name="Lslash" unicode="&#x141;" horiz-adv-x="511" 
d="M220 77h268v-77h-357v0v247l-112 -74v87l112 73v400h89v-342l135 89v-87l-135 -88v-228v0z" />
    <glyph glyph-name="lslash" unicode="&#x142;" horiz-adv-x="370" 
d="M351 561v-87l-127 -83v-391h-84v336l-125 -82v87l125 82v350h84v-295l127 83v0z" />
    <glyph glyph-name="grave" unicode="`" horiz-adv-x="240" 
d="M154 621l-127 175h101l81 -175h-55v0z" />
    <glyph glyph-name="acute" unicode="&#xb4;" horiz-adv-x="249" 
d="M81 621h-54l80 175h102l-128 -175v0z" />
    <glyph glyph-name="_15" horiz-adv-x="500" 
 />
    <glyph glyph-name="dieresis" unicode="&#xa8;" horiz-adv-x="436" 
d="M98 738q26 1 43.5 -16.5t17.5 -42.5q0 -23 -17.5 -40.5t-42.5 -18.5q-24 0 -42.5 17.5t-18.5 41.5t17.5 41.5t42.5 17.5zM333 738q26 0 43 -17t17 -43q0 -24 -17.5 -41t-41.5 -18q-24 0 -43 18t-19 41q0 12 5 22.5t13.5 18.5t19.5 13.5t23 5.5z" />
    <glyph glyph-name="cedilla" unicode="&#xb8;" horiz-adv-x="240" 
d="M135 -46q37 -5 58 -28t21 -49q0 -38 -26.5 -61.5t-67.5 -25.5q-18 -1 -46.5 3.5t-48.5 13.5v57q4 -5 22 -11.5t39 -9.5t39.5 1.5t24.5 22.5q4 12 -2 22t-18 17t-27 11t-28 4l23 80h50l-13 -47v0z" />
    <glyph glyph-name="uni02C9" unicode="&#x2c9;" horiz-adv-x="333" 
d="M313 647h-292v68h292v-68v0z" />
    <glyph glyph-name="gravecomb" unicode="&#x300;" horiz-adv-x="240" 
d="M154 622l-127 175h101l81 -175h-55v0z" />
    <glyph glyph-name="acutecomb" unicode="&#x301;" horiz-adv-x="249" 
d="M81 621h-54l80 175h102l-128 -175v0z" />
    <glyph glyph-name="uni0302" unicode="&#x302;" horiz-adv-x="396" 
d="M99 621h-73l157 175h28l157 -175h-73l-98 94l-98 -94v0z" />
    <glyph glyph-name="tildecomb" unicode="&#x303;" horiz-adv-x="365" 
d="M255 687q14 0 32.5 8t41.5 21v-70q-12 -7 -26 -12q-12 -5 -24 -8.5t-26 -3.5q-18 0 -36 6t-37 15q-16 8 -30 16.5t-36 8.5q-27 0 -44.5 -13l-32.5 -24v77q17 10 36.5 16.5t41.5 6.5q16 0 34.5 -6t40.5 -16q20 -10 36.5 -16t28.5 -6z" />
    <glyph glyph-name="uni0304" unicode="&#x304;" horiz-adv-x="337" 
d="M313 645h-292v68h292v-68v0z" />
    <glyph glyph-name="uni0306" unicode="&#x306;" horiz-adv-x="382" 
d="M351 752q-5 -29 -19.5 -53t-36 -41.5t-48.5 -27.5t-57 -10q-31 0 -58 10t-49 27.5t-36.5 41.5t-19.5 53h74q8 -28 32 -46t55 -19q32 0 56.5 18t34.5 47h72z" />
    <glyph glyph-name="uni0307" unicode="&#x307;" horiz-adv-x="202" 
d="M98 738q26 1 43.5 -16.5t17.5 -42.5q0 -23 -17.5 -40.5t-42.5 -18.5q-24 0 -42.5 17.5t-18.5 41.5t17.5 41.5t42.5 17.5z" />
    <glyph glyph-name="uni0308" unicode="&#x308;" horiz-adv-x="432" 
d="M98 740q26 1 43.5 -16.5t17.5 -42.5q0 -23 -17.5 -40.5t-42.5 -18.5q-24 0 -42.5 17.5t-18.5 41.5t17.5 41.5t42.5 17.5zM333 740q26 0 43 -17t17 -43q0 -24 -17.5 -41t-41.5 -18q-24 0 -43 18t-19 41q0 12 5 22.5t13.5 18.5t19.5 13.5t23 5.5z" />
    <glyph glyph-name="uni030A" unicode="&#x30a;" horiz-adv-x="312" 
d="M152 592q-26 0 -48 9t-38 25t-25.5 37.5t-9.5 46.5q0 24 9 45.5t25.5 37.5t39 25.5t47.5 9.5q26 0 48.5 -9.5t39 -25.5t26 -37.5t9.5 -46.5t-10 -46.5t-26.5 -37t-39 -24.5t-47.5 -9zM154 765q-25 0 -40.5 -15t-15.5 -40q0 -24 15.5 -39.5t39.5 -15.5q23 0 38.5 15.5
t16.5 38.5t-15 39.5t-39 16.5z" />
    <glyph glyph-name="uni030B" unicode="&#x30b;" horiz-adv-x="426" 
d="M218 796l-128 -175h-54l81 175h101zM385 796l-128 -175h-54l81 175h101z" />
    <glyph glyph-name="uni030C" unicode="&#x30c;" horiz-adv-x="400" 
d="M100 797l98 -93l98 93h73l-157 -175h-28l-157 175h73v0z" />
    <glyph glyph-name="uni0328" unicode="&#x328;" horiz-adv-x="232" 
d="M81 -104q0 -26 19 -35t42 -9q26 0 61 9v-60q-52 -12 -92 -8q-17 1 -33.5 6t-29.5 15.5t-20.5 27t-7.5 40.5t13 53t47 65h81q-22 -13 -40 -30q-15 -14 -27.5 -33t-12.5 -41z" />
    <glyph glyph-name="uni0327" unicode="&#x327;" horiz-adv-x="240" 
d="M135 -46q37 -5 58 -28t21 -49q0 -38 -26.5 -61.5t-67.5 -25.5q-18 -1 -46.5 3.5t-48.5 13.5v57q4 -5 22 -11.5t39 -9.5t39.5 1.5t24.5 22.5q4 12 -2 22t-18 17t-27 11t-28 4l23 80h50l-13 -47v0z" />
    <glyph glyph-name="uni0326" unicode="&#x326;" horiz-adv-x="222" 
d="M79 -45h96l-69 -222h-63z" />
    <glyph glyph-name="uni0312" unicode="&#x312;" horiz-adv-x="229" 
d="M46 550l69 222h63l-37 -222h-95z" />
    <glyph glyph-name="uni2116" unicode="&#x2116;" horiz-adv-x="1074" 
d="M740 351h279v-76h-279v76zM881 421q-35 0 -65.5 12.5t-53 34.5t-35 52t-12.5 64q0 33 13 62.5t35.5 51.5t53 35t64.5 13q33 0 63 -13t52.5 -35t35.5 -51.5t13 -62.5q0 -34 -13 -64t-35 -52t-52 -34.5t-64 -12.5zM787 584q0 -20 7 -37t19.5 -30t29 -20.5t36.5 -7.5
q40 -1 67 25.5t28 68.5q0 19 -7 36.5t-19.5 30t-30 20.5t-36.5 8q-19 1 -36 -6t-29.5 -20t-20 -30.5t-8.5 -37.5zM579 734h88v-748h-28l-463 549v-535h-88v746h26l465 -551v539z" />
    <glyph glyph-name="uni0315" unicode="&#x315;" horiz-adv-x="216" 
d="M82 772h96l-69 -222h-63z" />
    <glyph glyph-name="zero" unicode="0" horiz-adv-x="585" 
d="M294 746q66 0 114 -30t79.5 -81.5t46.5 -120.5t15 -148t-15.5 -148t-47.5 -120.5t-80 -81.5t-112 -30t-112 30t-80 81.5t-48 120.5t-16 148t15 148t46.5 120.5t80 81.5t114.5 30zM294 64q43 0 74.5 24t52 65t30 96t9.5 117t-9.5 117t-30 96.5t-52 65.5t-74.5 24
q-44 0 -75.5 -24t-51.5 -65.5t-30 -96.5t-10 -117t10 -117t30.5 -96t52 -65t74.5 -24z" />
    <glyph glyph-name="one" unicode="1" horiz-adv-x="359" 
d="M20 639l213 107h26v-746h-88v621l-151 -71v89v0z" />
    <glyph glyph-name="two" unicode="2" horiz-adv-x="527" 
d="M497 76v-76h-467v25l31 39.5l45.5 58l54 69l55.5 71.5l50 65.5l39 52.5q32 43 54 82t22 87q0 21 -9 42t-26.5 38.5t-43.5 28t-59 10.5q-28 0 -54 -9.5t-48 -22.5t-38.5 -27l-25.5 -22v97q10 7 28 18t42 20.5t52 16.5t58 7q47 0 86 -15.5t67.5 -42.5t44 -63t15.5 -76
q0 -31 -7.5 -58.5t-19.5 -52t-27 -47.5l-31 -46l-22.5 -31.5l-29.5 -40l-33.5 -44.5l-34.5 -45l-83 -109h315z" />
    <glyph glyph-name="six" unicode="6" horiz-adv-x="585" 
d="M293 475q52 0 98 -19t80 -52t54 -77.5t20 -95.5t-20 -95.5t-54 -77.5t-80 -52.5t-98 -19.5q-53 0 -99 19.5t-80 52.5t-54 77.5t-20 95.5q0 74 40 132l254 370h105l-182 -263q11 2 17 3.5t19 1.5zM293 66q34 0 63.5 13t52 36t35.5 53.5t13 65.5q0 34 -13 64.5t-35.5 53.5
t-52 36t-63.5 13t-64 -13t-52 -36t-35 -53.5t-13 -64.5q0 -35 13 -65.5t35 -53.5t52 -36t64 -13z" />
    <glyph glyph-name="nine" unicode="9" horiz-adv-x="585" 
d="M293 260q-53 0 -99 19t-80 52t-54 77.5t-20 95.5t20 95.5t54 77.5t80 52t99 19q52 0 98 -19t80 -52t54 -77.5t20 -95.5q0 -74 -39 -133l-255 -370h-104l182 263l-18 -3t-18 -1zM293 669q-34 0 -64 -13.5t-52 -36t-35 -53.5t-13 -65q0 -35 13 -65.5t35 -53.5t52 -36
t64 -13t63.5 13t52 36t35.5 53.5t13 65.5q0 34 -13 65t-35.5 53.5t-52 36t-63.5 13.5z" />
    <glyph glyph-name="seven" unicode="7" horiz-adv-x="496" 
d="M5 732l486 1v-26l-371 -707h-100l344 655h-359v77v0z" />
    <glyph glyph-name="eight" unicode="8" horiz-adv-x="585" 
d="M402 412q35 -13 62 -34t45 -48t27 -57.5t9 -61.5q0 -47 -20 -87.5t-54 -71.5t-80 -48.5t-98 -17.5q-53 0 -99 17.5t-80 48.5t-54 71.5t-20 87.5q0 31 11 62.5t30 58.5t45.5 48t56.5 32q-42 23 -70.5 60.5t-28.5 84.5q0 39 16.5 73.5t45 60t66.5 40.5t81 15t81 -15
t66.5 -40.5t45 -60t16.5 -73.5q0 -47 -29 -84t-71 -61zM293 669q-22 0 -43.5 -8t-38.5 -22.5t-27.5 -34.5t-10.5 -45q0 -26 10 -47t27 -36t38.5 -23t44.5 -8q25 0 46.5 8.5t38 23.5t26 36t9.5 46t-9.5 45t-26 34.5t-38 22.5t-46.5 8zM293 64q34 0 63.5 11.5t52 31.5t35.5 47
t13 59t-13 60t-35.5 49t-52 33t-63.5 12t-64 -12t-52 -33t-35 -49t-13 -60t13 -59t35 -47t52 -31.5t64 -11.5z" />
    <glyph glyph-name="four" unicode="4" horiz-adv-x="570" 
d="M462 250h88v-77h-88v-170h-89v170h-363v25l426 549h26v-497zM373 250v293l-215 -293h215z" />
    <glyph glyph-name="five" unicode="5" horiz-adv-x="529" 
d="M237 478q61 0 108 -19t79 -52t48.5 -77.5t16.5 -95.5t-20 -95.5t-54 -77.5t-80 -52.5t-98 -19.5q-65 0 -115 10.5t-82 29.5v107q15 -17 36.5 -30t47.5 -21t55 -12t58 -4q34 0 63.5 13t52 36t35.5 53.5t13 65.5q0 34 -11 64t-32 52t-51.5 34.5t-69.5 12.5h-155v333h354
v-78h-265v-177h66v0z" />
    <glyph glyph-name="three" unicode="3" horiz-adv-x="509" 
d="M258 463q58 0 99.5 -20.5t68.5 -54t40 -76t13 -85.5q0 -51 -20 -94.5t-54 -75.5t-80 -50t-98 -18q-65 0 -115 10.5t-82 29.5v107q15 -17 36.5 -30t47.5 -21t55 -12t58 -4q34 0 63.5 12t52 33.5t35.5 51t13 64.5q0 25 -6.5 52.5t-25 50.5t-53 37.5t-91.5 14.5h-97v28
l182 242h-249v78h388v-26l-181 -244v0z" />
    <glyph glyph-name="uni2070" unicode="&#x2070;" horiz-adv-x="319" 
d="M161 739q33 0 57 -15t40 -40.5t23.5 -60t7.5 -73.5t-8 -74t-23.5 -60.5t-39.5 -40.5t-57 -15q-32 0 -56 15t-39.5 40.5t-23.5 60.5t-8 74t7.5 73.5t23 60t39.5 40.5t57 15zM161 399q22 0 37.5 12t26 32.5t15.5 47.5t5 58t-5 58.5t-15 48.5t-26 33t-38 12q-21 0 -37 -12
t-26 -33t-15 -48.5t-5 -58.5t5 -58t15 -47.5t26 -32.5t37 -12z" />
    <glyph glyph-name="uni2074" unicode="&#x2074;" horiz-adv-x="307" 
d="M239 491h44v-38h-44v-85h-45v85h-181v13l213 273h13v-248zM194 491v147l-107 -147h107z" />
    <glyph glyph-name="uni2075" unicode="&#x2075;" horiz-adv-x="285" 
d="M132 605q30 0 53.5 -9.5t39.5 -26t24.5 -38.5t8.5 -47q0 -26 -10 -48t-27 -38.5t-40 -26t-49 -9.5q-64 0 -98 20v53q15 -17 42 -25.5t56 -8.5q35 0 58.5 24.5t23.5 59.5t-21 58.5t-61 23.5h-77v166h177v-39h-133v-89h33v0z" />
    <glyph glyph-name="uni2076" unicode="&#x2076;" horiz-adv-x="311" 
d="M154 604q26 0 49 -9.5t40 -26t27 -38.5t10 -47q0 -26 -10 -48t-27 -38.5t-40 -26t-49 -9.5t-49 9.5t-40 26t-27 38.5t-10 48q0 38 19 66l127 184h53l-91 -131q5 2 8 2h10zM154 400q34 0 57.5 24.5t23.5 59.5t-23.5 59.5t-57.5 24.5q-35 0 -58.5 -24.5t-23.5 -59.5
t23.5 -59.5t58.5 -24.5z" />
    <glyph glyph-name="uni2077" unicode="&#x2077;" horiz-adv-x="293" 
d="M27 732l243 1v-13l-185 -353h-50l172 327h-180v38v0z" />
    <glyph glyph-name="uni2078" unicode="&#x2078;" horiz-adv-x="318" 
d="M212 576q35 -13 53.5 -41t18.5 -60q0 -23 -10 -43t-27 -35t-40 -24t-49 -9t-49 9t-40 24t-27 35t-10 43q0 32 20 61t51 40q-21 11 -35 30t-14 42q0 19 8 36.5t22 30.5t33 20.5t41 7.5q21 0 40 -7.5t33.5 -20.5t22.5 -30.5t8 -36.5q0 -23 -14.5 -41.5t-35.5 -30.5z
M158 704q-23 0 -41.5 -15t-18.5 -40q0 -26 18.5 -41.5t41.5 -15.5q25 0 42.5 16t17.5 41t-17.5 40t-42.5 15zM158 402q34 0 58 21.5t24 53.5t-24 54.5t-58 22.5t-58 -22.5t-24 -54.5t24 -53.5t58 -21.5z" />
    <glyph glyph-name="uni2079" unicode="&#x2079;" horiz-adv-x="309" 
d="M153 496q-26 0 -49 9.5t-40 26t-27 39t-10 47.5t10 47.5t27 39t40 26t49 9.5t49 -9.5t40 -26t27 -39t10 -47.5q0 -37 -20 -66l-127 -184h-52l91 131q-6 -2 -9 -2.5t-9 -0.5zM153 701q-34 0 -58 -24.5t-24 -59.5t24 -59.5t58 -24.5t58 24.5t24 59.5t-24 59.5t-58 24.5z
" />
    <glyph glyph-name="zero.denom" horiz-adv-x="326" 
d="M161 371q33 0 57 -15t40 -40.5t23.5 -60t7.5 -73.5t-8 -74t-23.5 -60.5t-39.5 -40.5t-57 -15q-32 0 -56 15t-39.5 40.5t-23.5 60.5t-8 74t7.5 73.5t23 60t39.5 40.5t57 15zM161 31q22 0 37.5 12t26 32.5t15.5 47.5t5 58t-5 58.5t-15 48.5t-26 33t-38 12q-21 0 -37 -12
t-26 -33t-15 -48.5t-5 -58.5t5 -58t15 -47.5t26 -32.5t37 -12z" />
    <glyph glyph-name="one.denom" horiz-adv-x="202" 
d="M28 319l106 53h13v-372h-44v310l-75 -35v44v0z" />
    <glyph glyph-name="two.denom" horiz-adv-x="289" 
d="M258 38v-38h-233v13l26.5 33l39.5 50l40.5 52.5l31.5 41.5q15 22 26 41.5t11 42.5q0 21 -17.5 40.5t-50.5 19.5q-14 0 -27 -5t-24 -11.5t-19.5 -13.5t-12.5 -11v49q5 4 14 9t21 10t25.5 8.5t28.5 3.5q48 0 77.5 -29t29.5 -70q0 -31 -13.5 -54.5t-29.5 -46.5
q-9 -14 -25.5 -36.5l-33.5 -44.5q-19 -26 -42 -54h157z" />
    <glyph glyph-name="three.denom" horiz-adv-x="287" 
d="M145 230q29 0 49.5 -10.5t34 -27t20 -37.5t6.5 -43q0 -25 -10 -46.5t-27 -37.5t-40 -25t-49 -9q-64 0 -98 20v53q15 -17 42 -25.5t56 -8.5q34 0 58 23t24 58q0 13 -3 26.5t-12.5 24.5t-27 18.5t-45.5 7.5h-48v14l91 121h-125v39h194v-13l-90 -122v0z" />
    <glyph glyph-name="four.denom" horiz-adv-x="302" 
d="M283 123v-38h-44v-85h-45v85h-181v13l213 273h13v-248h44zM194 270l-107 -147h107v147z" />
    <glyph glyph-name="five.denom" horiz-adv-x="285" 
d="M132 235q30 0 53.5 -9.5t39.5 -26t24.5 -38.5t8.5 -47q0 -26 -10 -48t-27 -38.5t-40 -26t-49 -9.5q-64 0 -98 20v53q15 -17 42 -25.5t56 -8.5q35 0 58.5 24.5t23.5 59.5t-21 58.5t-61 23.5h-77v166h177v-39h-133v-89h33v0z" />
    <glyph glyph-name="six.denom" horiz-adv-x="314" 
d="M154 235q26 0 49 -9.5t40 -26t27 -38.5t10 -47q0 -26 -10 -48t-27 -38.5t-40 -26t-49 -9.5t-49 9.5t-40 26t-27 38.5t-10 48q0 38 19 66l127 184h53l-91 -131q5 2 8 2h10zM154 31q34 0 57.5 24.5t23.5 59.5t-23.5 59.5t-57.5 24.5q-35 0 -58.5 -24.5t-23.5 -59.5
t23.5 -59.5t58.5 -24.5z" />
    <glyph glyph-name="seven.denom" horiz-adv-x="286" 
d="M270 366v-13l-185 -353h-50l172 327h-180v38z" />
    <glyph glyph-name="eight.denom" horiz-adv-x="317" 
d="M212 204q35 -13 53.5 -41t18.5 -60q0 -23 -10 -43t-27 -35t-40 -24t-49 -9t-49 9t-40 24t-27 35t-10 43q0 32 20 61t51 40q-21 11 -35 30t-14 42q0 19 8 36.5t22 30.5t33 20.5t41 7.5q21 0 40 -7.5t33.5 -20.5t22.5 -30.5t8 -36.5q0 -23 -14.5 -41.5t-35.5 -30.5z
M158 332q-23 0 -41.5 -15t-18.5 -40q0 -26 18.5 -41.5t41.5 -15.5q25 0 42.5 16t17.5 41t-17.5 40t-42.5 15zM158 30q34 0 58 21.5t24 53.5t-24 54.5t-58 22.5t-58 -22.5t-24 -54.5t24 -53.5t58 -21.5z" />
    <glyph glyph-name="nine.denom" horiz-adv-x="307" 
d="M153 128q-26 0 -49 9.5t-40 26t-27 39t-10 47.5t10 47.5t27 39t40 26t49 9.5t49 -9.5t40 -26t27 -39t10 -47.5q0 -37 -20 -66l-127 -184h-52l91 131q-6 -2 -9 -2.5t-9 -0.5zM153 333q-34 0 -58 -24.5t-24 -59.5t24 -59.5t58 -24.5t58 24.5t24 59.5t-24 59.5t-58 24.5z
" />
    <glyph glyph-name="twosuperior" unicode="&#xb2;" horiz-adv-x="281" 
d="M257 405v-38h-233v13l26 33l39 50l41 52.5l32 41.5q15 22 26 41t11 43q0 21 -17.5 40.5t-50.5 19.5q-14 0 -27 -5t-24 -11.5t-19.5 -13.5t-12.5 -11v49q5 4 14 9t21 10t25.5 8.5t28.5 3.5q48 0 77.5 -29t29.5 -70q0 -31 -13.5 -54.5t-29.5 -46.5q-9 -14 -26 -36.5
l-34 -44.5l-41 -54h157z" />
    <glyph glyph-name="threesuperior" unicode="&#xb3;" horiz-adv-x="286" 
d="M145 598q29 0 49.5 -10.5t34 -27t20 -37.5t6.5 -43q0 -25 -10 -46.5t-27 -37.5t-40 -25t-49 -9q-64 0 -98 20v53q15 -17 42 -25.5t56 -8.5q34 0 58 23t24 58q0 13 -3 26.5t-12.5 24.5t-27 18.5t-45.5 7.5h-48v14l91 121h-125v39h194v-13l-90 -122v0z" />
    <glyph glyph-name="ordmasculine" unicode="&#xba;" horiz-adv-x="387" 
d="M192 404q-33 0 -61.5 13.5t-50 37t-34 54.5t-12.5 67t12.5 67t34 54.5t50 37t61.5 13.5t61.5 -13.5t50 -37t34 -54.5t12.5 -67t-12.5 -67t-34 -54.5t-50 -37t-61.5 -13.5zM192 703q-24 0 -45 -10t-36 -27.5t-23.5 -40.5t-8.5 -49t8.5 -49.5t23.5 -40.5t36 -27t45 -10
t44.5 10t35.5 27t23.5 40.5t8.5 49.5t-8.5 49t-23.5 40.5t-35.5 27.5t-44.5 10zM56 357h272v-44h-272v44z" />
    <glyph glyph-name="fraction" unicode="&#x2044;" horiz-adv-x="501" 
d="M420 735h51l-400 -734h-52l401 734v0z" />
    <glyph glyph-name="uni2080" unicode="&#x2080;" horiz-adv-x="324" 
d="M161 371q33 0 57 -15t40 -40.5t23.5 -60t7.5 -73.5t-8 -74t-23.5 -60.5t-39.5 -40.5t-57 -15q-32 0 -56 15t-39.5 40.5t-23.5 60.5t-8 74t7.5 73.5t23 60t39.5 40.5t57 15zM161 31q22 0 37.5 12t26 32.5t15.5 47.5t5 58t-5 58.5t-15 48.5t-26 33t-38 12q-21 0 -37 -12
t-26 -33t-15 -48.5t-5 -58.5t5 -58t15 -47.5t26 -32.5t37 -12z" />
    <glyph glyph-name="uni2081" unicode="&#x2081;" horiz-adv-x="202" 
d="M28 319l106 53h13v-372h-44v310l-75 -35v44z" />
    <glyph glyph-name="uni2082" unicode="&#x2082;" horiz-adv-x="294" 
d="M258 38v-38h-233v13l26.5 33l39.5 50l40.5 52.5l31.5 41.5q15 22 26 41.5t11 42.5q0 21 -17.5 40.5t-50.5 19.5q-14 0 -27 -5t-24 -11.5t-19.5 -13.5t-12.5 -11v49q5 4 14 9t21 10t25.5 8.5t28.5 3.5q48 0 77.5 -29t29.5 -70q0 -31 -13.5 -54.5t-29.5 -46.5
q-9 -14 -25.5 -36.5l-33.5 -44.5q-19 -26 -42 -54h157z" />
    <glyph glyph-name="uni2083" unicode="&#x2083;" horiz-adv-x="283" 
d="M145 230q29 0 49.5 -10.5t34 -27t20 -37.5t6.5 -43q0 -25 -10 -46.5t-27 -37.5t-40 -25t-49 -9q-64 0 -98 20v53q15 -17 42 -25.5t56 -8.5q34 0 58 23t24 58q0 13 -3 26.5t-12.5 24.5t-27 18.5t-45.5 7.5h-48v14l91 121h-125v39h194v-13l-90 -122v0z" />
    <glyph glyph-name="uni2084" unicode="&#x2084;" horiz-adv-x="309" 
d="M283 123v-38h-44v-85h-45v85h-181v13l213 273h13v-248h44zM194 270l-107 -147h107v147z" />
    <glyph glyph-name="uni2085" unicode="&#x2085;" horiz-adv-x="291" 
d="M132 235q30 0 53.5 -9.5t39.5 -26t24.5 -38.5t8.5 -47q0 -26 -10 -48t-27 -38.5t-40 -26t-49 -9.5q-64 0 -98 20v53q15 -17 42 -25.5t56 -8.5q35 0 58.5 24.5t23.5 59.5t-21 58.5t-61 23.5h-77v166h177v-39h-133v-89h33v0z" />
    <glyph glyph-name="uni2086" unicode="&#x2086;" horiz-adv-x="313" 
d="M154 235q26 0 49 -9.5t40 -26t27 -38.5t10 -47q0 -26 -10 -48t-27 -38.5t-40 -26t-49 -9.5t-49 9.5t-40 26t-27 38.5t-10 48q0 38 19 66l127 184h53l-91 -131q5 2 8 2h10zM154 31q34 0 57.5 24.5t23.5 59.5t-23.5 59.5t-57.5 24.5q-35 0 -58.5 -24.5t-23.5 -59.5
t23.5 -59.5t58.5 -24.5z" />
    <glyph glyph-name="uni2087" unicode="&#x2087;" horiz-adv-x="304" 
d="M270 366v-13l-185 -353h-50l172 327h-180v38z" />
    <glyph glyph-name="uni2088" unicode="&#x2088;" horiz-adv-x="319" 
d="M212 204q35 -13 53.5 -41t18.5 -60q0 -23 -10 -43t-27 -35t-40 -24t-49 -9t-49 9t-40 24t-27 35t-10 43q0 32 20 61t51 40q-21 11 -35 30t-14 42q0 19 8 36.5t22 30.5t33 20.5t41 7.5q21 0 40 -7.5t33.5 -20.5t22.5 -30.5t8 -36.5q0 -23 -14.5 -41.5t-35.5 -30.5z
M158 332q-23 0 -41.5 -15t-18.5 -40q0 -26 18.5 -41.5t41.5 -15.5q25 0 42.5 16t17.5 41t-17.5 40t-42.5 15zM158 30q34 0 58 21.5t24 53.5t-24 54.5t-58 22.5t-58 -22.5t-24 -54.5t24 -53.5t58 -21.5z" />
    <glyph glyph-name="uni2089" unicode="&#x2089;" horiz-adv-x="307" 
d="M153 128q-26 0 -49 9.5t-40 26t-27 39t-10 47.5t10 47.5t27 39t40 26t49 9.5t49 -9.5t40 -26t27 -39t10 -47.5q0 -37 -20 -66l-127 -184h-52l91 131q-6 -2 -9 -2.5t-9 -0.5zM153 333q-34 0 -58 -24.5t-24 -59.5t24 -59.5t58 -24.5t58 24.5t24 59.5t-24 59.5t-58 24.5z
" />
    <glyph glyph-name="zero.num" horiz-adv-x="319" 
d="M161 739q33 0 57 -15t40 -40.5t23.5 -60t7.5 -73.5t-8 -74t-23.5 -60.5t-39.5 -40.5t-57 -15q-32 0 -56 15t-39.5 40.5t-23.5 60.5t-8 74t7.5 73.5t23 60t39.5 40.5t57 15zM161 399q22 0 37.5 12t26 32.5t15.5 47.5t5 58t-5 58.5t-15 48.5t-26 33t-38 12q-21 0 -37 -12
t-26 -33t-15 -48.5t-5 -58.5t5 -58t15 -47.5t26 -32.5t37 -12z" />
    <glyph glyph-name="one.num" horiz-adv-x="193" 
d="M28 686l106 53h13v-372h-44v310l-75 -35v44z" />
    <glyph glyph-name="two.num" horiz-adv-x="279" 
d="M257 405v-38h-233v13l26 33l39 50l41 52.5l32 41.5q15 22 26 41t11 43q0 21 -17.5 40.5t-50.5 19.5q-14 0 -27 -5t-24 -11.5t-19.5 -13.5t-12.5 -11v49q5 4 14 9t21 10t25.5 8.5t28.5 3.5q48 0 77.5 -29t29.5 -70q0 -31 -13.5 -54.5t-29.5 -46.5q-9 -14 -26 -36.5
l-34 -44.5l-41 -54h157z" />
    <glyph glyph-name="three.num" horiz-adv-x="282" 
d="M145 598q29 0 49.5 -10.5t34 -27t20 -37.5t6.5 -43q0 -25 -10 -46.5t-27 -37.5t-40 -25t-49 -9q-64 0 -98 20v53q15 -17 42 -25.5t56 -8.5q34 0 58 23t24 58q0 13 -3 26.5t-12.5 24.5t-27 18.5t-45.5 7.5h-48v14l91 121h-125v39h194v-13l-90 -122v0z" />
    <glyph glyph-name="four.num" horiz-adv-x="307" 
d="M239 491h44v-38h-44v-85h-45v85h-181v13l213 273h13v-248zM194 491v147l-107 -147h107z" />
    <glyph glyph-name="five.num" horiz-adv-x="285" 
d="M132 605q30 0 53.5 -9.5t39.5 -26t24.5 -38.5t8.5 -47q0 -26 -10 -48t-27 -38.5t-40 -26t-49 -9.5q-64 0 -98 20v53q15 -17 42 -25.5t56 -8.5q35 0 58.5 24.5t23.5 59.5t-21 58.5t-61 23.5h-77v166h177v-39h-133v-89h33v0z" />
    <glyph glyph-name="six.num" horiz-adv-x="311" 
d="M154 604q26 0 49 -9.5t40 -26t27 -38.5t10 -47q0 -26 -10 -48t-27 -38.5t-40 -26t-49 -9.5t-49 9.5t-40 26t-27 38.5t-10 48q0 38 19 66l127 184h53l-91 -131q5 2 8 2h10zM154 400q34 0 57.5 24.5t23.5 59.5t-23.5 59.5t-57.5 24.5q-35 0 -58.5 -24.5t-23.5 -59.5
t23.5 -59.5t58.5 -24.5z" />
    <glyph glyph-name="seven.num" horiz-adv-x="293" 
d="M27 732l243 1v-13l-185 -353h-50l172 327h-180v38v0z" />
    <glyph glyph-name="eight.num" horiz-adv-x="318" 
d="M212 576q35 -13 53.5 -41t18.5 -60q0 -23 -10 -43t-27 -35t-40 -24t-49 -9t-49 9t-40 24t-27 35t-10 43q0 32 20 61t51 40q-21 11 -35 30t-14 42q0 19 8 36.5t22 30.5t33 20.5t41 7.5q21 0 40 -7.5t33.5 -20.5t22.5 -30.5t8 -36.5q0 -23 -14.5 -41.5t-35.5 -30.5z
M158 704q-23 0 -41.5 -15t-18.5 -40q0 -26 18.5 -41.5t41.5 -15.5q25 0 42.5 16t17.5 41t-17.5 40t-42.5 15zM158 402q34 0 58 21.5t24 53.5t-24 54.5t-58 22.5t-58 -22.5t-24 -54.5t24 -53.5t58 -21.5z" />
    <glyph glyph-name="nine.num" horiz-adv-x="309" 
d="M153 496q-26 0 -49 9.5t-40 26t-27 39t-10 47.5t10 47.5t27 39t40 26t49 9.5t49 -9.5t40 -26t27 -39t10 -47.5q0 -37 -20 -66l-127 -184h-52l91 131q-6 -2 -9 -2.5t-9 -0.5zM153 701q-34 0 -58 -24.5t-24 -59.5t24 -59.5t58 -24.5t58 24.5t24 59.5t-24 59.5t-58 24.5z
" />
    <glyph glyph-name="fraction.001" horiz-adv-x="491" 
d="M471 735l-400 -734h-52l401 734h51z" />
    <glyph glyph-name="onesuperior" unicode="&#xb9;" horiz-adv-x="188" 
d="M28 686l106 53h13v-372h-44v310l-75 -35v44v0z" />
    <glyph glyph-name="questiondown" unicode="&#xbf;" horiz-adv-x="457" 
d="M264 428q-27 0 -46 19t-19 46t19 46t46 19t46 -19t19 -46t-19 -46t-46 -19zM249 -223q-60 0 -102.5 18.5t-70 46.5t-40.5 60.5t-13 61.5q0 31 6.5 57t20 49t35 44t50.5 43q42 32 63 81t21 124h90q0 -46 -6 -83t-18.5 -68t-33.5 -58t-52 -52l-36 -31t-27.5 -29.5
t-18 -33.5t-6.5 -43q0 -17 7.5 -35.5t24 -34t43 -26.5t64.5 -11q37 0 64 6t46.5 16.5t34.5 23.5t29 27v-106q-40 -25 -85 -36t-90 -11z" />
    <glyph glyph-name="onequarter" unicode="&#xbc;" horiz-adv-x="640" 
d="M468 735l-401 -734h52l400 734h-51zM28 686l106 53h13v-372h-44v310l-75 -35v44zM551 123v248h-13l-213 -273v-13h181v-85h45v85h44v38h-44zM506 123h-107l107 147v-147z" />
    <glyph glyph-name="onehalf" unicode="&#xbd;" horiz-adv-x="653" 
d="M468 735l-401 -734h52l400 734h-51zM28 686l106 53h13v-372h-44v310l-75 -35v44zM458 38q23 28 42 54l33.5 44.5t25.5 36.5q16 23 29.5 46.5t13.5 54.5q0 41 -29.5 70t-77.5 29q-15 0 -28.5 -3.5t-25.5 -8.5t-21 -10t-14 -9v-49q4 4 12.5 11t19.5 13.5t24 11.5t27 5
q33 0 50.5 -19.5t17.5 -40.5q0 -23 -11 -42.5t-26 -41.5l-31.5 -41.5l-40.5 -52.5l-39.5 -50l-26.5 -33v-13h233v38h-157z" />
    <glyph glyph-name="threequarters" unicode="&#xbe;" horiz-adv-x="659" 
d="M569 735l-400 -734h-52l401 734h51zM615 123v-38h-44v-85h-45v85h-181v13l213 273h13v-248h44zM526 270l-107 -147h107v147zM145 598q29 0 49.5 -10.5t34 -27t20 -37.5t6.5 -43q0 -25 -10 -46.5t-27 -37.5t-40 -25t-49 -9q-64 0 -98 20v53q15 -17 42 -25.5t56 -8.5
q34 0 58 23t24 58q0 13 -3 26.5t-12.5 24.5t-27 18.5t-45.5 7.5h-48v14l91 121h-125v39h194v-13z" />
    <glyph glyph-name="ordfeminine" unicode="&#xaa;" horiz-adv-x="403" 
d="M192 406q-33 0 -61.5 13.5t-49.5 36.5t-33.5 54.5t-12.5 66.5t12.5 66t33.5 54.5t49.5 37t61.5 13.5t64.5 -17.5t47.5 -43.5v52h45v-324h-45v52q-18 -27 -48.5 -44t-63.5 -17zM192 703q-24 0 -44.5 -10t-35.5 -27t-23.5 -40t-8.5 -49t8.5 -49t23.5 -40t35.5 -27t44.5 -10
t44.5 10t35 27t23 40t8.5 49t-8.5 49t-23 40t-35 27t-44.5 10zM349 359v-44h-273v44h273z" />
    <glyph glyph-name="onethird" unicode="&#x2153;" horiz-adv-x="694" 
d="M28 686l106 53h13v-372h-44v310l-75 -35v44zM533 230l90 122v13h-194v-39h125l-91 -121v-14h48q28 0 45.5 -7.5t27 -18.5t12.5 -24.5t3 -26.5q0 -35 -24 -58t-58 -23q-29 0 -56 8.5t-42 25.5v-53q34 -20 98 -20q26 0 49 9t40 25t27 37.5t10 46.5q0 22 -6.5 43t-20 37.5
t-34 27t-49.5 10.5zM471 735l-401 -734h52l400 734h-51z" />
    <glyph glyph-name="oneeighth" unicode="&#x215b;" horiz-adv-x="684" 
d="M28 686l106 53h13v-372h-44v310l-75 -35v44zM569 204q21 12 35.5 30.5t14.5 41.5q0 19 -8 36.5t-22.5 30.5t-33.5 20.5t-40 7.5q-22 0 -41 -7.5t-33 -20.5t-22 -30.5t-8 -36.5q0 -23 14 -42t35 -30q-31 -11 -51 -40t-20 -61q0 -23 10 -43t27 -35t40 -24t49 -9t49 9t40 24
t27 35t10 43q0 32 -18.5 60t-53.5 41zM515 332q25 0 42.5 -15t17.5 -40t-17.5 -41t-42.5 -16q-23 0 -41.5 15.5t-18.5 41.5q0 25 18.5 40t41.5 15zM515 30q-34 0 -58 21.5t-24 53.5t24 54.5t58 22.5t58 -22.5t24 -54.5t-24 -53.5t-58 -21.5zM469 735l-401 -734h52l400 734
h-51z" />
    <glyph glyph-name="twothirds" unicode="&#x2154;" horiz-adv-x="718" 
d="M568 230q29 0 49.5 -10.5t34 -27t20 -37.5t6.5 -43q0 -25 -10 -46.5t-27 -37.5t-40 -25t-49 -9q-64 0 -98 20v53q15 -17 42 -25.5t56 -8.5q34 0 58 23t24 58q0 13 -3 26.5t-12.5 24.5t-27 18.5t-45.5 7.5h-48v14l91 121h-125v39h194v-13zM257 405v-38h-233v13l26 33
l39 50l41 52.5l32 41.5q15 22 26 41t11 43q0 21 -17.5 40.5t-50.5 19.5q-14 0 -27 -5t-24 -11.5t-19.5 -13.5t-12.5 -11v49q5 4 14 9t21 10t25.5 8.5t28.5 3.5q48 0 77.5 -29t29.5 -70q0 -31 -13.5 -54.5t-29.5 -46.5q-9 -14 -26 -36.5l-34 -44.5l-41 -54h157zM585 735
l-400 -734h-52l401 734h51z" />
    <glyph glyph-name="threeeighths" unicode="&#x215c;" horiz-adv-x="722" 
d="M612 204q35 -13 53.5 -41t18.5 -60q0 -23 -10 -43t-27 -35t-40 -24t-49 -9t-49 9t-40 24t-27 35t-10 43q0 32 20 61t51 40q-21 11 -35 30t-14 42q0 19 8 36.5t22 30.5t33 20.5t41 7.5q21 0 40 -7.5t33.5 -20.5t22.5 -30.5t8 -36.5q0 -23 -14.5 -41.5t-35.5 -30.5z
M558 332q-23 0 -41.5 -15t-18.5 -40q0 -26 18.5 -41.5t41.5 -15.5q25 0 42.5 16t17.5 41t-17.5 40t-42.5 15zM558 30q34 0 58 21.5t24 53.5t-24 54.5t-58 22.5t-58 -22.5t-24 -54.5t24 -53.5t58 -21.5zM145 598q29 0 49.5 -10.5t34 -27t20 -37.5t6.5 -43q0 -25 -10 -46.5
t-27 -37.5t-40 -25t-49 -9q-64 0 -98 20v53q15 -17 42 -25.5t56 -8.5q34 0 58 23t24 58q0 13 -3 26.5t-12.5 24.5t-27 18.5t-45.5 7.5h-48v14l91 121h-125v39h194v-13zM571 735l-400 -734h-52l401 734h51z" />
    <glyph glyph-name="fiveeighths" unicode="&#x215d;" horiz-adv-x="718" 
d="M609 204q35 -13 53.5 -41t18.5 -60q0 -23 -10 -43t-27 -35t-40 -24t-49 -9t-49 9t-40 24t-27 35t-10 43q0 32 20 61t51 40q-21 11 -35 30t-14 42q0 19 8 36.5t22 30.5t33 20.5t41 7.5q21 0 40 -7.5t33.5 -20.5t22.5 -30.5t8 -36.5q0 -23 -14.5 -41.5t-35.5 -30.5z
M555 332q-23 0 -41.5 -15t-18.5 -40q0 -26 18.5 -41.5t41.5 -15.5q25 0 42.5 16t17.5 41t-17.5 40t-42.5 15zM555 30q34 0 58 21.5t24 53.5t-24 54.5t-58 22.5t-58 -22.5t-24 -54.5t24 -53.5t58 -21.5zM132 605q30 0 53.5 -9.5t39.5 -26t24.5 -38.5t8.5 -47q0 -26 -10 -48
t-27 -38.5t-40 -26t-49 -9.5q-64 0 -98 20v53q15 -17 42 -25.5t56 -8.5q35 0 58.5 24.5t23.5 59.5t-21 58.5t-61 23.5h-77v166h177v-39h-133v-89h33zM571 735l-400 -734h-52l401 734h51z" />
    <glyph glyph-name="seveneighths" unicode="&#x215e;" horiz-adv-x="631" 
d="M525 204q35 -13 53.5 -41t18.5 -60q0 -23 -10 -43t-27 -35t-40 -24t-49 -9t-49 9t-40 24t-27 35t-10 43q0 32 20 61t51 40q-21 11 -35 30t-14 42q0 19 8 36.5t22 30.5t33 20.5t41 7.5q21 0 40 -7.5t33.5 -20.5t22.5 -30.5t8 -36.5q0 -23 -14.5 -41.5t-35.5 -30.5z
M471 332q-23 0 -41.5 -15t-18.5 -40q0 -26 18.5 -41.5t41.5 -15.5q25 0 42.5 16t17.5 41t-17.5 40t-42.5 15zM471 30q34 0 58 21.5t24 53.5t-24 54.5t-58 22.5t-58 -22.5t-24 -54.5t24 -53.5t58 -21.5zM270 733v-13l-185 -353h-50l172 327h-180v38zM471 735l-400 -734h-52
l401 734h51z" />
    <glyph glyph-name="exclamdown" unicode="&#xa1;" horiz-adv-x="254" 
d="M83 371h83l12 -591h-108zM124 565q27 0 46 -19t19 -46t-19 -46t-46 -19t-46 19t-19 46t19 46t46 19z" />
    <glyph glyph-name="exclamdbl" unicode="&#x203c;" horiz-adv-x="497" 
d="M169 182h-83l-12 591h108zM128 -12q-27 0 -46 19t-19 46t19 46t46 19t46 -19t19 -46t-19 -46t-46 -19zM406 182h-83l-12 591h108zM365 -12q-27 0 -46 19t-19 46t19 46t46 19t46 -19t19 -46t-19 -46t-46 -19z" />
    <glyph glyph-name="approxequal" unicode="&#x2248;" horiz-adv-x="508" 
d="M492 359q-16 -13 -35 -24q-17 -9 -40.5 -16.5t-51.5 -7.5q-34 0 -64.5 13t-59 28t-55.5 27.5t-54 11.5q-28 -1 -49 -9t-36 -18q-18 -11 -31 -25v75q17 15 35 26q16 10 36.5 18t43.5 8q33 0 64 -12.5t60.5 -27.5l56.5 -27.5t53 -12.5t49 7.5t40 16.5q20 11 38 24v-75z
M492 204q-16 -13 -35 -24q-17 -9 -40.5 -16.5t-51.5 -7.5q-34 0 -64.5 13t-59 28t-55.5 27.5t-54 11.5q-28 -1 -49 -9t-36 -18q-18 -11 -31 -25v75q17 15 35 26q16 10 36.5 18t43.5 8q33 0 64 -12.5t60.5 -27.5l56.5 -27.5t53 -12.5t49 7.5t40 16.5q20 11 38 24v-75z" />
    <glyph glyph-name="notequal" unicode="&#x2260;" horiz-adv-x="511" 
d="M482 375h-177l-38 -106h215v-84h-245l-33 -93h-79l33 93h-131v84h162l38 106h-200v84h230l34 95h78l-34 -95h147v-84v0z" />
    <glyph glyph-name="lessequal" unicode="&#x2264;" horiz-adv-x="352" 
d="M327 548v-95l-183 -107l183 -106v-92l-305 184v31l305 185v0zM20 25h308v80h-308v-80z" />
    <glyph glyph-name="greaterequal" unicode="&#x2265;" horiz-adv-x="372" 
d="M338 512v-31l-305 -184v92l183 106l-183 107v95l305 -185v0z" />
    <glyph glyph-name="commaaccent" unicode="&#xf6c3;" horiz-adv-x="236" 
d="M46 -274l36 222h96l-69 -222h-63v0z" />
    <glyph glyph-name="estimated" unicode="&#x212e;" horiz-adv-x="812" 
d="M188 367v-250q85 -81 213 -81q181 0 283 165l51 -29q-85 -115 -166 -151q-78 -34 -168 -34q-170 0 -274 107q-104 109 -104 273q0 166 105 273t273 107q154 0 262 -96q108 -95 116 -284h-591zM614 417v199q-91 82 -214 82q-124 0 -212 -82v-199h426z" />
    <glyph glyph-name="infinity" unicode="&#x221e;" horiz-adv-x="801" 
d="M594 491q54 0 89 -20t55.5 -48t28.5 -58.5t8 -51.5q0 -41 -13 -73.5t-36.5 -55t-57 -35t-74.5 -12.5t-75 16t-59.5 37t-41.5 40.5l-21 25.5l-20.5 -25.5t-41 -40.5t-59.5 -37t-75 -16t-74.5 12.5t-57 35t-36.5 55t-13 73.5q0 21 8 51.5t28.5 58.5t55.5 48t89 20
q35 0 66 -14.5t56.5 -33.5t44 -38t29.5 -29q11 10 29.5 29t44 38t56.5 33.5t67 14.5zM201 209q28 0 52.5 14t44 32t33.5 35t20 23q-11 14 -26.5 31.5t-34 33.5t-41 26.5t-47.5 10.5q-27 0 -47 -9.5t-32.5 -24t-18.5 -32.5t-6 -36t6 -36.5t18.5 -33.5t32 -24.5t46.5 -9.5z
M594 209q27 0 46.5 9.5t31.5 24.5t18 33.5t6 36.5t-6 36t-18.5 32.5t-32 24t-46.5 9.5q-26 0 -48 -10.5t-41 -26.5t-34 -33.5t-26 -31.5q6 -6 20 -23t33.5 -35t44 -32t52.5 -14z" />
    <glyph glyph-name="radical" unicode="&#x221a;" horiz-adv-x="581" 
d="M484 733h81l-263 -866h-28l-162 402l-94 -39v83l136 59l126 -323l204 684v0z" />
    <glyph glyph-name="integral" unicode="&#x222b;" horiz-adv-x="397" 
d="M152 600q0 45 9.5 81t33.5 59.5t64.5 31.5t102.5 -2v-74q-36 12 -60.5 8t-39.5 -18.5t-21 -37.5t-6 -48v-597q0 -46 -10 -82t-34 -59.5t-64.5 -31.5t-101.5 2v75q36 -12 60.5 -8t39.5 18.5t21 37.5t6 48v597v0z" />
    <glyph glyph-name="thorn" unicode="&#xfe;" horiz-adv-x="691" 
d="M152 773v-310q15 21 37.5 40t50 32.5t58.5 21.5t61 8q60 0 112.5 -22.5t92 -62t62 -92t22.5 -112.5t-22.5 -113t-62 -92t-92 -62t-112.5 -23q-30 0 -60.5 7.5t-57.5 21t-50 32t-39 41.5v-308h-83v993h83zM153 276q0 -45 15.5 -84t43 -68t65.5 -45.5t82 -16.5t82 16.5
t65.5 45.5t43.5 68t16 84q0 44 -16 83t-43.5 68t-65.5 45.5t-82 16.5t-82 -16.5t-65.5 -45.5t-43 -68t-15.5 -83z" />
    <glyph glyph-name="lozenge" unicode="&#x25ca;" horiz-adv-x="502" 
d="M234 733h30l214 -366l-214 -367h-30l-211 367l211 366v0zM116 366l133 -240l137 240l-137 240l-133 -240v0z" />
    <glyph glyph-name="cent" unicode="&#xa2;" horiz-adv-x="586" 
d="M538 392q-16 22 -38 40q-20 16 -48.5 31.5t-69.5 21.5v-423q42 6 71 21t48 32q22 18 37 41v-107q-18 -15 -42 -27q-20 -11 -49 -20.5t-65 -14.5v-208h-83v208q-47 7 -93.5 30t-83.5 60t-60 86.5t-23 110.5q0 48 18.5 95.5t53 87.5t82 68t106.5 36v211h83v-211
q35 -5 64.5 -15t49.5 -21q24 -12 42 -26v-107zM121 273q0 -39 13.5 -74t37.5 -63t56.5 -47t70.5 -26v421q-38 -7 -70.5 -26t-56.5 -47t-37.5 -63.5t-13.5 -74.5z" />
    <glyph glyph-name="franc" unicode="&#x20a3;" horiz-adv-x="579" 
d="M550 657h-305v-258h287v-78h-287v-116h137v-83h-137v-121h-88v121h-137v83h137v529h393v-77v0z" />
    <glyph glyph-name="yen" unicode="&#xa5;" 
d="M359 315v-2h144v-83h-144v-63h144v-83h-144v-83h-88v83h-130v83h130v63h-130v83h130v2l-246 417h102l188 -329l188 329h102l-246 -417v0z" />
    <glyph glyph-name="florin" unicode="&#x192;" horiz-adv-x="398" 
d="M357 695q-36 12 -60.5 8t-39.5 -18.5t-21 -37.5t-6 -48v-48h127v-76h-127v-526q0 -46 -10 -82t-34 -59.5t-64.5 -31.5t-101.5 2v75q36 -12 60.5 -8t39.5 18.5t21 37.5t6 48v526h-83v76h83v48q0 46 9.5 82t33.5 59t64.5 31t102.5 -2v-74v0z" />
    <glyph glyph-name="sterling" unicode="&#xa3;" horiz-adv-x="532" 
d="M492 78v-78h-472v24q63 38 94 92t31 121q0 14 -5 38.5t-13 53.5h-92v77h72q-7 30 -12 57.5t-5 48.5q0 54 16.5 97.5t47 73.5t73 46t93.5 16q78 0 145 -41v-87q-29 20 -64 34.5t-70 13.5q-81 -1 -115.5 -40t-34.5 -114q0 -17 6.5 -44.5t15.5 -60.5h192v-77h-173
q5 -25 9 -48.5t4 -44.5q0 -18 -3 -38.5t-9 -42t-14.5 -41.5t-18.5 -36h302z" />
    <glyph glyph-name="lira" unicode="&#x20a4;" horiz-adv-x="526" 
d="M492 78v-78h-472v24q63 38 94 92t31 121v8h-110v77h94q-5 17 -9 34.5t-9 35.5h-76v77h59q-2 12 -3 23t-1 20q0 54 16.5 97.5t47 73.5t73 46t93.5 16q78 0 145 -41v-87q-29 20 -64 34.5t-70 13.5q-81 -1 -115.5 -40t-34.5 -114q0 -17 6 -42h208v-77h-188q5 -17 9 -34.5
l8 -35.5h171v-77h-160v-9q0 -18 -3 -38.5t-9 -42t-14.5 -41.5t-18.5 -36h302z" />
    <glyph glyph-name="eng" unicode="&#x14b;" horiz-adv-x="630" 
d="M317 565q50 0 94 -16.5t76.5 -47.5t51.5 -75.5t19 -100.5v-346q0 -46 -10 -82t-34 -59.5t-65 -31.5t-102 2v75q37 -12 61.5 -8t39 18.5t20.5 37.5t6 48v346q0 40 -11.5 71t-32.5 52t-50 31.5t-63 10.5t-63 -13t-50 -35.5t-32.5 -52.5t-11.5 -64v-326h-84v549h84v-57
q31 35 71.5 54.5t85.5 19.5z" />
    <glyph glyph-name="Eng" unicode="&#x14a;" horiz-adv-x="769" 
d="M675 -24q0 -42 -13.5 -74t-37 -54t-54.5 -33.5t-66 -11.5q-15 -1 -33 2q-16 2 -37.5 6t-46.5 12v77q20 -10 40.5 -13.5t37.5 -5.5q20 -2 39 -1q34 0 58 25.5t24 70.5v79l-403 479v-535h-89v746h27l464 -552v539h89z" />
    <glyph glyph-name="product" unicode="&#x220f;" horiz-adv-x="749" 
d="M92 731h557v-894h-89v817h-379v-817h-89v894v0z" />
    <glyph glyph-name="summation" unicode="&#x2211;" horiz-adv-x="606" 
d="M147 -85h431v-1v-77h-556v26l246 439l-226 403v28h530v-76v-2h-409l193 -341v-26l-209 -373v0z" />
    <glyph glyph-name="uni2206" unicode="&#x2206;" horiz-adv-x="730" 
d="M704 0h-675l324 746h27zM366 583l-209 -506h419z" />
    <glyph glyph-name="germandbls" unicode="&#xdf;" horiz-adv-x="596" 
d="M392 433q39 -11 69.5 -32t51.5 -48.5t32 -61t11 -68.5q0 -49 -18.5 -92t-51 -75t-78 -50.5t-99.5 -18.5q-56 0 -104 20v90q22 -17 48.5 -25.5t55.5 -8.5q32 0 61.5 10t52 30.5t36 50.5t13.5 69t-16.5 68.5t-44 50t-63 31t-73.5 10.5h-70v76h52q30 0 56.5 9t46.5 25.5
t31.5 39.5t11.5 52q0 26 -9.5 49t-26.5 40.5t-40.5 27.5t-51.5 10q-25 0 -48 -10t-41 -27.5t-28.5 -40.5t-10.5 -49v-587h-84v587q0 42 15.5 78.5t44 63.5t67 43t85.5 16q46 0 85 -16t67 -43t43.5 -63.5t15.5 -78.5q0 -45 -26 -85t-68 -67z" />
    <glyph glyph-name="arrowup" unicode="&#x2191;" horiz-adv-x="519" 
d="M480 463v-109l-180 181v-535h-85v535l-181 -181v107h-1l210 209h31l206 -207v0z" />
    <glyph glyph-name="uni2197" unicode="&#x2197;" horiz-adv-x="614" 
d="M228 550h292l22 -21v-296v1l-76 -76v256l-378 -378l-60 60l379 378l-256 -1l77 77v0z" />
    <glyph glyph-name="arrowright" unicode="&#x2192;" horiz-adv-x="744" 
d="M505 550l206 -207v-30l-208 -210v1h-107l181 181h-536v85h536l-181 180h109v0z" />
    <glyph glyph-name="uni2198" unicode="&#x2198;" horiz-adv-x="618" 
d="M228 69l-77 77l256 -1l-379 379l60 59l378 -378v256l76 -75v-295l-22 -22h-292v0z" />
    <glyph glyph-name="arrowdown" unicode="&#x2193;" horiz-adv-x="515" 
d="M480 206l-206 -206h-31l-210 208h1v107l181 -181v536h85v-536l180 181v-109v0z" />
    <glyph glyph-name="uni2199" unicode="&#x2199;" horiz-adv-x="635" 
d="M74 385l77 77l-1 -256l378 379l60 -60l-378 -379h256l-76 -75l1 -1l-296 1l-21 22v292v0z" />
    <glyph glyph-name="arrowleft" unicode="&#x2190;" horiz-adv-x="743" 
d="M230 550h109l-181 -180h535v-85h-535l181 -181h-107v-1l-208 210v30l206 207v0z" />
    <glyph glyph-name="uni2196" unicode="&#x2196;" horiz-adv-x="609" 
d="M381 550l77 -77l-255 1l379 -379l-60 -59l-379 378v-256l-75 75h-1l1 295l21 22h292v0z" />
    <glyph glyph-name="pi" unicode="&#x3c0;" horiz-adv-x="670" 
d="M627 554v-76h-81v-478h-84v478h-256v-478h-84v478h-81v76h586v0z" />
    <glyph glyph-name="uni03A9" unicode="&#x3a9;" horiz-adv-x="810" 
d="M776 373q0 -45 -13 -88.5t-37 -82t-58.5 -70.5t-77.5 -55h171v-77h-283v87q48 12 87 39t66.5 64.5t42.5 84t15 97.5q0 61 -20.5 114.5t-58 93.5t-90 63.5t-116.5 23.5t-116.5 -23.5t-90 -63.5t-58 -93.5t-20.5 -114.5q0 -51 15 -97.5t42.5 -84t67 -64.5t87.5 -39v-87
h-284v77h171q-44 23 -78.5 55t-58.5 70.5t-36.5 82t-12.5 88.5q0 77 29.5 144t80.5 117t119 79.5t145 32.5q77 -1 144.5 -30.5t117.5 -80t79 -118t29 -144.5z" />
    <glyph glyph-name="Aacute" unicode="&#xc1;" horiz-adv-x="684" 
d="M584 0l-77 185h-330l-77 -185h-95l324 746h26l324 -746h-95zM209 263h266l-133 320zM368 804h-54l80 175h102l-128 -175v0z" />
    <glyph glyph-name="Abreve" unicode="&#x102;" horiz-adv-x="684" 
d="M584 0l-77 185h-330l-77 -185h-95l324 746h26l324 -746h-95zM209 263h266l-133 320zM504 935q-5 -29 -19.5 -53t-36 -41.5t-48.5 -27.5t-57 -10q-31 0 -58 10t-49 27.5t-36.5 41.5t-19.5 53h74q8 -28 32 -46t55 -19q32 0 56.5 18t34.5 47h72z" />
    <glyph glyph-name="Acircumflex" unicode="&#xc2;" horiz-adv-x="684" 
d="M584 0l-77 185h-330l-77 -185h-95l324 746h26l324 -746h-95zM209 263h266l-133 320zM244 804h-73l157 175h28l157 -175h-73l-98 94l-98 -94v0z" />
    <glyph glyph-name="Agrave" unicode="&#xc0;" horiz-adv-x="684" 
d="M584 0l-77 185h-330l-77 -185h-95l324 746h26l324 -746h-95zM209 263h266l-133 320zM314 805l-127 175h101l81 -175h-55v0z" />
    <glyph glyph-name="Adieresis" unicode="&#xc4;" horiz-adv-x="684" 
d="M584 0l-77 185h-330l-77 -185h-95l324 746h26l324 -746h-95zM209 263h266l-133 320zM224 923q26 1 43.5 -16.5t17.5 -42.5q0 -23 -17.5 -40.5t-42.5 -18.5q-24 0 -42.5 17.5t-18.5 41.5t17.5 41.5t42.5 17.5zM459 923q26 0 43 -17t17 -43q0 -24 -17.5 -41t-41.5 -18
q-24 0 -43 18t-19 41q0 12 5 22.5t13.5 18.5t19.5 13.5t23 5.5z" />
    <glyph glyph-name="Amacron" unicode="&#x100;" horiz-adv-x="684" 
d="M584 0l-77 185h-330l-77 -185h-95l324 746h26l324 -746h-95zM209 263h266l-133 320zM485 828h-292v68h292v-68v0z" />
    <glyph glyph-name="Aogonek" unicode="&#x104;" horiz-adv-x="684" 
d="M584 0l-77 185h-330l-77 -185h-95l324 746h26l324 -746h-95zM209 263h266l-133 320zM587 -104q0 -26 19 -35t42 -9q26 0 61 9v-60q-52 -12 -92 -8q-17 1 -33.5 6t-29.5 15.5t-20.5 27t-7.5 40.5t13 53t47 65h81q-22 -13 -40 -30q-15 -14 -27.5 -33t-12.5 -41z" />
    <glyph glyph-name="Aring" unicode="&#xc5;" horiz-adv-x="684" 
d="M584 0l-77 185h-330l-77 -185h-95l324 746h26l324 -746h-95zM209 263h266l-133 320zM341 775q-26 0 -48 9t-38 25t-25.5 37.5t-9.5 46.5q0 24 9 45.5t25.5 37.5t39 25.5t47.5 9.5q26 0 48.5 -9.5t39 -25.5t26 -37.5t9.5 -46.5t-10 -46.5t-26.5 -37t-39 -24.5t-47.5 -9z
M343 948q-25 0 -40.5 -15t-15.5 -40q0 -24 15.5 -39.5t39.5 -15.5q23 0 38.5 15.5t16.5 38.5t-15 39.5t-39 16.5z" />
    <glyph glyph-name="Atilde" unicode="&#xc3;" horiz-adv-x="684" 
d="M584 0l-77 185h-330l-77 -185h-95l324 746h26l324 -746h-95zM209 263h266l-133 320zM414 870q14 0 32.5 8t41.5 21v-70q-12 -7 -26 -12q-12 -5 -24 -8.5t-26 -3.5q-18 0 -36 6t-37 15q-16 8 -30 16.5t-36 8.5q-27 0 -44.5 -13l-32.5 -24v77q17 10 36.5 16.5t41.5 6.5
q16 0 34.5 -6t40.5 -16q20 -10 36.5 -16t28.5 -6z" />
    <glyph glyph-name="Cacute" unicode="&#x106;" horiz-adv-x="720" 
d="M690 69q-54 -39 -120.5 -60.5t-133.5 -21.5q-79 0 -150.5 30t-126 81.5t-87 120.5t-32.5 147q0 79 32.5 148t87 120.5t126 81.5t150.5 30q67 0 133.5 -22t120.5 -60v-108q-20 25 -48.5 45.5t-62 34.5t-70 22t-73.5 8q-65 0 -121 -23.5t-97.5 -64t-65.5 -95.5t-24 -117
t24 -116.5t66 -95t98 -64t120 -23.5q36 0 73 7.5t71 22t62 34.5t48 45v-107zM425 804h-54l80 175h102l-128 -175v0z" />
    <glyph glyph-name="Ccaron" unicode="&#x10c;" horiz-adv-x="720" 
d="M690 69q-54 -39 -120.5 -60.5t-133.5 -21.5q-79 0 -150.5 30t-126 81.5t-87 120.5t-32.5 147q0 79 32.5 148t87 120.5t126 81.5t150.5 30q67 0 133.5 -22t120.5 -60v-108q-20 25 -48.5 45.5t-62 34.5t-70 22t-73.5 8q-65 0 -121 -23.5t-97.5 -64t-65.5 -95.5t-24 -117
t24 -116.5t66 -95t98 -64t120 -23.5q36 0 73 7.5t71 22t62 34.5t48 45v-107zM325 980l98 -93l98 93h73l-157 -175h-28l-157 175h73v0z" />
    <glyph glyph-name="Ccedilla" unicode="&#xc7;" horiz-adv-x="720" 
d="M690 69q-54 -39 -120.5 -60.5t-133.5 -21.5q-79 0 -150.5 30t-126 81.5t-87 120.5t-32.5 147q0 79 32.5 148t87 120.5t126 81.5t150.5 30q67 0 133.5 -22t120.5 -60v-108q-20 25 -48.5 45.5t-62 34.5t-70 22t-73.5 8q-65 0 -121 -23.5t-97.5 -64t-65.5 -95.5t-24 -117
t24 -116.5t66 -95t98 -64t120 -23.5q36 0 73 7.5t71 22t62 34.5t48 45v-107zM438 -46q37 -5 58 -28t21 -49q0 -38 -26.5 -61.5t-67.5 -25.5q-18 -1 -46.5 3.5t-48.5 13.5v57q4 -5 22 -11.5t39 -9.5t39.5 1.5t24.5 22.5q4 12 -2 22t-18 17t-27 11t-28 4l23 80h50l-13 -47v0z
" />
    <glyph glyph-name="Ccircumflex" unicode="&#x108;" horiz-adv-x="720" 
d="M690 69q-54 -39 -120.5 -60.5t-133.5 -21.5q-79 0 -150.5 30t-126 81.5t-87 120.5t-32.5 147q0 79 32.5 148t87 120.5t126 81.5t150.5 30q67 0 133.5 -22t120.5 -60v-108q-20 25 -48.5 45.5t-62 34.5t-70 22t-73.5 8q-65 0 -121 -23.5t-97.5 -64t-65.5 -95.5t-24 -117
t24 -116.5t66 -95t98 -64t120 -23.5q36 0 73 7.5t71 22t62 34.5t48 45v-107zM322 804h-73l157 175h28l157 -175h-73l-98 94l-98 -94v0z" />
    <glyph glyph-name="Cdotaccent" unicode="&#x10a;" horiz-adv-x="720" 
d="M690 69q-54 -39 -120.5 -60.5t-133.5 -21.5q-79 0 -150.5 30t-126 81.5t-87 120.5t-32.5 147q0 79 32.5 148t87 120.5t126 81.5t150.5 30q67 0 133.5 -22t120.5 -60v-108q-20 25 -48.5 45.5t-62 34.5t-70 22t-73.5 8q-65 0 -121 -23.5t-97.5 -64t-65.5 -95.5t-24 -117
t24 -116.5t66 -95t98 -64t120 -23.5q36 0 73 7.5t71 22t62 34.5t48 45v-107zM422 921q26 1 43.5 -16.5t17.5 -42.5q0 -23 -17.5 -40.5t-42.5 -18.5q-24 0 -42.5 17.5t-18.5 41.5t17.5 41.5t42.5 17.5z" />
    <glyph glyph-name="Dcaron" unicode="&#x10e;" horiz-adv-x="757" 
d="M326 733q99 0 172.5 -29t122 -78.5t72.5 -116.5t24 -143q0 -74 -22.5 -140.5t-70 -116.5t-120.5 -79.5t-175 -29.5h-229v733h226zM326 77q79 0 136 24t93.5 64t54 92t17.5 109t-18 109.5t-55.5 92t-94 63.5t-133.5 24h-138v-578h138zM230 980l98 -93l98 93h73l-157 -175
h-28l-157 175h73v0z" />
    <glyph glyph-name="Dcroat" unicode="&#x110;" horiz-adv-x="757" 
d="M326 733q99 0 172.5 -29t122 -78.5t72.5 -116.5t24 -143q0 -74 -22.5 -140.5t-70 -116.5t-120.5 -79.5t-175 -29.5h-229v733h226zM326 77q79 0 136 24t93.5 64t54 92t17.5 109t-18 109.5t-55.5 92t-94 63.5t-133.5 24h-138v-578h138zM3.25684 441.325h285v-88h-285v88v0z
" />
    <glyph glyph-name="Eacute" unicode="&#xc9;" horiz-adv-x="544" 
d="M188 77h326v-77h-414v733h401v-77h-313v-227h295v-77h-295v-275v0zM315 804h-54l80 175h102l-128 -175v0z" />
    <glyph glyph-name="Ebreve" unicode="&#x114;" horiz-adv-x="544" 
d="M188 77h326v-77h-414v733h401v-77h-313v-227h295v-77h-295v-275v0zM466 935q-5 -29 -19.5 -53t-36 -41.5t-48.5 -27.5t-57 -10q-31 0 -58 10t-49 27.5t-36.5 41.5t-19.5 53h74q8 -28 32 -46t55 -19q32 0 56.5 18t34.5 47h72z" />
    <glyph glyph-name="Ecaron" unicode="&#x11a;" horiz-adv-x="544" 
d="M188 77h326v-77h-414v733h401v-77h-313v-227h295v-77h-295v-275v0zM205 980l98 -93l98 93h73l-157 -175h-28l-157 175h73v0z" />
    <glyph glyph-name="Ecircumflex" unicode="&#xca;" horiz-adv-x="544" 
d="M188 77h326v-77h-414v733h401v-77h-313v-227h295v-77h-295v-275v0zM205 804h-73l157 175h28l157 -175h-73l-98 94l-98 -94v0z" />
    <glyph glyph-name="Edieresis" unicode="&#xcb;" horiz-adv-x="544" 
d="M188 77h326v-77h-414v733h401v-77h-313v-227h295v-77h-295v-275v0zM188 923q26 1 43.5 -16.5t17.5 -42.5q0 -23 -17.5 -40.5t-42.5 -18.5q-24 0 -42.5 17.5t-18.5 41.5t17.5 41.5t42.5 17.5zM423 923q26 0 43 -17t17 -43q0 -24 -17.5 -41t-41.5 -18q-24 0 -43 18t-19 41
q0 12 5 22.5t13.5 18.5t19.5 13.5t23 5.5z" />
    <glyph glyph-name="Edotaccent" unicode="&#x116;" horiz-adv-x="544" 
d="M188 77h326v-77h-414v733h401v-77h-313v-227h295v-77h-295v-275v0zM305 921q26 1 43.5 -16.5t17.5 -42.5q0 -23 -17.5 -40.5t-42.5 -18.5q-24 0 -42.5 17.5t-18.5 41.5t17.5 41.5t42.5 17.5z" />
    <glyph glyph-name="Egrave" unicode="&#xc8;" horiz-adv-x="544" 
d="M188 77h326v-77h-414v733h401v-77h-313v-227h295v-77h-295v-275v0zM303 805l-127 175h101l81 -175h-55v0z" />
    <glyph glyph-name="Emacron" unicode="&#x112;" horiz-adv-x="544" 
d="M188 77h326v-77h-414v733h401v-77h-313v-227h295v-77h-295v-275v0zM449 828h-292v68h292v-68v0z" />
    <glyph glyph-name="Eogonek" unicode="&#x118;" horiz-adv-x="544" 
d="M188 77h326v-77h-414v733h401v-77h-313v-227h295v-77h-295v-275v0zM392 -104q0 -26 19 -35t42 -9q26 0 61 9v-60q-52 -12 -92 -8q-17 1 -33.5 6t-29.5 15.5t-20.5 27t-7.5 40.5t13 53t47 65h81q-22 -13 -40 -30q-15 -14 -27.5 -33t-12.5 -41z" />
    <glyph glyph-name="Gbreve" unicode="&#x11e;" horiz-adv-x="829" 
d="M789 366q0 -78 -24 -147t-70.5 -120.5t-115.5 -81.5t-159 -30q-79 0 -148 30t-120.5 82t-81.5 121t-30 146q0 80 32.5 149.5t87 120.5t126 80.5t150.5 29.5q68 0 134 -22.5t120 -62.5v-109q-20 26 -48 47t-61 36t-70.5 23t-74.5 8q-65 0 -121 -24t-97.5 -64.5
t-65.5 -95.5t-24 -116q0 -62 21.5 -116.5t60.5 -95t92.5 -64t117.5 -23.5q63 0 111 19t82 50t54 71t26 82h-283v77h379zM572 935q-5 -29 -19.5 -53t-36 -41.5t-48.5 -27.5t-57 -10q-31 0 -58 10t-49 27.5t-36.5 41.5t-19.5 53h74q8 -28 32 -46t55 -19q32 0 56.5 18t34.5 47
h72z" />
    <glyph glyph-name="Gcircumflex" unicode="&#x11c;" horiz-adv-x="829" 
d="M789 366q0 -78 -24 -147t-70.5 -120.5t-115.5 -81.5t-159 -30q-79 0 -148 30t-120.5 82t-81.5 121t-30 146q0 80 32.5 149.5t87 120.5t126 80.5t150.5 29.5q68 0 134 -22.5t120 -62.5v-109q-20 26 -48 47t-61 36t-70.5 23t-74.5 8q-65 0 -121 -24t-97.5 -64.5
t-65.5 -95.5t-24 -116q0 -62 21.5 -116.5t60.5 -95t92.5 -64t117.5 -23.5q63 0 111 19t82 50t54 71t26 82h-283v77h379zM315 804h-73l157 175h28l157 -175h-73l-98 94l-98 -94v0z" />
    <glyph glyph-name="Gcommaaccent" unicode="&#x122;" horiz-adv-x="829" 
d="M789 366q0 -78 -24 -147t-70.5 -120.5t-115.5 -81.5t-159 -30q-79 0 -148 30t-120.5 82t-81.5 121t-30 146q0 80 32.5 149.5t87 120.5t126 80.5t150.5 29.5q68 0 134 -22.5t120 -62.5v-109q-20 26 -48 47t-61 36t-70.5 23t-74.5 8q-65 0 -121 -24t-97.5 -64.5
t-65.5 -95.5t-24 -116q0 -62 21.5 -116.5t60.5 -95t92.5 -64t117.5 -23.5q63 0 111 19t82 50t54 71t26 82h-283v77h379zM386 -45h96l-69 -222h-63z" />
    <glyph glyph-name="Gdotaccent" unicode="&#x120;" horiz-adv-x="829" 
d="M789 366q0 -78 -24 -147t-70.5 -120.5t-115.5 -81.5t-159 -30q-79 0 -148 30t-120.5 82t-81.5 121t-30 146q0 80 32.5 149.5t87 120.5t126 80.5t150.5 29.5q68 0 134 -22.5t120 -62.5v-109q-20 26 -48 47t-61 36t-70.5 23t-74.5 8q-65 0 -121 -24t-97.5 -64.5
t-65.5 -95.5t-24 -116q0 -62 21.5 -116.5t60.5 -95t92.5 -64t117.5 -23.5q63 0 111 19t82 50t54 71t26 82h-283v77h379zM415 921q26 1 43.5 -16.5t17.5 -42.5q0 -23 -17.5 -40.5t-42.5 -18.5q-24 0 -42.5 17.5t-18.5 41.5t17.5 41.5t42.5 17.5z" />
    <glyph glyph-name="Hcircumflex" unicode="&#x124;" horiz-adv-x="779" 
d="M590 733h89v-733h-89v353h-402v-353h-88v733h88v-303h402v303v0zM291 804h-73l157 175h28l157 -175h-73l-98 94l-98 -94v0z" />
    <glyph glyph-name="Iacute" unicode="&#xcd;" horiz-adv-x="288" 
d="M188 -1h-88v733h88v-733v0zM174 804h-54l80 175h102l-128 -175v0z" />
    <glyph glyph-name="Ibreve" unicode="&#x12c;" horiz-adv-x="288" 
d="M188 -1h-88v733h88v-733v0zM306 935q-5 -29 -19.5 -53t-36 -41.5t-48.5 -27.5t-57 -10q-31 0 -58 10t-49 27.5t-36.5 41.5t-19.5 53h74q8 -28 32 -46t55 -19q32 0 56.5 18t34.5 47h72z" />
    <glyph glyph-name="Icircumflex" unicode="&#xce;" horiz-adv-x="288" 
d="M188 -1h-88v733h88v-733v0zM46 804h-73l157 175h28l157 -175h-73l-98 94l-98 -94v0z" />
    <glyph glyph-name="Idieresis" unicode="&#xcf;" horiz-adv-x="288" 
d="M188 -1h-88v733h88v-733v0zM27 923q26 1 43.5 -16.5t17.5 -42.5q0 -23 -17.5 -40.5t-42.5 -18.5q-24 0 -42.5 17.5t-18.5 41.5t17.5 41.5t42.5 17.5zM262 923q26 0 43 -17t17 -43q0 -24 -17.5 -41t-41.5 -18q-24 0 -43 18t-19 41q0 12 5 22.5t13.5 18.5t19.5 13.5t23 5.5
z" />
    <glyph glyph-name="Idotaccent" unicode="&#x130;" horiz-adv-x="288" 
d="M188 -1h-88v733h88v-733v0zM143 921q26 1 43.5 -16.5t17.5 -42.5q0 -23 -17.5 -40.5t-42.5 -18.5q-24 0 -42.5 17.5t-18.5 41.5t17.5 41.5t42.5 17.5z" />
    <glyph glyph-name="Igrave" unicode="&#xcc;" horiz-adv-x="288" 
d="M188 -1h-88v733h88v-733v0zM112 805l-127 175h101l81 -175h-55v0z" />
    <glyph glyph-name="Imacron" unicode="&#x12a;" horiz-adv-x="288" 
d="M188 -1h-88v733h88v-733v0zM287 828h-292v68h292v-68v0z" />
    <glyph glyph-name="Iogonek" unicode="&#x12e;" horiz-adv-x="288" 
d="M188 -1h-88v733h88v-733v0zM101 -104q0 -26 19 -35t42 -9q26 0 61 9v-60q-52 -12 -92 -8q-17 1 -33.5 6t-29.5 15.5t-20.5 27t-7.5 40.5t13 53t47 65h81q-22 -13 -40 -30q-15 -14 -27.5 -33t-12.5 -41z" />
    <glyph glyph-name="Itilde" unicode="&#x128;" horiz-adv-x="288" 
d="M188 -1h-88v733h88v-733v0zM216 870q14 0 32.5 8t41.5 21v-70q-12 -7 -26 -12q-12 -5 -24 -8.5t-26 -3.5q-18 0 -36 6t-37 15q-16 8 -30 16.5t-36 8.5q-27 0 -44.5 -13l-32.5 -24v77q17 10 36.5 16.5t41.5 6.5q16 0 34.5 -6t40.5 -16q20 -10 36.5 -16t28.5 -6z" />
    <glyph glyph-name="IJ" unicode="&#x132;" horiz-adv-x="685" 
d="M188 -1h-88v733h88v-733v0zM585 733v-574q0 -42 -13.5 -74t-36.5 -54t-54 -33.5t-66 -11.5q-15 -1 -33 2q-16 2 -37.5 6t-46.5 12v77q20 -10 40.5 -13.5t37.5 -5.5q20 -2 39 -1q34 0 58 25.5t24 70.5v574h88z" />
    <glyph glyph-name="Jcircumflex" unicode="&#x134;" horiz-adv-x="397" 
d="M297 733v-574q0 -42 -13.5 -74t-36.5 -54t-54 -33.5t-66 -11.5q-15 -1 -33 2q-16 2 -37.5 6t-46.5 12v77q20 -10 40.5 -13.5t37.5 -5.5q20 -2 39 -1q34 0 58 25.5t24 70.5v574h88zM156 804h-73l157 175h28l157 -175h-73l-98 94l-98 -94v0z" />
    <glyph glyph-name="Kcommaaccent" unicode="&#x136;" horiz-adv-x="642" 
d="M100 0v733h88v-733h-88zM637 2h-114l-307 372v26l255 333h112l-265 -344zM292 -45h96l-69 -222h-63z" />
    <glyph glyph-name="Lacute" unicode="&#x139;" horiz-adv-x="461" 
d="M188 77h268v-77h-356v733h88v-656v0zM176 804h-54l80 175h102l-128 -175v0z" />
    <glyph glyph-name="Lcaron" unicode="&#x13d;" horiz-adv-x="461" 
d="M188 77h268v-77h-356v733h88v-656v0zM362 772h96l-69 -222h-63z" />
    <glyph glyph-name="Lcommaaccent" unicode="&#x13b;" horiz-adv-x="461" 
d="M188 77h268v-77h-356v733h88v-656v0zM236 -45h96l-69 -222h-63z" />
    <glyph glyph-name="Ldot" unicode="&#x13f;" horiz-adv-x="461" 
d="M188 77h268v-77h-356v733h88v-656v0zM399 379q26 0 45 -19t19 -46t-19 -46t-45 -19q-27 0 -46 19t-19 46t19 46t46 19z" />
    <glyph glyph-name="Nacute" unicode="&#x143;" horiz-adv-x="779" 
d="M591 734h88v-748h-28l-463 549v-535h-88v746h26l465 -551v539v0zM414 804h-54l80 175h102l-128 -175v0z" />
    <glyph glyph-name="Ncaron" unicode="&#x147;" horiz-adv-x="779" 
d="M591 734h88v-748h-28l-463 549v-535h-88v746h26l465 -551v539v0zM291 980l98 -93l98 93h73l-157 -175h-28l-157 175h73v0z" />
    <glyph glyph-name="Ncommaaccent" unicode="&#x145;" horiz-adv-x="779" 
d="M591 734h88v-748h-28l-463 549v-535h-88v746h26l465 -551v539v0zM377 -45h96l-69 -222h-63z" />
    <glyph glyph-name="Ntilde" unicode="&#xd1;" horiz-adv-x="779" 
d="M591 734h88v-748h-28l-463 549v-535h-88v746h26l465 -551v539v0zM461 870q14 0 32.5 8t41.5 21v-70q-12 -7 -26 -12q-12 -5 -24 -8.5t-26 -3.5q-18 0 -36 6t-37 15q-16 8 -30 16.5t-36 8.5q-27 0 -44.5 -13l-32.5 -24v77q17 10 36.5 16.5t41.5 6.5q16 0 34.5 -6t40.5 -16
q20 -10 36.5 -16t28.5 -6z" />
    <glyph glyph-name="Oacute" unicode="&#xd3;" horiz-adv-x="839" 
d="M419 746q79 0 148 -30t120.5 -81.5t81.5 -120.5t30 -148q0 -78 -30 -147t-81.5 -120.5t-120.5 -81.5t-148 -30q-78 0 -147 30t-120.5 81.5t-81.5 120.5t-30 147q0 79 30 148t81.5 120.5t120.5 81.5t147 30zM420 66q64 0 118 23.5t92 64.5t59.5 95.5t21.5 116.5t-21 116.5
t-59.5 95.5t-92 64.5t-118.5 23.5t-118.5 -23.5t-92 -64.5t-60 -95.5t-21.5 -116.5t21.5 -116.5t60.5 -95.5t92.5 -64.5t117.5 -23.5zM446 804h-54l80 175h102l-128 -175v0z" />
    <glyph glyph-name="Obreve" unicode="&#x14e;" horiz-adv-x="839" 
d="M419 746q79 0 148 -30t120.5 -81.5t81.5 -120.5t30 -148q0 -78 -30 -147t-81.5 -120.5t-120.5 -81.5t-148 -30q-78 0 -147 30t-120.5 81.5t-81.5 120.5t-30 147q0 79 30 148t81.5 120.5t120.5 81.5t147 30zM420 66q64 0 118 23.5t92 64.5t59.5 95.5t21.5 116.5t-21 116.5
t-59.5 95.5t-92 64.5t-118.5 23.5t-118.5 -23.5t-92 -64.5t-60 -95.5t-21.5 -116.5t21.5 -116.5t60.5 -95.5t92.5 -64.5t117.5 -23.5zM581 935q-5 -29 -19.5 -53t-36 -41.5t-48.5 -27.5t-57 -10q-31 0 -58 10t-49 27.5t-36.5 41.5t-19.5 53h74q8 -28 32 -46t55 -19
q32 0 56.5 18t34.5 47h72z" />
    <glyph glyph-name="Ocircumflex" unicode="&#xd4;" horiz-adv-x="839" 
d="M419 746q79 0 148 -30t120.5 -81.5t81.5 -120.5t30 -148q0 -78 -30 -147t-81.5 -120.5t-120.5 -81.5t-148 -30q-78 0 -147 30t-120.5 81.5t-81.5 120.5t-30 147q0 79 30 148t81.5 120.5t120.5 81.5t147 30zM420 66q64 0 118 23.5t92 64.5t59.5 95.5t21.5 116.5t-21 116.5
t-59.5 95.5t-92 64.5t-118.5 23.5t-118.5 -23.5t-92 -64.5t-60 -95.5t-21.5 -116.5t21.5 -116.5t60.5 -95.5t92.5 -64.5t117.5 -23.5zM321 804h-73l157 175h28l157 -175h-73l-98 94l-98 -94v0z" />
    <glyph glyph-name="Odieresis" unicode="&#xd6;" horiz-adv-x="839" 
d="M419 746q79 0 148 -30t120.5 -81.5t81.5 -120.5t30 -148q0 -78 -30 -147t-81.5 -120.5t-120.5 -81.5t-148 -30q-78 0 -147 30t-120.5 81.5t-81.5 120.5t-30 147q0 79 30 148t81.5 120.5t120.5 81.5t147 30zM420 66q64 0 118 23.5t92 64.5t59.5 95.5t21.5 116.5t-21 116.5
t-59.5 95.5t-92 64.5t-118.5 23.5t-118.5 -23.5t-92 -64.5t-60 -95.5t-21.5 -116.5t21.5 -116.5t60.5 -95.5t92.5 -64.5t117.5 -23.5zM302 923q26 1 43.5 -16.5t17.5 -42.5q0 -23 -17.5 -40.5t-42.5 -18.5q-24 0 -42.5 17.5t-18.5 41.5t17.5 41.5t42.5 17.5zM537 923
q26 0 43 -17t17 -43q0 -24 -17.5 -41t-41.5 -18q-24 0 -43 18t-19 41q0 12 5 22.5t13.5 18.5t19.5 13.5t23 5.5z" />
    <glyph glyph-name="Ograve" unicode="&#xd2;" horiz-adv-x="839" 
d="M419 746q79 0 148 -30t120.5 -81.5t81.5 -120.5t30 -148q0 -78 -30 -147t-81.5 -120.5t-120.5 -81.5t-148 -30q-78 0 -147 30t-120.5 81.5t-81.5 120.5t-30 147q0 79 30 148t81.5 120.5t120.5 81.5t147 30zM420 66q64 0 118 23.5t92 64.5t59.5 95.5t21.5 116.5t-21 116.5
t-59.5 95.5t-92 64.5t-118.5 23.5t-118.5 -23.5t-92 -64.5t-60 -95.5t-21.5 -116.5t21.5 -116.5t60.5 -95.5t92.5 -64.5t117.5 -23.5zM396 805l-127 175h101l81 -175h-55v0z" />
    <glyph glyph-name="Ohungarumlaut" unicode="&#x150;" horiz-adv-x="839" 
d="M419 746q79 0 148 -30t120.5 -81.5t81.5 -120.5t30 -148q0 -78 -30 -147t-81.5 -120.5t-120.5 -81.5t-148 -30q-78 0 -147 30t-120.5 81.5t-81.5 120.5t-30 147q0 79 30 148t81.5 120.5t120.5 81.5t147 30zM420 66q64 0 118 23.5t92 64.5t59.5 95.5t21.5 116.5t-21 116.5
t-59.5 95.5t-92 64.5t-118.5 23.5t-118.5 -23.5t-92 -64.5t-60 -95.5t-21.5 -116.5t21.5 -116.5t60.5 -95.5t92.5 -64.5t117.5 -23.5zM471 979l-128 -175h-54l81 175h101zM638 979l-128 -175h-54l81 175h101z" />
    <glyph glyph-name="Omacron" unicode="&#x14c;" horiz-adv-x="839" 
d="M419 746q79 0 148 -30t120.5 -81.5t81.5 -120.5t30 -148q0 -78 -30 -147t-81.5 -120.5t-120.5 -81.5t-148 -30q-78 0 -147 30t-120.5 81.5t-81.5 120.5t-30 147q0 79 30 148t81.5 120.5t120.5 81.5t147 30zM420 66q64 0 118 23.5t92 64.5t59.5 95.5t21.5 116.5t-21 116.5
t-59.5 95.5t-92 64.5t-118.5 23.5t-118.5 -23.5t-92 -64.5t-60 -95.5t-21.5 -116.5t21.5 -116.5t60.5 -95.5t92.5 -64.5t117.5 -23.5zM562 828h-292v68h292v-68v0z" />
    <glyph glyph-name="Oslash" unicode="&#xd8;" horiz-adv-x="839" 
d="M419 746q79 0 148 -30t120.5 -81.5t81.5 -120.5t30 -148q0 -78 -30 -147t-81.5 -120.5t-120.5 -81.5t-148 -30q-78 0 -147 30t-120.5 81.5t-81.5 120.5t-30 147q0 79 30 148t81.5 120.5t120.5 81.5t147 30zM420 66q64 0 118 23.5t92 64.5t59.5 95.5t21.5 116.5t-21 116.5
t-59.5 95.5t-92 64.5t-118.5 23.5t-118.5 -23.5t-92 -64.5t-60 -95.5t-21.5 -116.5t21.5 -116.5t60.5 -95.5t92.5 -64.5t117.5 -23.5zM590 746h91l-434 -760h-90l433 760v0z" />
    <glyph glyph-name="Oslashacute" unicode="&#x1fe;" horiz-adv-x="839" 
d="M419 746q79 0 148 -30t120.5 -81.5t81.5 -120.5t30 -148q0 -78 -30 -147t-81.5 -120.5t-120.5 -81.5t-148 -30q-78 0 -147 30t-120.5 81.5t-81.5 120.5t-30 147q0 79 30 148t81.5 120.5t120.5 81.5t147 30zM420 66q64 0 118 23.5t92 64.5t59.5 95.5t21.5 116.5t-21 116.5
t-59.5 95.5t-92 64.5t-118.5 23.5t-118.5 -23.5t-92 -64.5t-60 -95.5t-21.5 -116.5t21.5 -116.5t60.5 -95.5t92.5 -64.5t117.5 -23.5zM590 746h91l-434 -760h-90l433 760v0zM446 804h-54l80 175h102l-128 -175v0z" />
    <glyph glyph-name="Otilde" unicode="&#xd5;" horiz-adv-x="839" 
d="M419 746q79 0 148 -30t120.5 -81.5t81.5 -120.5t30 -148q0 -78 -30 -147t-81.5 -120.5t-120.5 -81.5t-148 -30q-78 0 -147 30t-120.5 81.5t-81.5 120.5t-30 147q0 79 30 148t81.5 120.5t120.5 81.5t147 30zM420 66q64 0 118 23.5t92 64.5t59.5 95.5t21.5 116.5t-21 116.5
t-59.5 95.5t-92 64.5t-118.5 23.5t-118.5 -23.5t-92 -64.5t-60 -95.5t-21.5 -116.5t21.5 -116.5t60.5 -95.5t92.5 -64.5t117.5 -23.5zM491 870q14 0 32.5 8t41.5 21v-70q-12 -7 -26 -12q-12 -5 -24 -8.5t-26 -3.5q-18 0 -36 6t-37 15q-16 8 -30 16.5t-36 8.5
q-27 0 -44.5 -13l-32.5 -24v77q17 10 36.5 16.5t41.5 6.5q16 0 34.5 -6t40.5 -16q20 -10 36.5 -16t28.5 -6z" />
    <glyph glyph-name="OE" unicode="&#x152;" horiz-adv-x="1383" 
d="M419 746q79 0 148 -30t120.5 -81.5t81.5 -120.5t30 -148q0 -78 -30 -147t-81.5 -120.5t-120.5 -81.5t-148 -30q-78 0 -147 30t-120.5 81.5t-81.5 120.5t-30 147q0 79 30 148t81.5 120.5t120.5 81.5t147 30zM420 66q64 0 118 23.5t92 64.5t59.5 95.5t21.5 116.5t-21 116.5
t-59.5 95.5t-92 64.5t-118.5 23.5t-118.5 -23.5t-92 -64.5t-60 -95.5t-21.5 -116.5t21.5 -116.5t60.5 -95.5t92.5 -64.5t117.5 -23.5zM799 77h326v-77h-414v733h401v-77h-313v-227h295v-77h-295v-275v0z" />
    <glyph glyph-name="Racute" unicode="&#x154;" horiz-adv-x="637" 
d="M304 733q69 0 117.5 -18.5t80 -49.5t46 -72t14.5 -85q0 -40 -13 -77.5t-37.5 -67.5t-60 -50t-81.5 -26l257 -287h-115l-287 336v26h78q49 0 81.5 13t52.5 34t28.5 47t8.5 52t-8.5 52.5t-29 47.5t-53 34t-80.5 13h-115v-655h-88v733h204zM281 804h-54l80 175h102
l-128 -175v0z" />
    <glyph glyph-name="Rcaron" unicode="&#x158;" horiz-adv-x="637" 
d="M304 733q69 0 117.5 -18.5t80 -49.5t46 -72t14.5 -85q0 -40 -13 -77.5t-37.5 -67.5t-60 -50t-81.5 -26l257 -287h-115l-287 336v26h78q49 0 81.5 13t52.5 34t28.5 47t8.5 52t-8.5 52.5t-29 47.5t-53 34t-80.5 13h-115v-655h-88v733h204zM188 980l98 -93l98 93h73
l-157 -175h-28l-157 175h73v0z" />
    <glyph glyph-name="Rcommaaccent" unicode="&#x156;" horiz-adv-x="637" 
d="M304 733q69 0 117.5 -18.5t80 -49.5t46 -72t14.5 -85q0 -40 -13 -77.5t-37.5 -67.5t-60 -50t-81.5 -26l257 -287h-115l-287 336v26h78q49 0 81.5 13t52.5 34t28.5 47t8.5 52t-8.5 52.5t-29 47.5t-53 34t-80.5 13h-115v-655h-88v733h204zM292 -45h96l-69 -222h-63z" />
    <glyph glyph-name="Sacute" unicode="&#x15a;" horiz-adv-x="526" 
d="M271 428q53 -24 95 -47.5t71 -51.5t44 -62.5t15 -80.5q0 -29 -14.5 -64t-46 -65t-80.5 -50.5t-118 -20.5q-48 0 -87.5 9t-68 20t-45 20.5t-16.5 10.5v105q10 -15 33.5 -30.5t53.5 -27.5t64 -19.5t66 -7.5q42 0 73.5 11.5t52.5 29.5t32 39.5t11 41.5q0 37 -16 62
t-40.5 43.5t-55.5 32l-61 27.5q-101 45 -152 94t-51 113q0 28 13 61t40.5 60.5t70 46t102.5 18.5q45 0 90 -11t85 -35v-107q-14 14 -28.5 27t-34.5 23.5t-46.5 16.5t-64.5 6t-64 -10.5t-43 -26.5t-24.5 -35t-7.5 -35q0 -25 15 -44.5t38 -35.5t49.5 -28.5t50.5 -22.5z
M261 804h-54l80 175h102l-128 -175v0z" />
    <glyph glyph-name="Scaron" unicode="&#x160;" horiz-adv-x="526" 
d="M271 428q53 -24 95 -47.5t71 -51.5t44 -62.5t15 -80.5q0 -29 -14.5 -64t-46 -65t-80.5 -50.5t-118 -20.5q-48 0 -87.5 9t-68 20t-45 20.5t-16.5 10.5v105q10 -15 33.5 -30.5t53.5 -27.5t64 -19.5t66 -7.5q42 0 73.5 11.5t52.5 29.5t32 39.5t11 41.5q0 37 -16 62
t-40.5 43.5t-55.5 32l-61 27.5q-101 45 -152 94t-51 113q0 28 13 61t40.5 60.5t70 46t102.5 18.5q45 0 90 -11t85 -35v-107q-14 14 -28.5 27t-34.5 23.5t-46.5 16.5t-64.5 6t-64 -10.5t-43 -26.5t-24.5 -35t-7.5 -35q0 -25 15 -44.5t38 -35.5t49.5 -28.5t50.5 -22.5z
M134 980l98 -93l98 93h73l-157 -175h-28l-157 175h73v0z" />
    <glyph glyph-name="Scedilla" unicode="&#x15e;" horiz-adv-x="526" 
d="M271 428q53 -24 95 -47.5t71 -51.5t44 -62.5t15 -80.5q0 -29 -14.5 -64t-46 -65t-80.5 -50.5t-118 -20.5q-48 0 -87.5 9t-68 20t-45 20.5t-16.5 10.5v105q10 -15 33.5 -30.5t53.5 -27.5t64 -19.5t66 -7.5q42 0 73.5 11.5t52.5 29.5t32 39.5t11 41.5q0 37 -16 62
t-40.5 43.5t-55.5 32l-61 27.5q-101 45 -152 94t-51 113q0 28 13 61t40.5 60.5t70 46t102.5 18.5q45 0 90 -11t85 -35v-107q-14 14 -28.5 27t-34.5 23.5t-46.5 16.5t-64.5 6t-64 -10.5t-43 -26.5t-24.5 -35t-7.5 -35q0 -25 15 -44.5t38 -35.5t49.5 -28.5t50.5 -22.5z
M250 -46q37 -5 58 -28t21 -49q0 -38 -26.5 -61.5t-67.5 -25.5q-18 -1 -46.5 3.5t-48.5 13.5v57q4 -5 22 -11.5t39 -9.5t39.5 1.5t24.5 22.5q4 12 -2 22t-18 17t-27 11t-28 4l23 80h50l-13 -47v0z" />
    <glyph glyph-name="Scircumflex" unicode="&#x15c;" horiz-adv-x="526" 
d="M271 428q53 -24 95 -47.5t71 -51.5t44 -62.5t15 -80.5q0 -29 -14.5 -64t-46 -65t-80.5 -50.5t-118 -20.5q-48 0 -87.5 9t-68 20t-45 20.5t-16.5 10.5v105q10 -15 33.5 -30.5t53.5 -27.5t64 -19.5t66 -7.5q42 0 73.5 11.5t52.5 29.5t32 39.5t11 41.5q0 37 -16 62
t-40.5 43.5t-55.5 32l-61 27.5q-101 45 -152 94t-51 113q0 28 13 61t40.5 60.5t70 46t102.5 18.5q45 0 90 -11t85 -35v-107q-14 14 -28.5 27t-34.5 23.5t-46.5 16.5t-64.5 6t-64 -10.5t-43 -26.5t-24.5 -35t-7.5 -35q0 -25 15 -44.5t38 -35.5t49.5 -28.5t50.5 -22.5z
M134 804h-73l157 175h28l157 -175h-73l-98 94l-98 -94v0z" />
    <glyph glyph-name="Scommaaccent" unicode="&#x218;" horiz-adv-x="526" 
d="M271 428q53 -24 95 -47.5t71 -51.5t44 -62.5t15 -80.5q0 -29 -14.5 -64t-46 -65t-80.5 -50.5t-118 -20.5q-48 0 -87.5 9t-68 20t-45 20.5t-16.5 10.5v105q10 -15 33.5 -30.5t53.5 -27.5t64 -19.5t66 -7.5q42 0 73.5 11.5t52.5 29.5t32 39.5t11 41.5q0 37 -16 62
t-40.5 43.5t-55.5 32l-61 27.5q-101 45 -152 94t-51 113q0 28 13 61t40.5 60.5t70 46t102.5 18.5q45 0 90 -11t85 -35v-107q-14 14 -28.5 27t-34.5 23.5t-46.5 16.5t-64.5 6t-64 -10.5t-43 -26.5t-24.5 -35t-7.5 -35q0 -25 15 -44.5t38 -35.5t49.5 -28.5t50.5 -22.5z
M195 -45h96l-69 -222h-63z" />
    <glyph glyph-name="Tcaron" unicode="&#x164;" horiz-adv-x="570" 
d="M560 733v-78h-231v-655h-89v655h-230v78h550v0zM187 980l98 -93l98 93h73l-157 -175h-28l-157 175h73v0z" />
    <glyph glyph-name="Uacute" unicode="&#xda;" horiz-adv-x="688" 
d="M618 733v-457q0 -72 -20.5 -126t-56.5 -90.5t-86.5 -55t-110.5 -18.5t-110.5 18.5t-86.5 54.5t-56.5 90t-20.5 126v458h88v-457q1 -97 50 -153.5t136 -56.5q88 0 136.5 56.5t48.5 153.5v457h89zM367 804h-54l80 175h102l-128 -175v0z" />
    <glyph glyph-name="Ubreve" unicode="&#x16c;" horiz-adv-x="688" 
d="M618 733v-457q0 -72 -20.5 -126t-56.5 -90.5t-86.5 -55t-110.5 -18.5t-110.5 18.5t-86.5 54.5t-56.5 90t-20.5 126v458h88v-457q1 -97 50 -153.5t136 -56.5q88 0 136.5 56.5t48.5 153.5v457h89zM506 935q-5 -29 -19.5 -53t-36 -41.5t-48.5 -27.5t-57 -10q-31 0 -58 10
t-49 27.5t-36.5 41.5t-19.5 53h74q8 -28 32 -46t55 -19q32 0 56.5 18t34.5 47h72z" />
    <glyph glyph-name="Ucircumflex" unicode="&#xdb;" horiz-adv-x="688" 
d="M618 733v-457q0 -72 -20.5 -126t-56.5 -90.5t-86.5 -55t-110.5 -18.5t-110.5 18.5t-86.5 54.5t-56.5 90t-20.5 126v458h88v-457q1 -97 50 -153.5t136 -56.5q88 0 136.5 56.5t48.5 153.5v457h89zM246 804h-73l157 175h28l157 -175h-73l-98 94l-98 -94v0z" />
    <glyph glyph-name="Udieresis" unicode="&#xdc;" horiz-adv-x="688" 
d="M618 733v-457q0 -72 -20.5 -126t-56.5 -90.5t-86.5 -55t-110.5 -18.5t-110.5 18.5t-86.5 54.5t-56.5 90t-20.5 126v458h88v-457q1 -97 50 -153.5t136 -56.5q88 0 136.5 56.5t48.5 153.5v457h89zM226 923q26 1 43.5 -16.5t17.5 -42.5q0 -23 -17.5 -40.5t-42.5 -18.5
q-24 0 -42.5 17.5t-18.5 41.5t17.5 41.5t42.5 17.5zM461 923q26 0 43 -17t17 -43q0 -24 -17.5 -41t-41.5 -18q-24 0 -43 18t-19 41q0 12 5 22.5t13.5 18.5t19.5 13.5t23 5.5z" />
    <glyph glyph-name="Ugrave" unicode="&#xd9;" horiz-adv-x="688" 
d="M618 733v-457q0 -72 -20.5 -126t-56.5 -90.5t-86.5 -55t-110.5 -18.5t-110.5 18.5t-86.5 54.5t-56.5 90t-20.5 126v458h88v-457q1 -97 50 -153.5t136 -56.5q88 0 136.5 56.5t48.5 153.5v457h89zM326 805l-127 175h101l81 -175h-55v0z" />
    <glyph glyph-name="Uhungarumlaut" unicode="&#x170;" horiz-adv-x="688" 
d="M618 733v-457q0 -72 -20.5 -126t-56.5 -90.5t-86.5 -55t-110.5 -18.5t-110.5 18.5t-86.5 54.5t-56.5 90t-20.5 126v458h88v-457q1 -97 50 -153.5t136 -56.5q88 0 136.5 56.5t48.5 153.5v457h89zM405 979l-128 -175h-54l81 175h101zM572 979l-128 -175h-54l81 175h101z
" />
    <glyph glyph-name="Umacron" unicode="&#x16a;" horiz-adv-x="688" 
d="M618 733v-457q0 -72 -20.5 -126t-56.5 -90.5t-86.5 -55t-110.5 -18.5t-110.5 18.5t-86.5 54.5t-56.5 90t-20.5 126v458h88v-457q1 -97 50 -153.5t136 -56.5q88 0 136.5 56.5t48.5 153.5v457h89zM487 828h-292v68h292v-68v0z" />
    <glyph glyph-name="Uogonek" unicode="&#x172;" horiz-adv-x="688" 
d="M618 733v-457q0 -72 -20.5 -126t-56.5 -90.5t-86.5 -55t-110.5 -18.5t-110.5 18.5t-86.5 54.5t-56.5 90t-20.5 126v458h88v-457q1 -97 50 -153.5t136 -56.5q88 0 136.5 56.5t48.5 153.5v457h89zM312 -104q0 -26 19 -35t42 -9q26 0 61 9v-60q-52 -12 -92 -8q-17 1 -33.5 6
t-29.5 15.5t-20.5 27t-7.5 40.5t13 53t47 65h81q-22 -13 -40 -30q-15 -14 -27.5 -33t-12.5 -41z" />
    <glyph glyph-name="Uring" unicode="&#x16e;" horiz-adv-x="688" 
d="M618 733v-457q0 -72 -20.5 -126t-56.5 -90.5t-86.5 -55t-110.5 -18.5t-110.5 18.5t-86.5 54.5t-56.5 90t-20.5 126v458h88v-457q1 -97 50 -153.5t136 -56.5q88 0 136.5 56.5t48.5 153.5v457h89zM343 775q-26 0 -48 9t-38 25t-25.5 37.5t-9.5 46.5q0 24 9 45.5t25.5 37.5
t39 25.5t47.5 9.5q26 0 48.5 -9.5t39 -25.5t26 -37.5t9.5 -46.5t-10 -46.5t-26.5 -37t-39 -24.5t-47.5 -9zM345 948q-25 0 -40.5 -15t-15.5 -40q0 -24 15.5 -39.5t39.5 -15.5q23 0 38.5 15.5t16.5 38.5t-15 39.5t-39 16.5z" />
    <glyph glyph-name="Utilde" unicode="&#x168;" horiz-adv-x="688" 
d="M618 733v-457q0 -72 -20.5 -126t-56.5 -90.5t-86.5 -55t-110.5 -18.5t-110.5 18.5t-86.5 54.5t-56.5 90t-20.5 126v458h88v-457q1 -97 50 -153.5t136 -56.5q88 0 136.5 56.5t48.5 153.5v457h89zM416 870q14 0 32.5 8t41.5 21v-70q-12 -7 -26 -12q-12 -5 -24 -8.5
t-26 -3.5q-18 0 -36 6t-37 15q-16 8 -30 16.5t-36 8.5q-27 0 -44.5 -13l-32.5 -24v77q17 10 36.5 16.5t41.5 6.5q16 0 34.5 -6t40.5 -16q20 -10 36.5 -16t28.5 -6z" />
    <glyph glyph-name="Wacute" unicode="&#x1e82;" horiz-adv-x="984" 
d="M881 733h93l-241 -747h-27l-214 555l-214 -555h-26l-242 747h93l168 -538l208 551h26l208 -551l168 538v0zM519 804h-54l80 175h102l-128 -175v0z" />
    <glyph glyph-name="Wcircumflex" unicode="&#x174;" horiz-adv-x="984" 
d="M881 733h93l-241 -747h-27l-214 555l-214 -555h-26l-242 747h93l168 -538l208 551h26l208 -551l168 538v0zM394 804h-73l157 175h28l157 -175h-73l-98 94l-98 -94v0z" />
    <glyph glyph-name="Wdieresis" unicode="&#x1e84;" horiz-adv-x="984" 
d="M881 733h93l-241 -747h-27l-214 555l-214 -555h-26l-242 747h93l168 -538l208 551h26l208 -551l168 538v0zM374 923q26 1 43.5 -16.5t17.5 -42.5q0 -23 -17.5 -40.5t-42.5 -18.5q-24 0 -42.5 17.5t-18.5 41.5t17.5 41.5t42.5 17.5zM609 923q26 0 43 -17t17 -43
q0 -24 -17.5 -41t-41.5 -18q-24 0 -43 18t-19 41q0 12 5 22.5t13.5 18.5t19.5 13.5t23 5.5z" />
    <glyph glyph-name="Wgrave" unicode="&#x1e80;" horiz-adv-x="984" 
d="M881 733h93l-241 -747h-27l-214 555l-214 -555h-26l-242 747h93l168 -538l208 551h26l208 -551l168 538v0zM465 805l-127 175h101l81 -175h-55v0z" />
    <glyph glyph-name="Yacute" unicode="&#xdd;" horiz-adv-x="600" 
d="M590 732l-246 -417v-314h-88v314l-246 417h102l188 -329l188 329h102v0zM325 804h-54l80 175h102l-128 -175v0z" />
    <glyph glyph-name="Ycircumflex" unicode="&#x176;" horiz-adv-x="600" 
d="M590 732l-246 -417v-314h-88v314l-246 417h102l188 -329l188 329h102v0zM202 804h-73l157 175h28l157 -175h-73l-98 94l-98 -94v0z" />
    <glyph glyph-name="Ydieresis" unicode="&#x178;" horiz-adv-x="600" 
d="M590 732l-246 -417v-314h-88v314l-246 417h102l188 -329l188 329h102v0zM182 923q26 1 43.5 -16.5t17.5 -42.5q0 -23 -17.5 -40.5t-42.5 -18.5q-24 0 -42.5 17.5t-18.5 41.5t17.5 41.5t42.5 17.5zM417 923q26 0 43 -17t17 -43q0 -24 -17.5 -41t-41.5 -18q-24 0 -43 18
t-19 41q0 12 5 22.5t13.5 18.5t19.5 13.5t23 5.5z" />
    <glyph glyph-name="Ygrave" unicode="&#x1ef2;" horiz-adv-x="600" 
d="M590 732l-246 -417v-314h-88v314l-246 417h102l188 -329l188 329h102v0zM277 805l-127 175h101l81 -175h-55v0z" />
    <glyph glyph-name="Zacute" unicode="&#x179;" horiz-adv-x="600" 
d="M574 707l-422 -630h438v-78h-580v25l423 631h-369v77l510 1v-26v0zM323 804h-54l80 175h102l-128 -175v0z" />
    <glyph glyph-name="Zcaron" unicode="&#x17d;" horiz-adv-x="600" 
d="M574 707l-422 -630h438v-78h-580v25l423 631h-369v77l510 1v-26v0zM202 980l98 -93l98 93h73l-157 -175h-28l-157 175h73v0z" />
    <glyph glyph-name="Zdotaccent" unicode="&#x17b;" horiz-adv-x="600" 
d="M574 707l-422 -630h438v-78h-580v25l423 631h-369v77l510 1v-26v0zM299 921q26 1 43.5 -16.5t17.5 -42.5q0 -23 -17.5 -40.5t-42.5 -18.5q-24 0 -42.5 17.5t-18.5 41.5t17.5 41.5t42.5 17.5z" />
    <glyph glyph-name="aacute" unicode="&#xe1;" horiz-adv-x="689" 
d="M609 549v-550h-83v88q-16 -23 -39 -41.5t-50 -32t-57 -21t-60 -7.5q-60 0 -113 23t-92 62t-62 92t-23 113t23 112.5t62 92t92 62t113 22.5q30 0 60.5 -8t58 -21.5t50.5 -32.5t37 -40v87h83zM320 61q44 0 81.5 17t65 46t43 68t15.5 83t-15.5 83t-43 68t-65 46t-81.5 17
q-45 0 -82.5 -17t-65.5 -46t-43.5 -68t-15.5 -83t15.5 -83t43.5 -68t65.5 -46t82.5 -17zM345 621h-54l80 175h102l-128 -175v0z" />
    <glyph glyph-name="abreve" unicode="&#x103;" horiz-adv-x="689" 
d="M609 549v-550h-83v88q-16 -23 -39 -41.5t-50 -32t-57 -21t-60 -7.5q-60 0 -113 23t-92 62t-62 92t-23 113t23 112.5t62 92t92 62t113 22.5q30 0 60.5 -8t58 -21.5t50.5 -32.5t37 -40v87h83zM320 61q44 0 81.5 17t65 46t43 68t15.5 83t-15.5 83t-43 68t-65 46t-81.5 17
q-45 0 -82.5 -17t-65.5 -46t-43.5 -68t-15.5 -83t15.5 -83t43.5 -68t65.5 -46t82.5 -17zM506 752q-5 -29 -19.5 -53t-36 -41.5t-48.5 -27.5t-57 -10q-31 0 -58 10t-49 27.5t-36.5 41.5t-19.5 53h74q8 -28 32 -46t55 -19q32 0 56.5 18t34.5 47h72z" />
    <glyph glyph-name="acircumflex" unicode="&#xe2;" horiz-adv-x="689" 
d="M609 549v-550h-83v88q-16 -23 -39 -41.5t-50 -32t-57 -21t-60 -7.5q-60 0 -113 23t-92 62t-62 92t-23 113t23 112.5t62 92t92 62t113 22.5q30 0 60.5 -8t58 -21.5t50.5 -32.5t37 -40v87h83zM320 61q44 0 81.5 17t65 46t43 68t15.5 83t-15.5 83t-43 68t-65 46t-81.5 17
q-45 0 -82.5 -17t-65.5 -46t-43.5 -68t-15.5 -83t15.5 -83t43.5 -68t65.5 -46t82.5 -17zM246 621h-73l157 175h28l157 -175h-73l-98 94l-98 -94v0z" />
    <glyph glyph-name="adieresis" unicode="&#xe4;" horiz-adv-x="689" 
d="M609 549v-550h-83v88q-16 -23 -39 -41.5t-50 -32t-57 -21t-60 -7.5q-60 0 -113 23t-92 62t-62 92t-23 113t23 112.5t62 92t92 62t113 22.5q30 0 60.5 -8t58 -21.5t50.5 -32.5t37 -40v87h83zM320 61q44 0 81.5 17t65 46t43 68t15.5 83t-15.5 83t-43 68t-65 46t-81.5 17
q-45 0 -82.5 -17t-65.5 -46t-43.5 -68t-15.5 -83t15.5 -83t43.5 -68t65.5 -46t82.5 -17zM227 740q26 1 43.5 -16.5t17.5 -42.5q0 -23 -17.5 -40.5t-42.5 -18.5q-24 0 -42.5 17.5t-18.5 41.5t17.5 41.5t42.5 17.5zM462 740q26 0 43 -17t17 -43q0 -24 -17.5 -41t-41.5 -18
q-24 0 -43 18t-19 41q0 12 5 22.5t13.5 18.5t19.5 13.5t23 5.5z" />
    <glyph glyph-name="agrave" unicode="&#xe0;" horiz-adv-x="689" 
d="M609 549v-550h-83v88q-16 -23 -39 -41.5t-50 -32t-57 -21t-60 -7.5q-60 0 -113 23t-92 62t-62 92t-23 113t23 112.5t62 92t92 62t113 22.5q30 0 60.5 -8t58 -21.5t50.5 -32.5t37 -40v87h83zM320 61q44 0 81.5 17t65 46t43 68t15.5 83t-15.5 83t-43 68t-65 46t-81.5 17
q-45 0 -82.5 -17t-65.5 -46t-43.5 -68t-15.5 -83t15.5 -83t43.5 -68t65.5 -46t82.5 -17zM304 622l-127 175h101l81 -175h-55v0z" />
    <glyph glyph-name="amacron" unicode="&#x101;" horiz-adv-x="689" 
d="M609 549v-550h-83v88q-16 -23 -39 -41.5t-50 -32t-57 -21t-60 -7.5q-60 0 -113 23t-92 62t-62 92t-23 113t23 112.5t62 92t92 62t113 22.5q30 0 60.5 -8t58 -21.5t50.5 -32.5t37 -40v87h83zM320 61q44 0 81.5 17t65 46t43 68t15.5 83t-15.5 83t-43 68t-65 46t-81.5 17
q-45 0 -82.5 -17t-65.5 -46t-43.5 -68t-15.5 -83t15.5 -83t43.5 -68t65.5 -46t82.5 -17zM487 645h-292v68h292v-68v0z" />
    <glyph glyph-name="aogonek" unicode="&#x105;" horiz-adv-x="689" 
d="M609 549v-550h-83v88q-16 -23 -39 -41.5t-50 -32t-57 -21t-60 -7.5q-60 0 -113 23t-92 62t-62 92t-23 113t23 112.5t62 92t92 62t113 22.5q30 0 60.5 -8t58 -21.5t50.5 -32.5t37 -40v87h83zM320 61q44 0 81.5 17t65 46t43 68t15.5 83t-15.5 83t-43 68t-65 46t-81.5 17
q-45 0 -82.5 -17t-65.5 -46t-43.5 -68t-15.5 -83t15.5 -83t43.5 -68t65.5 -46t82.5 -17zM527 -104q0 -26 19 -35t42 -9q26 0 61 9v-60q-52 -12 -92 -8q-17 1 -33.5 6t-29.5 15.5t-20.5 27t-7.5 40.5t13 53t47 65h81q-22 -13 -40 -30q-15 -14 -27.5 -33t-12.5 -41z" />
    <glyph glyph-name="aring" unicode="&#xe5;" horiz-adv-x="689" 
d="M609 549v-550h-83v88q-16 -23 -39 -41.5t-50 -32t-57 -21t-60 -7.5q-60 0 -113 23t-92 62t-62 92t-23 113t23 112.5t62 92t92 62t113 22.5q30 0 60.5 -8t58 -21.5t50.5 -32.5t37 -40v87h83zM320 61q44 0 81.5 17t65 46t43 68t15.5 83t-15.5 83t-43 68t-65 46t-81.5 17
q-45 0 -82.5 -17t-65.5 -46t-43.5 -68t-15.5 -83t15.5 -83t43.5 -68t65.5 -46t82.5 -17zM343 592q-26 0 -48 9t-38 25t-25.5 37.5t-9.5 46.5q0 24 9 45.5t25.5 37.5t39 25.5t47.5 9.5q26 0 48.5 -9.5t39 -25.5t26 -37.5t9.5 -46.5t-10 -46.5t-26.5 -37t-39 -24.5t-47.5 -9z
M345 765q-25 0 -40.5 -15t-15.5 -40q0 -24 15.5 -39.5t39.5 -15.5q23 0 38.5 15.5t16.5 38.5t-15 39.5t-39 16.5z" />
    <glyph glyph-name="atilde" unicode="&#xe3;" horiz-adv-x="689" 
d="M609 549v-550h-83v88q-16 -23 -39 -41.5t-50 -32t-57 -21t-60 -7.5q-60 0 -113 23t-92 62t-62 92t-23 113t23 112.5t62 92t92 62t113 22.5q30 0 60.5 -8t58 -21.5t50.5 -32.5t37 -40v87h83zM320 61q44 0 81.5 17t65 46t43 68t15.5 83t-15.5 83t-43 68t-65 46t-81.5 17
q-45 0 -82.5 -17t-65.5 -46t-43.5 -68t-15.5 -83t15.5 -83t43.5 -68t65.5 -46t82.5 -17zM416 687q14 0 32.5 8t41.5 21v-70q-12 -7 -26 -12q-12 -5 -24 -8.5t-26 -3.5q-18 0 -36 6t-37 15q-16 8 -30 16.5t-36 8.5q-27 0 -44.5 -13l-32.5 -24v77q17 10 36.5 16.5t41.5 6.5
q16 0 34.5 -6t40.5 -16q20 -10 36.5 -16t28.5 -6z" />
    <glyph glyph-name="cacute" unicode="&#x107;" horiz-adv-x="559" 
d="M332 489q-45 0 -85 -17t-70 -46t-47.5 -68t-17.5 -84q0 -44 17.5 -83t47.5 -68t70 -46t85 -17q53 0 90 15t61 33q28 21 46 49v-107q-24 -19 -54 -33q-26 -12 -62 -22t-81 -10q-51 0 -104.5 20t-97.5 57.5t-72 91t-28 121.5q0 52 22 103.5t62 93t95.5 67.5t122.5 26
q45 0 81 -10.5t62 -22.5q30 -14 54 -32v-107q-19 27 -47 48q-24 18 -61.5 33t-88.5 15zM324 614h-54l80 175h102l-128 -175v0z" />
    <glyph glyph-name="ccaron" unicode="&#x10d;" horiz-adv-x="559" 
d="M332 489q-45 0 -85 -17t-70 -46t-47.5 -68t-17.5 -84q0 -44 17.5 -83t47.5 -68t70 -46t85 -17q53 0 90 15t61 33q28 21 46 49v-107q-24 -19 -54 -33q-26 -12 -62 -22t-81 -10q-51 0 -104.5 20t-97.5 57.5t-72 91t-28 121.5q0 52 22 103.5t62 93t95.5 67.5t122.5 26
q45 0 81 -10.5t62 -22.5q30 -14 54 -32v-107q-19 27 -47 48q-24 18 -61.5 33t-88.5 15zM223 797l98 -93l98 93h73l-157 -175h-28l-157 175h73v0z" />
    <glyph glyph-name="ccedilla" unicode="&#xe7;" horiz-adv-x="559" 
d="M332 489q-45 0 -85 -17t-70 -46t-47.5 -68t-17.5 -84q0 -44 17.5 -83t47.5 -68t70 -46t85 -17q53 0 90 15t61 33q28 21 46 49v-107q-24 -19 -54 -33q-26 -12 -62 -22t-81 -10q-51 0 -104.5 20t-97.5 57.5t-72 91t-28 121.5q0 52 22 103.5t62 93t95.5 67.5t122.5 26
q45 0 81 -10.5t62 -22.5q30 -14 54 -32v-107q-19 27 -47 48q-24 18 -61.5 33t-88.5 15zM337 -46q37 -5 58 -28t21 -49q0 -38 -26.5 -61.5t-67.5 -25.5q-18 -1 -46.5 3.5t-48.5 13.5v57q4 -5 22 -11.5t39 -9.5t39.5 1.5t24.5 22.5q4 12 -2 22t-18 17t-27 11t-28 4l23 80h50
l-13 -47v0z" />
    <glyph glyph-name="ccircumflex" unicode="&#x109;" horiz-adv-x="559" 
d="M332 489q-45 0 -85 -17t-70 -46t-47.5 -68t-17.5 -84q0 -44 17.5 -83t47.5 -68t70 -46t85 -17q53 0 90 15t61 33q28 21 46 49v-107q-24 -19 -54 -33q-26 -12 -62 -22t-81 -10q-51 0 -104.5 20t-97.5 57.5t-72 91t-28 121.5q0 52 22 103.5t62 93t95.5 67.5t122.5 26
q45 0 81 -10.5t62 -22.5q30 -14 54 -32v-107q-19 27 -47 48q-24 18 -61.5 33t-88.5 15zM222 621h-73l157 175h28l157 -175h-73l-98 94l-98 -94v0z" />
    <glyph glyph-name="cdotaccent" unicode="&#x10b;" horiz-adv-x="559" 
d="M332 489q-45 0 -85 -17t-70 -46t-47.5 -68t-17.5 -84q0 -44 17.5 -83t47.5 -68t70 -46t85 -17q53 0 90 15t61 33q28 21 46 49v-107q-24 -19 -54 -33q-26 -12 -62 -22t-81 -10q-51 0 -104.5 20t-97.5 57.5t-72 91t-28 121.5q0 52 22 103.5t62 93t95.5 67.5t122.5 26
q45 0 81 -10.5t62 -22.5q30 -14 54 -32v-107q-19 27 -47 48q-24 18 -61.5 33t-88.5 15zM318 738q26 1 43.5 -16.5t17.5 -42.5q0 -23 -17.5 -40.5t-42.5 -18.5q-24 0 -42.5 17.5t-18.5 41.5t17.5 41.5t42.5 17.5z" />
    <glyph glyph-name="dcaron" unicode="&#x10f;" horiz-adv-x="809" 
d="M609 774v-773h-83v88q-16 -23 -39 -41.5t-50 -32t-57 -21t-60 -7.5q-60 0 -113 23t-92 62t-62 92t-23 113t23 112.5t62 92t92 62t113 22.5q30 0 60.5 -8t58 -21.5t50.5 -32.5t37 -40v310h83zM320 63q44 0 81.5 16.5t65 45.5t43 68t15.5 84q0 44 -15.5 83t-43 68t-65 45.5
t-81.5 16.5q-45 0 -82.5 -16.5t-65.5 -45.5t-43.5 -68t-15.5 -83q0 -45 15.5 -84t43.5 -68t65.5 -45.5t82.5 -16.5zM706 772h96l-69 -222h-63z" />
    <glyph glyph-name="dcroat" unicode="&#x111;" horiz-adv-x="689" 
d="M609 774v-773h-83v88q-16 -23 -39 -41.5t-50 -32t-57 -21t-60 -7.5q-60 0 -113 23t-92 62t-62 92t-23 113t23 112.5t62 92t92 62t113 22.5q30 0 60.5 -8t58 -21.5t50.5 -32.5t37 -40v310h83zM320 63q44 0 81.5 16.5t65 45.5t43 68t15.5 84q0 44 -15.5 83t-43 68t-65 45.5
t-81.5 16.5q-45 0 -82.5 -16.5t-65.5 -45.5t-43.5 -68t-15.5 -83q0 -45 15.5 -84t43.5 -68t65.5 -45.5t82.5 -16.5zM404.257 694.325h285v-88h-285v88v0z" />
    <glyph glyph-name="eacute" unicode="&#xe9;" 
d="M320 566q60 0 112.5 -22.5t92 -62t62 -92t22.5 -112.5v-22h-495q4 -41 22 -76t47 -60.5t68.5 -40.5t85.5 -15q29 0 57.5 4t57 16t57 33.5t58.5 56.5v-100q-29 -27 -62 -44t-64 -26.5t-58.5 -12.5t-45.5 -3q-69 0 -125.5 23t-97 62t-62.5 92t-22 113t23 112.5t62 92t92 62
t113 22.5zM320 491q-38 0 -70.5 -12t-59 -33.5t-44.5 -51t-27 -63.5h400q-8 34 -26.5 63.5t-44.5 51t-58.5 33.5t-69.5 12zM337 621h-54l80 175h102l-128 -175v0z" />
    <glyph glyph-name="ebreve" unicode="&#x115;" 
d="M320 566q60 0 112.5 -22.5t92 -62t62 -92t22.5 -112.5v-22h-495q4 -41 22 -76t47 -60.5t68.5 -40.5t85.5 -15q29 0 57.5 4t57 16t57 33.5t58.5 56.5v-100q-29 -27 -62 -44t-64 -26.5t-58.5 -12.5t-45.5 -3q-69 0 -125.5 23t-97 62t-62.5 92t-22 113t23 112.5t62 92t92 62
t113 22.5zM320 491q-38 0 -70.5 -12t-59 -33.5t-44.5 -51t-27 -63.5h400q-8 34 -26.5 63.5t-44.5 51t-58.5 33.5t-69.5 12zM481 752q-5 -29 -19.5 -53t-36 -41.5t-48.5 -27.5t-57 -10q-31 0 -58 10t-49 27.5t-36.5 41.5t-19.5 53h74q8 -28 32 -46t55 -19q32 0 56.5 18
t34.5 47h72z" />
    <glyph glyph-name="ecaron" unicode="&#x11b;" 
d="M320 566q60 0 112.5 -22.5t92 -62t62 -92t22.5 -112.5v-22h-495q4 -41 22 -76t47 -60.5t68.5 -40.5t85.5 -15q29 0 57.5 4t57 16t57 33.5t58.5 56.5v-100q-29 -27 -62 -44t-64 -26.5t-58.5 -12.5t-45.5 -3q-69 0 -125.5 23t-97 62t-62.5 92t-22 113t23 112.5t62 92t92 62
t113 22.5zM320 491q-38 0 -70.5 -12t-59 -33.5t-44.5 -51t-27 -63.5h400q-8 34 -26.5 63.5t-44.5 51t-58.5 33.5t-69.5 12zM221 797l98 -93l98 93h73l-157 -175h-28l-157 175h73v0z" />
    <glyph glyph-name="ecircumflex" unicode="&#xea;" 
d="M320 566q60 0 112.5 -22.5t92 -62t62 -92t22.5 -112.5v-22h-495q4 -41 22 -76t47 -60.5t68.5 -40.5t85.5 -15q29 0 57.5 4t57 16t57 33.5t58.5 56.5v-100q-29 -27 -62 -44t-64 -26.5t-58.5 -12.5t-45.5 -3q-69 0 -125.5 23t-97 62t-62.5 92t-22 113t23 112.5t62 92t92 62
t113 22.5zM320 491q-38 0 -70.5 -12t-59 -33.5t-44.5 -51t-27 -63.5h400q-8 34 -26.5 63.5t-44.5 51t-58.5 33.5t-69.5 12zM221 621h-73l157 175h28l157 -175h-73l-98 94l-98 -94v0z" />
    <glyph glyph-name="edieresis" unicode="&#xeb;" 
d="M320 566q60 0 112.5 -22.5t92 -62t62 -92t22.5 -112.5v-22h-495q4 -41 22 -76t47 -60.5t68.5 -40.5t85.5 -15q29 0 57.5 4t57 16t57 33.5t58.5 56.5v-100q-29 -27 -62 -44t-64 -26.5t-58.5 -12.5t-45.5 -3q-69 0 -125.5 23t-97 62t-62.5 92t-22 113t23 112.5t62 92t92 62
t113 22.5zM320 491q-38 0 -70.5 -12t-59 -33.5t-44.5 -51t-27 -63.5h400q-8 34 -26.5 63.5t-44.5 51t-58.5 33.5t-69.5 12zM202 740q26 1 43.5 -16.5t17.5 -42.5q0 -23 -17.5 -40.5t-42.5 -18.5q-24 0 -42.5 17.5t-18.5 41.5t17.5 41.5t42.5 17.5zM437 740q26 0 43 -17
t17 -43q0 -24 -17.5 -41t-41.5 -18q-24 0 -43 18t-19 41q0 12 5 22.5t13.5 18.5t19.5 13.5t23 5.5z" />
    <glyph glyph-name="edotaccent" unicode="&#x117;" 
d="M320 566q60 0 112.5 -22.5t92 -62t62 -92t22.5 -112.5v-22h-495q4 -41 22 -76t47 -60.5t68.5 -40.5t85.5 -15q29 0 57.5 4t57 16t57 33.5t58.5 56.5v-100q-29 -27 -62 -44t-64 -26.5t-58.5 -12.5t-45.5 -3q-69 0 -125.5 23t-97 62t-62.5 92t-22 113t23 112.5t62 92t92 62
t113 22.5zM320 491q-38 0 -70.5 -12t-59 -33.5t-44.5 -51t-27 -63.5h400q-8 34 -26.5 63.5t-44.5 51t-58.5 33.5t-69.5 12zM319 738q26 1 43.5 -16.5t17.5 -42.5q0 -23 -17.5 -40.5t-42.5 -18.5q-24 0 -42.5 17.5t-18.5 41.5t17.5 41.5t42.5 17.5z" />
    <glyph glyph-name="egrave" unicode="&#xe8;" 
d="M320 566q60 0 112.5 -22.5t92 -62t62 -92t22.5 -112.5v-22h-495q4 -41 22 -76t47 -60.5t68.5 -40.5t85.5 -15q29 0 57.5 4t57 16t57 33.5t58.5 56.5v-100q-29 -27 -62 -44t-64 -26.5t-58.5 -12.5t-45.5 -3q-69 0 -125.5 23t-97 62t-62.5 92t-22 113t23 112.5t62 92t92 62
t113 22.5zM320 491q-38 0 -70.5 -12t-59 -33.5t-44.5 -51t-27 -63.5h400q-8 34 -26.5 63.5t-44.5 51t-58.5 33.5t-69.5 12zM299 622l-127 175h101l81 -175h-55v0z" />
    <glyph glyph-name="emacron" unicode="&#x113;" 
d="M320 566q60 0 112.5 -22.5t92 -62t62 -92t22.5 -112.5v-22h-495q4 -41 22 -76t47 -60.5t68.5 -40.5t85.5 -15q29 0 57.5 4t57 16t57 33.5t58.5 56.5v-100q-29 -27 -62 -44t-64 -26.5t-58.5 -12.5t-45.5 -3q-69 0 -125.5 23t-97 62t-62.5 92t-22 113t23 112.5t62 92t92 62
t113 22.5zM320 491q-38 0 -70.5 -12t-59 -33.5t-44.5 -51t-27 -63.5h400q-8 34 -26.5 63.5t-44.5 51t-58.5 33.5t-69.5 12zM462 645h-292v68h292v-68v0z" />
    <glyph glyph-name="eogonek" unicode="&#x119;" 
d="M320 566q60 0 112.5 -22.5t92 -62t62 -92t22.5 -112.5v-22h-495q4 -41 22 -76t47 -60.5t68.5 -40.5t85.5 -15q29 0 57.5 4t57 16t57 33.5t58.5 56.5v-100q-29 -27 -62 -44t-64 -26.5t-58.5 -12.5t-45.5 -3q-69 0 -125.5 23t-97 62t-62.5 92t-22 113t23 112.5t62 92t92 62
t113 22.5zM320 491q-38 0 -70.5 -12t-59 -33.5t-44.5 -51t-27 -63.5h400q-8 34 -26.5 63.5t-44.5 51t-58.5 33.5t-69.5 12zM357 -104q0 -26 19 -35t42 -9q26 0 61 9v-60q-52 -12 -92 -8q-17 1 -33.5 6t-29.5 15.5t-20.5 27t-7.5 40.5t13 53t47 65h81q-22 -13 -40 -30
q-15 -14 -27.5 -33t-12.5 -41z" />
    <glyph glyph-name="ff" unicode="&#xfb00;" horiz-adv-x="658" 
d="M324 695q-37 12 -61.5 8t-39 -18.5t-20.5 -37.5t-6 -48v-48h127v-76h-127v-477h-84v477h-83v76h83v48q0 45 10 81t34 59t64.5 31.5t102.5 -1.5v-74v0zM653 695q-37 12 -61.5 8t-39 -18.5t-20.5 -37.5t-6 -48v-48h127v-76h-127v-477h-84v477h-83v76h83v48q0 45 10 81
t34 59t64.5 31.5t102.5 -1.5v-74v0z" />
    <glyph glyph-name="ffi" unicode="&#xfb03;" horiz-adv-x="944" 
d="M324 695q-37 12 -61.5 8t-39 -18.5t-20.5 -37.5t-6 -48v-48h127v-76h-127v-477h-84v477h-83v76h83v48q0 45 10 81t34 59t64.5 31.5t102.5 -1.5v-74v0zM653 695q-37 12 -61.5 8t-39 -18.5t-20.5 -37.5t-6 -48v-48h127v-76h-127v-477h-84v477h-83v76h83v48q0 45 10 81
t34 59t64.5 31.5t102.5 -1.5v-74v0zM759 551h84v-551h-84v551zM801 784q26 0 44.5 -18.5t18.5 -44.5t-18.5 -44t-44.5 -18t-44.5 18t-18.5 44t18.5 44.5t44.5 18.5z" />
    <glyph glyph-name="ffl" unicode="&#xfb04;" horiz-adv-x="901" 
d="M324 695q-37 12 -61.5 8t-39 -18.5t-20.5 -37.5t-6 -48v-48h127v-76h-127v-477h-84v477h-83v76h83v48q0 45 10 81t34 59t64.5 31.5t102.5 -1.5v-74v0zM653 695q-37 12 -61.5 8t-39 -18.5t-20.5 -37.5t-6 -48v-48h127v-76h-127v-477h-84v477h-83v76h83v48q0 45 10 81
t34 59t64.5 31.5t102.5 -1.5v-74v0zM821 0h-83v773h83v-773v0z" />
    <glyph glyph-name="fi" unicode="&#xfb01;" horiz-adv-x="615" 
d="M324 695q-37 12 -61.5 8t-39 -18.5t-20.5 -37.5t-6 -48v-48h127v-76h-127v-477h-84v477h-83v76h83v48q0 45 10 81t34 59t64.5 31.5t102.5 -1.5v-74v0zM430 551h84v-551h-84v551zM472 784q26 0 44.5 -18.5t18.5 -44.5t-18.5 -44t-44.5 -18t-44.5 18t-18.5 44t18.5 44.5
t44.5 18.5z" />
    <glyph glyph-name="fl" unicode="&#xfb02;" horiz-adv-x="572" 
d="M324 695q-37 12 -61.5 8t-39 -18.5t-20.5 -37.5t-6 -48v-48h127v-76h-127v-477h-84v477h-83v76h83v48q0 45 10 81t34 59t64.5 31.5t102.5 -1.5v-74v0zM492 0h-83v773h83v-773v0z" />
    <glyph glyph-name="gbreve" unicode="&#x11f;" horiz-adv-x="679" 
d="M609 550v-483q0 -72 -22 -127.5t-62.5 -92.5t-97 -56t-124.5 -19q-19 0 -46.5 3t-58.5 12.5t-64 26.5t-62 44v100q30 -35 59 -56.5t57.5 -33.5t57 -16t57.5 -4q49 0 90 13.5t70.5 41t46 68.5t16.5 96v34q-16 -23 -39 -41.5t-50 -32t-57 -21t-60 -7.5q-60 0 -113 22
t-92 60t-62 90t-23 112t23 111.5t62 89.5t92 59.5t113 21.5q30 0 60.5 -8t58 -21.5t50.5 -32.5t37 -40v87h83zM320 75q44 0 82 16t65.5 44t43 66t15.5 82t-15.5 82t-43 65.5t-65.5 43.5t-82 16t-82 -16t-66 -43.5t-43.5 -65.5t-15.5 -82t15.5 -82t43.5 -66t66 -44t82 -16z
M501 752q-5 -29 -19.5 -53t-36 -41.5t-48.5 -27.5t-57 -10q-31 0 -58 10t-49 27.5t-36.5 41.5t-19.5 53h74q8 -28 32 -46t55 -19q32 0 56.5 18t34.5 47h72z" />
    <glyph glyph-name="gcircumflex" unicode="&#x11d;" horiz-adv-x="679" 
d="M609 550v-483q0 -72 -22 -127.5t-62.5 -92.5t-97 -56t-124.5 -19q-19 0 -46.5 3t-58.5 12.5t-64 26.5t-62 44v100q30 -35 59 -56.5t57.5 -33.5t57 -16t57.5 -4q49 0 90 13.5t70.5 41t46 68.5t16.5 96v34q-16 -23 -39 -41.5t-50 -32t-57 -21t-60 -7.5q-60 0 -113 22
t-92 60t-62 90t-23 112t23 111.5t62 89.5t92 59.5t113 21.5q30 0 60.5 -8t58 -21.5t50.5 -32.5t37 -40v87h83zM320 75q44 0 82 16t65.5 44t43 66t15.5 82t-15.5 82t-43 65.5t-65.5 43.5t-82 16t-82 -16t-66 -43.5t-43.5 -65.5t-15.5 -82t15.5 -82t43.5 -66t66 -44t82 -16z
M241 621h-73l157 175h28l157 -175h-73l-98 94l-98 -94v0z" />
    <glyph glyph-name="gcommaaccent" unicode="&#x123;" horiz-adv-x="679" 
d="M609 550v-483q0 -72 -22 -127.5t-62.5 -92.5t-97 -56t-124.5 -19q-19 0 -46.5 3t-58.5 12.5t-64 26.5t-62 44v100q30 -35 59 -56.5t57.5 -33.5t57 -16t57.5 -4q49 0 90 13.5t70.5 41t46 68.5t16.5 96v34q-16 -23 -39 -41.5t-50 -32t-57 -21t-60 -7.5q-60 0 -113 22
t-92 60t-62 90t-23 112t23 111.5t62 89.5t92 59.5t113 21.5q30 0 60.5 -8t58 -21.5t50.5 -32.5t37 -40v87h83zM320 75q44 0 82 16t65.5 44t43 66t15.5 82t-15.5 82t-43 65.5t-65.5 43.5t-82 16t-82 -16t-66 -43.5t-43.5 -65.5t-15.5 -82t15.5 -82t43.5 -66t66 -44t82 -16z
M273 626l69 222h63l-37 -222h-95z" />
    <glyph glyph-name="gdotaccent" unicode="&#x121;" horiz-adv-x="679" 
d="M609 550v-483q0 -72 -22 -127.5t-62.5 -92.5t-97 -56t-124.5 -19q-19 0 -46.5 3t-58.5 12.5t-64 26.5t-62 44v100q30 -35 59 -56.5t57.5 -33.5t57 -16t57.5 -4q49 0 90 13.5t70.5 41t46 68.5t16.5 96v34q-16 -23 -39 -41.5t-50 -32t-57 -21t-60 -7.5q-60 0 -113 22
t-92 60t-62 90t-23 112t23 111.5t62 89.5t92 59.5t113 21.5q30 0 60.5 -8t58 -21.5t50.5 -32.5t37 -40v87h83zM320 75q44 0 82 16t65.5 44t43 66t15.5 82t-15.5 82t-43 65.5t-65.5 43.5t-82 16t-82 -16t-66 -43.5t-43.5 -65.5t-15.5 -82t15.5 -82t43.5 -66t66 -44t82 -16z
M339 738q26 1 43.5 -16.5t17.5 -42.5q0 -23 -17.5 -40.5t-42.5 -18.5q-24 0 -42.5 17.5t-18.5 41.5t17.5 41.5t42.5 17.5z" />
    <glyph glyph-name="hbar" unicode="&#x127;" horiz-adv-x="631" 
d="M321 566q49 0 93 -16.5t76.5 -47.5t51.5 -76t19 -101v-324h-83v324q0 40 -11.5 71t-32.5 52t-50 31.5t-63 10.5q-35 0 -64 -13t-50 -35.5t-32.5 -52.5t-11.5 -64v-326h-83v774h83v-282q31 35 71.5 55t86.5 20zM-0.743164 694.325h285v-88h-285v88v0z" />
    <glyph glyph-name="hcircumflex" unicode="&#x125;" horiz-adv-x="631" 
d="M321 566q49 0 93 -16.5t76.5 -47.5t51.5 -76t19 -101v-324h-83v324q0 40 -11.5 71t-32.5 52t-50 31.5t-63 10.5q-35 0 -64 -13t-50 -35.5t-32.5 -52.5t-11.5 -64v-326h-83v774h83v-282q31 35 71.5 55t86.5 20zM244 804h-73l157 175h28l157 -175h-73l-98 94l-98 -94v0z
" />
    <glyph glyph-name="iacute" unicode="&#xed;" horiz-adv-x="286" 
d="M101 551h84v-551h-84v551zM170 621h-54l80 175h102z" />
    <glyph glyph-name="ibreve" unicode="&#x12d;" horiz-adv-x="286" 
d="M101 551h84v-551h-84v551zM305 753q-5 -29 -19.5 -53t-36 -41.5t-48.5 -27.5t-57 -10q-31 0 -58 10t-49 27.5t-36.5 41.5t-19.5 53h74q8 -28 32 -46t55 -19q32 0 56.5 18t34.5 47h72z" />
    <glyph glyph-name="icircumflex" unicode="&#xee;" horiz-adv-x="286" 
d="M101 551h84v-551h-84v551zM45 621h-73l157 175h28l157 -175h-73l-98 94z" />
    <glyph glyph-name="idieresis" unicode="&#xef;" horiz-adv-x="286" 
d="M101 551h84v-551h-84v551zM26 740q26 1 43.5 -16.5t17.5 -42.5q0 -23 -17.5 -40.5t-42.5 -18.5q-24 0 -42.5 17.5t-18.5 41.5t17.5 41.5t42.5 17.5zM261 740q26 0 43 -17t17 -43q0 -24 -17.5 -41t-41.5 -18q-24 0 -43 18t-19 41q0 12 5 22.5t13.5 18.5t19.5 13.5t23 5.5z
" />
    <glyph glyph-name="igrave" unicode="&#xec;" horiz-adv-x="286" 
d="M101 0h84v551h-84v-551zM112 622l-127 175h101l81 -175h-55v0z" />
    <glyph glyph-name="imacron" unicode="&#x12b;" horiz-adv-x="286" 
d="M101 0h84v551h-84v-551zM286 645h-292v68h292v-68v0z" />
    <glyph glyph-name="iogonek" unicode="&#x12f;" horiz-adv-x="286" 
d="M101 551h84v-551h-84v551zM143 784q26 0 44.5 -18.5t18.5 -44.5t-18.5 -44t-44.5 -18t-44.5 18t-18.5 44t18.5 44.5t44.5 18.5zM104 -104q0 -26 19 -35t42 -9q26 0 61 9v-60q-52 -12 -92 -8q-17 1 -33.5 6t-29.5 15.5t-20.5 27t-7.5 40.5t13 53t47 65h81q-22 -13 -40 -30
q-15 -14 -27.5 -33t-12.5 -41z" />
    <glyph glyph-name="itilde" unicode="&#x129;" horiz-adv-x="286" 
d="M101 551h84v-551h-84v551zM215 687q14 0 32.5 8t41.5 21v-70q-12 -7 -26 -12q-12 -5 -24 -8.5t-26 -3.5q-18 0 -36 6t-37 15q-16 8 -30 16.5t-36 8.5q-27 0 -44.5 -13l-32.5 -24v77q17 10 36.5 16.5t41.5 6.5q16 0 34.5 -6t40.5 -16q20 -10 36.5 -16t28.5 -6z" />
    <glyph glyph-name="ij" unicode="&#x133;" horiz-adv-x="546" 
d="M101 551h84v-551h-84v551zM143 784q26 0 44.5 -18.5t18.5 -44.5t-18.5 -44t-44.5 -18t-44.5 18t-18.5 44t18.5 44.5t44.5 18.5zM403 779q26 0 44.5 -18t18.5 -44t-18.5 -44.5t-44.5 -18.5t-44 18.5t-18 44.5t18 44t44 18zM363 547h83v-601q0 -46 -10 -82t-34 -59.5
t-64.5 -31.5t-101.5 2v75q36 -12 60.5 -8t39.5 18.5t21 37.5t6 48v601z" />
    <glyph glyph-name="dotlessi" unicode="&#x131;" horiz-adv-x="286" 
d="M101 0v551h84v-551h-84v0z" />
    <glyph glyph-name="jcircumflex" unicode="&#x135;" horiz-adv-x="260" 
d="M77 547h83v-601q0 -46 -10 -82t-34 -59.5t-64.5 -31.5t-101.5 2v75q36 -12 60.5 -8t39.5 18.5t21 37.5t6 48v601zM-41 621l157 175h28l157 -175h-73l-98 94l-98 -94h-73z" />
    <glyph glyph-name="kcommaaccent" unicode="&#x137;" horiz-adv-x="552" 
d="M80 0v773h83v-773h-83zM547 -1h-109l-255 303v26l202 222h113l-216 -237zM245 -45h96l-69 -222h-63z" />
    <glyph glyph-name="kgreenlandic" unicode="&#x138;" horiz-adv-x="552" 
d="M80 551h83v-551h-83v551zM438 -1l-255 303v26l202 222h113l-216 -237l265 -314h-109z" />
    <glyph glyph-name="lacute" unicode="&#x13a;" horiz-adv-x="243" 
d="M163 0h-83v773h83v-773v0zM152 804h-54l80 175h102l-128 -175v0z" />
    <glyph glyph-name="lcaron" unicode="&#x13e;" horiz-adv-x="471" 
d="M163 0h-83v773h83v-773v0zM325 772h96l-69 -222h-63z" />
    <glyph glyph-name="lcommaaccent" unicode="&#x13c;" horiz-adv-x="243" 
d="M163 0h-83v773h83v-773v0zM76 -45h96l-69 -222h-63z" />
    <glyph glyph-name="ldot" unicode="&#x140;" horiz-adv-x="492" 
d="M163 0h-83v773h83v-773v0zM368 378q26 0 45 -19t19 -46t-19 -46t-45 -19q-27 0 -46 19t-19 46t19 46t46 19z" />
    <glyph glyph-name="nacute" unicode="&#x144;" horiz-adv-x="631" 
d="M321 565q49 0 93 -16.5t76.5 -47.5t51.5 -75.5t19 -100.5v-325h-83v325q0 40 -11.5 71t-32.5 52t-50 31.5t-63 10.5q-35 0 -64 -13t-50 -35.5t-32.5 -52.5t-11.5 -64v-326h-83v549h83v-57q31 35 71.5 54.5t86.5 19.5zM344 621h-54l80 175h102l-128 -175v0z" />
    <glyph glyph-name="napostrophe" unicode="&#x149;" horiz-adv-x="727" 
d="M417 565q49 0 93 -16.5t76.5 -47.5t51.5 -75.5t19 -100.5v-325h-83v325q0 40 -11.5 71t-32.5 52t-50 31.5t-63 10.5q-35 0 -64 -13t-50 -35.5t-32.5 -52.5t-11.5 -64v-326h-83v549h83v-57q31 35 71.5 54.5t86.5 19.5zM10 434l36 222h96l-69 -222h-63v0z" />
    <glyph glyph-name="ncaron" unicode="&#x148;" horiz-adv-x="631" 
d="M321 565q49 0 93 -16.5t76.5 -47.5t51.5 -75.5t19 -100.5v-325h-83v325q0 40 -11.5 71t-32.5 52t-50 31.5t-63 10.5q-35 0 -64 -13t-50 -35.5t-32.5 -52.5t-11.5 -64v-326h-83v549h83v-57q31 35 71.5 54.5t86.5 19.5zM217 797l98 -93l98 93h73l-157 -175h-28l-157 175h73
v0z" />
    <glyph glyph-name="ncommaaccent" unicode="&#x146;" horiz-adv-x="631" 
d="M321 565q49 0 93 -16.5t76.5 -47.5t51.5 -75.5t19 -100.5v-325h-83v325q0 40 -11.5 71t-32.5 52t-50 31.5t-63 10.5q-35 0 -64 -13t-50 -35.5t-32.5 -52.5t-11.5 -64v-326h-83v549h83v-57q31 35 71.5 54.5t86.5 19.5zM288 -45h96l-69 -222h-63z" />
    <glyph glyph-name="ntilde" unicode="&#xf1;" horiz-adv-x="631" 
d="M321 565q49 0 93 -16.5t76.5 -47.5t51.5 -75.5t19 -100.5v-325h-83v325q0 40 -11.5 71t-32.5 52t-50 31.5t-63 10.5q-35 0 -64 -13t-50 -35.5t-32.5 -52.5t-11.5 -64v-326h-83v549h83v-57q31 35 71.5 54.5t86.5 19.5zM387 687q14 0 32.5 8t41.5 21v-70q-12 -7 -26 -12
q-12 -5 -24 -8.5t-26 -3.5q-18 0 -36 6t-37 15q-16 8 -30 16.5t-36 8.5q-27 0 -44.5 -13l-32.5 -24v77q17 10 36.5 16.5t41.5 6.5q16 0 34.5 -6t40.5 -16q20 -10 36.5 -16t28.5 -6z" />
    <glyph glyph-name="oacute" unicode="&#xf3;" 
d="M319 566q60 0 113 -23t92.5 -62t62 -92t22.5 -113t-22.5 -113t-62 -92t-92.5 -62t-113 -23t-112.5 23t-92 62t-62 92t-22.5 113t22.5 113t62 92t92 62t112.5 23zM319 62q45 0 82.5 17t65 46t43 68t15.5 83t-15.5 83t-43 68t-65 46t-82.5 17q-44 0 -82 -17t-65.5 -46
t-43 -68t-15.5 -83t15.5 -83t43 -68t65.5 -46t82 -17zM342 621h-54l80 175h102l-128 -175v0z" />
    <glyph glyph-name="obreve" unicode="&#x14f;" 
d="M319 566q60 0 113 -23t92.5 -62t62 -92t22.5 -113t-22.5 -113t-62 -92t-92.5 -62t-113 -23t-112.5 23t-92 62t-62 92t-22.5 113t22.5 113t62 92t92 62t112.5 23zM319 62q45 0 82.5 17t65 46t43 68t15.5 83t-15.5 83t-43 68t-65 46t-82.5 17q-44 0 -82 -17t-65.5 -46
t-43 -68t-15.5 -83t15.5 -83t43 -68t65.5 -46t82 -17zM481 752q-5 -29 -19.5 -53t-36 -41.5t-48.5 -27.5t-57 -10q-31 0 -58 10t-49 27.5t-36.5 41.5t-19.5 53h74q8 -28 32 -46t55 -19q32 0 56.5 18t34.5 47h72z" />
    <glyph glyph-name="ocircumflex" unicode="&#xf4;" 
d="M319 566q60 0 113 -23t92.5 -62t62 -92t22.5 -113t-22.5 -113t-62 -92t-92.5 -62t-113 -23t-112.5 23t-92 62t-62 92t-22.5 113t22.5 113t62 92t92 62t112.5 23zM319 62q45 0 82.5 17t65 46t43 68t15.5 83t-15.5 83t-43 68t-65 46t-82.5 17q-44 0 -82 -17t-65.5 -46
t-43 -68t-15.5 -83t15.5 -83t43 -68t65.5 -46t82 -17zM221 621h-73l157 175h28l157 -175h-73l-98 94l-98 -94v0z" />
    <glyph glyph-name="odieresis" unicode="&#xf6;" 
d="M319 566q60 0 113 -23t92.5 -62t62 -92t22.5 -113t-22.5 -113t-62 -92t-92.5 -62t-113 -23t-112.5 23t-92 62t-62 92t-22.5 113t22.5 113t62 92t92 62t112.5 23zM319 62q45 0 82.5 17t65 46t43 68t15.5 83t-15.5 83t-43 68t-65 46t-82.5 17q-44 0 -82 -17t-65.5 -46
t-43 -68t-15.5 -83t15.5 -83t43 -68t65.5 -46t82 -17zM202 740q26 1 43.5 -16.5t17.5 -42.5q0 -23 -17.5 -40.5t-42.5 -18.5q-24 0 -42.5 17.5t-18.5 41.5t17.5 41.5t42.5 17.5zM437 740q26 0 43 -17t17 -43q0 -24 -17.5 -41t-41.5 -18q-24 0 -43 18t-19 41q0 12 5 22.5
t13.5 18.5t19.5 13.5t23 5.5z" />
    <glyph glyph-name="ograve" unicode="&#xf2;" 
d="M319 566q60 0 113 -23t92.5 -62t62 -92t22.5 -113t-22.5 -113t-62 -92t-92.5 -62t-113 -23t-112.5 23t-92 62t-62 92t-22.5 113t22.5 113t62 92t92 62t112.5 23zM319 62q45 0 82.5 17t65 46t43 68t15.5 83t-15.5 83t-43 68t-65 46t-82.5 17q-44 0 -82 -17t-65.5 -46
t-43 -68t-15.5 -83t15.5 -83t43 -68t65.5 -46t82 -17zM303 622l-127 175h101l81 -175h-55v0z" />
    <glyph glyph-name="ohungarumlaut" unicode="&#x151;" 
d="M319 566q60 0 113 -23t92.5 -62t62 -92t22.5 -113t-22.5 -113t-62 -92t-92.5 -62t-113 -23t-112.5 23t-92 62t-62 92t-22.5 113t22.5 113t62 92t92 62t112.5 23zM319 62q45 0 82.5 17t65 46t43 68t15.5 83t-15.5 83t-43 68t-65 46t-82.5 17q-44 0 -82 -17t-65.5 -46
t-43 -68t-15.5 -83t15.5 -83t43 -68t65.5 -46t82 -17zM381 796l-128 -175h-54l81 175h101zM548 796l-128 -175h-54l81 175h101z" />
    <glyph glyph-name="omacron" unicode="&#x14d;" 
d="M319 566q60 0 113 -23t92.5 -62t62 -92t22.5 -113t-22.5 -113t-62 -92t-92.5 -62t-113 -23t-112.5 23t-92 62t-62 92t-22.5 113t22.5 113t62 92t92 62t112.5 23zM319 62q45 0 82.5 17t65 46t43 68t15.5 83t-15.5 83t-43 68t-65 46t-82.5 17q-44 0 -82 -17t-65.5 -46
t-43 -68t-15.5 -83t15.5 -83t43 -68t65.5 -46t82 -17zM462 645h-292v68h292v-68v0z" />
    <glyph glyph-name="oslash" unicode="&#xf8;" 
d="M319 566q60 0 113 -23t92.5 -62t62 -92t22.5 -113t-22.5 -113t-62 -92t-92.5 -62t-113 -23t-112.5 23t-92 62t-62 92t-22.5 113t22.5 113t62 92t92 62t112.5 23zM319 62q45 0 82.5 17t65 46t43 68t15.5 83t-15.5 83t-43 68t-65 46t-82.5 17q-44 0 -82 -17t-65.5 -46
t-43 -68t-15.5 -83t15.5 -83t43 -68t65.5 -46t82 -17zM494.418 567.291h91.8662l-438.132 -580.993h-90.8574l437.123 580.993v0z" />
    <glyph glyph-name="oslashacute" unicode="&#x1ff;" 
d="M319 566q60 0 113 -23t92.5 -62t62 -92t22.5 -113t-22.5 -113t-62 -92t-92.5 -62t-113 -23t-112.5 23t-92 62t-62 92t-22.5 113t22.5 113t62 92t92 62t112.5 23zM319 62q45 0 82.5 17t65 46t43 68t15.5 83t-15.5 83t-43 68t-65 46t-82.5 17q-44 0 -82 -17t-65.5 -46
t-43 -68t-15.5 -83t15.5 -83t43 -68t65.5 -46t82 -17zM494.418 567.291h91.8662l-438.132 -580.993h-90.8574l437.123 580.993v0zM346 621h-54l80 175h102l-128 -175v0z" />
    <glyph glyph-name="otilde" unicode="&#xf5;" 
d="M319 566q60 0 113 -23t92.5 -62t62 -92t22.5 -113t-22.5 -113t-62 -92t-92.5 -62t-113 -23t-112.5 23t-92 62t-62 92t-22.5 113t22.5 113t62 92t92 62t112.5 23zM319 62q45 0 82.5 17t65 46t43 68t15.5 83t-15.5 83t-43 68t-65 46t-82.5 17q-44 0 -82 -17t-65.5 -46
t-43 -68t-15.5 -83t15.5 -83t43 -68t65.5 -46t82 -17zM391 687q14 0 32.5 8t41.5 21v-70q-12 -7 -26 -12q-12 -5 -24 -8.5t-26 -3.5q-18 0 -36 6t-37 15q-16 8 -30 16.5t-36 8.5q-27 0 -44.5 -13l-32.5 -24v77q17 10 36.5 16.5t41.5 6.5q16 0 34.5 -6t40.5 -16
q20 -10 36.5 -16t28.5 -6z" />
    <glyph glyph-name="oe" unicode="&#x153;" horiz-adv-x="1134" 
d="M319 566q60 0 113 -23t92.5 -62t62 -92t22.5 -113t-22.5 -113t-62 -92t-92.5 -62t-113 -23t-112.5 23t-92 62t-62 92t-22.5 113t22.5 113t62 92t92 62t112.5 23zM319 62q45 0 82.5 17t65 46t43 68t15.5 83t-15.5 83t-43 68t-65 46t-82.5 17q-44 0 -82 -17t-65.5 -46
t-43 -68t-15.5 -83t15.5 -83t43 -68t65.5 -46t82 -17zM815 566q60 0 112.5 -22.5t92 -62t62 -92t22.5 -112.5v-22h-495q4 -41 22 -76t47 -60.5t68.5 -40.5t85.5 -15q29 0 57.5 4t57 16t57 33.5t58.5 56.5v-100q-29 -27 -62 -44t-64 -26.5t-58.5 -12.5t-45.5 -3
q-69 0 -125.5 23t-97 62t-62.5 92t-22 113t23 112.5t62 92t92 62t113 22.5zM815 491q-38 0 -70.5 -12t-59 -33.5t-44.5 -51t-27 -63.5h400q-8 34 -26.5 63.5t-44.5 51t-58.5 33.5t-69.5 12z" />
    <glyph glyph-name="racute" unicode="&#x155;" horiz-adv-x="374" 
d="M369 487q-17 2 -26 2.5t-22 0.5q-35 0 -64 -13t-50 -35.5t-32.5 -52.5t-11.5 -64v-326h-83v549h83v-57q31 35 71.5 54.5t86.5 19.5q12 0 24 -1t24 -3v-74zM220 621h-54l80 175h102l-128 -175v0z" />
    <glyph glyph-name="rcaron" unicode="&#x159;" horiz-adv-x="374" 
d="M369 487q-17 2 -26 2.5t-22 0.5q-35 0 -64 -13t-50 -35.5t-32.5 -52.5t-11.5 -64v-326h-83v549h83v-57q31 35 71.5 54.5t86.5 19.5q12 0 24 -1t24 -3v-74zM108 797l98 -93l98 93h73l-157 -175h-28l-157 175h73v0z" />
    <glyph glyph-name="rcommaaccent" unicode="&#x157;" horiz-adv-x="374" 
d="M369 487q-17 2 -26 2.5t-22 0.5q-35 0 -64 -13t-50 -35.5t-32.5 -52.5t-11.5 -64v-326h-83v549h83v-57q31 35 71.5 54.5t86.5 19.5q12 0 24 -1t24 -3v-74zM73 -45h96l-69 -222h-63z" />
    <glyph glyph-name="sacute" unicode="&#x15b;" horiz-adv-x="429" 
d="M222 331q28 -12 59 -27t57 -36.5t43.5 -52t17.5 -73.5q0 -26 -12.5 -53.5t-37.5 -50.5t-62.5 -37.5t-87.5 -14.5q-39 0 -70.5 7.5t-53.5 16.5q-26 11 -45 24v108q13 -23 37 -41q20 -15 52 -27.5t80 -12.5q29 0 51 8t37 20t22.5 26.5t7.5 27.5q0 25 -12 43t-30 31
t-40 22.5l-43 18.5q-81 37 -118 75t-37 86q0 30 13 56.5t36.5 46.5t55.5 32t71 12h1q31 0 56 -6t43 -13q21 -9 38 -19v-103l-24 24t-27.5 21.5t-36 15t-49.5 5.5q-26 0 -44.5 -7.5t-29.5 -18t-16 -23.5t-5 -23q0 -16 10 -29t25 -23.5t33 -19.5t35 -16zM229 621h-54l80 175
h102l-128 -175v0z" />
    <glyph glyph-name="scaron" unicode="&#x161;" horiz-adv-x="429" 
d="M222 331q28 -12 59 -27t57 -36.5t43.5 -52t17.5 -73.5q0 -26 -12.5 -53.5t-37.5 -50.5t-62.5 -37.5t-87.5 -14.5q-39 0 -70.5 7.5t-53.5 16.5q-26 11 -45 24v108q13 -23 37 -41q20 -15 52 -27.5t80 -12.5q29 0 51 8t37 20t22.5 26.5t7.5 27.5q0 25 -12 43t-30 31
t-40 22.5l-43 18.5q-81 37 -118 75t-37 86q0 30 13 56.5t36.5 46.5t55.5 32t71 12h1q31 0 56 -6t43 -13q21 -9 38 -19v-103l-24 24t-27.5 21.5t-36 15t-49.5 5.5q-26 0 -44.5 -7.5t-29.5 -18t-16 -23.5t-5 -23q0 -16 10 -29t25 -23.5t33 -19.5t35 -16zM116 797l98 -93l98 93
h73l-157 -175h-28l-157 175h73v0z" />
    <glyph glyph-name="scedilla" unicode="&#x15f;" horiz-adv-x="429" 
d="M222 331q28 -12 59 -27t57 -36.5t43.5 -52t17.5 -73.5q0 -26 -12.5 -53.5t-37.5 -50.5t-62.5 -37.5t-87.5 -14.5q-39 0 -70.5 7.5t-53.5 16.5q-26 11 -45 24v108q13 -23 37 -41q20 -15 52 -27.5t80 -12.5q29 0 51 8t37 20t22.5 26.5t7.5 27.5q0 25 -12 43t-30 31
t-40 22.5l-43 18.5q-81 37 -118 75t-37 86q0 30 13 56.5t36.5 46.5t55.5 32t71 12h1q31 0 56 -6t43 -13q21 -9 38 -19v-103l-24 24t-27.5 21.5t-36 15t-49.5 5.5q-26 0 -44.5 -7.5t-29.5 -18t-16 -23.5t-5 -23q0 -16 10 -29t25 -23.5t33 -19.5t35 -16zM230 -46q37 -5 58 -28
t21 -49q0 -38 -26.5 -61.5t-67.5 -25.5q-18 -1 -46.5 3.5t-48.5 13.5v57q4 -5 22 -11.5t39 -9.5t39.5 1.5t24.5 22.5q4 12 -2 22t-18 17t-27 11t-28 4l23 80h50l-13 -47v0z" />
    <glyph glyph-name="scircumflex" unicode="&#x15d;" horiz-adv-x="429" 
d="M222 331q28 -12 59 -27t57 -36.5t43.5 -52t17.5 -73.5q0 -26 -12.5 -53.5t-37.5 -50.5t-62.5 -37.5t-87.5 -14.5q-39 0 -70.5 7.5t-53.5 16.5q-26 11 -45 24v108q13 -23 37 -41q20 -15 52 -27.5t80 -12.5q29 0 51 8t37 20t22.5 26.5t7.5 27.5q0 25 -12 43t-30 31
t-40 22.5l-43 18.5q-81 37 -118 75t-37 86q0 30 13 56.5t36.5 46.5t55.5 32t71 12h1q31 0 56 -6t43 -13q21 -9 38 -19v-103l-24 24t-27.5 21.5t-36 15t-49.5 5.5q-26 0 -44.5 -7.5t-29.5 -18t-16 -23.5t-5 -23q0 -16 10 -29t25 -23.5t33 -19.5t35 -16zM116 621h-73l157 175
h28l157 -175h-73l-98 94l-98 -94v0z" />
    <glyph glyph-name="scommaaccent" unicode="&#x219;" horiz-adv-x="429" 
d="M222 331q28 -12 59 -27t57 -36.5t43.5 -52t17.5 -73.5q0 -26 -12.5 -53.5t-37.5 -50.5t-62.5 -37.5t-87.5 -14.5q-39 0 -70.5 7.5t-53.5 16.5q-26 11 -45 24v108q13 -23 37 -41q20 -15 52 -27.5t80 -12.5q29 0 51 8t37 20t22.5 26.5t7.5 27.5q0 25 -12 43t-30 31
t-40 22.5l-43 18.5q-81 37 -118 75t-37 86q0 30 13 56.5t36.5 46.5t55.5 32t71 12h1q31 0 56 -6t43 -13q21 -9 38 -19v-103l-24 24t-27.5 21.5t-36 15t-49.5 5.5q-26 0 -44.5 -7.5t-29.5 -18t-16 -23.5t-5 -23q0 -16 10 -29t25 -23.5t33 -19.5t35 -16zM174 -45h96l-69 -222
h-63z" />
    <glyph glyph-name="tcaron" unicode="&#x165;" horiz-adv-x="561" 
d="M313 66v-75q-61 -10 -101.5 -2t-64.5 31.5t-34 59.5t-10 82v310h-83v76h83v139h84v-139h126v-76h-126v-310q0 -25 6 -48t20.5 -37.5t39 -18.5t60.5 8zM415 772h96l-69 -222h-63z" />
    <glyph glyph-name="tcommaaccent" unicode="&#x163;" horiz-adv-x="333" 
d="M313 66v-75q-61 -10 -101.5 -2t-64.5 31.5t-34 59.5t-10 82v310h-83v76h83v139h84v-139h126v-76h-126v-310q0 -25 6 -48t20.5 -37.5t39 -18.5t60.5 8zM175 -45h96l-69 -222h-63z" />
    <glyph glyph-name="uacute" unicode="&#xfa;" horiz-adv-x="631" 
d="M311 -16q-50 0 -94 16.5t-76.5 47.5t-51.5 76t-19 101v324h83v-324q0 -81 44.5 -123t113.5 -42q34 0 63 13t50 35.5t32.5 52.5t11.5 64v326h83v-549h-83v57q-31 -35 -71.5 -55t-85.5 -20zM334 621h-54l80 175h102l-128 -175v0z" />
    <glyph glyph-name="ubreve" unicode="&#x16d;" horiz-adv-x="631" 
d="M311 -16q-50 0 -94 16.5t-76.5 47.5t-51.5 76t-19 101v324h83v-324q0 -81 44.5 -123t113.5 -42q34 0 63 13t50 35.5t32.5 52.5t11.5 64v326h83v-549h-83v57q-31 -35 -71.5 -55t-85.5 -20zM477 752q-5 -29 -19.5 -53t-36 -41.5t-48.5 -27.5t-57 -10q-31 0 -58 10t-49 27.5
t-36.5 41.5t-19.5 53h74q8 -28 32 -46t55 -19q32 0 56.5 18t34.5 47h72z" />
    <glyph glyph-name="ucircumflex" unicode="&#xfb;" horiz-adv-x="631" 
d="M311 -16q-50 0 -94 16.5t-76.5 47.5t-51.5 76t-19 101v324h83v-324q0 -81 44.5 -123t113.5 -42q34 0 63 13t50 35.5t32.5 52.5t11.5 64v326h83v-549h-83v57q-31 -35 -71.5 -55t-85.5 -20zM217 621h-73l157 175h28l157 -175h-73l-98 94l-98 -94v0z" />
    <glyph glyph-name="udieresis" unicode="&#xfc;" horiz-adv-x="631" 
d="M311 -16q-50 0 -94 16.5t-76.5 47.5t-51.5 76t-19 101v324h83v-324q0 -81 44.5 -123t113.5 -42q34 0 63 13t50 35.5t32.5 52.5t11.5 64v326h83v-549h-83v57q-31 -35 -71.5 -55t-85.5 -20zM198 740q26 1 43.5 -16.5t17.5 -42.5q0 -23 -17.5 -40.5t-42.5 -18.5
q-24 0 -42.5 17.5t-18.5 41.5t17.5 41.5t42.5 17.5zM433 740q26 0 43 -17t17 -43q0 -24 -17.5 -41t-41.5 -18q-24 0 -43 18t-19 41q0 12 5 22.5t13.5 18.5t19.5 13.5t23 5.5z" />
    <glyph glyph-name="uhungarumlaut" unicode="&#x171;" horiz-adv-x="631" 
d="M311 -16q-50 0 -94 16.5t-76.5 47.5t-51.5 76t-19 101v324h83v-324q0 -81 44.5 -123t113.5 -42q34 0 63 13t50 35.5t32.5 52.5t11.5 64v326h83v-549h-83v57q-31 -35 -71.5 -55t-85.5 -20zM375 796l-128 -175h-54l81 175h101zM542 796l-128 -175h-54l81 175h101z" />
    <glyph glyph-name="ugrave" unicode="&#xf9;" horiz-adv-x="631" 
d="M311 -16q-50 0 -94 16.5t-76.5 47.5t-51.5 76t-19 101v324h83v-324q0 -81 44.5 -123t113.5 -42q34 0 63 13t50 35.5t32.5 52.5t11.5 64v326h83v-549h-83v57q-31 -35 -71.5 -55t-85.5 -20zM290 622l-127 175h101l81 -175h-55v0z" />
    <glyph glyph-name="umacron" unicode="&#x16b;" horiz-adv-x="631" 
d="M311 -16q-50 0 -94 16.5t-76.5 47.5t-51.5 76t-19 101v324h83v-324q0 -81 44.5 -123t113.5 -42q34 0 63 13t50 35.5t32.5 52.5t11.5 64v326h83v-549h-83v57q-31 -35 -71.5 -55t-85.5 -20zM458 645h-292v68h292v-68v0z" />
    <glyph glyph-name="uogonek" unicode="&#x173;" horiz-adv-x="631" 
d="M311 -16q-50 0 -94 16.5t-76.5 47.5t-51.5 76t-19 101v324h83v-324q0 -81 44.5 -123t113.5 -42q34 0 63 13t50 35.5t32.5 52.5t11.5 64v326h83v-549h-83v57q-31 -35 -71.5 -55t-85.5 -20zM471 -102q0 -26 19 -35t42 -9q26 0 61 9v-60q-52 -12 -92 -8q-17 1 -33.5 6
t-29.5 15.5t-20.5 27t-7.5 40.5t13 53t47 65h81q-22 -13 -40 -30q-15 -14 -27.5 -33t-12.5 -41z" />
    <glyph glyph-name="uring" unicode="&#x16f;" horiz-adv-x="631" 
d="M311 -16q-50 0 -94 16.5t-76.5 47.5t-51.5 76t-19 101v324h83v-324q0 -81 44.5 -123t113.5 -42q34 0 63 13t50 35.5t32.5 52.5t11.5 64v326h83v-549h-83v57q-31 -35 -71.5 -55t-85.5 -20zM314 592q-26 0 -48 9t-38 25t-25.5 37.5t-9.5 46.5q0 24 9 45.5t25.5 37.5
t39 25.5t47.5 9.5q26 0 48.5 -9.5t39 -25.5t26 -37.5t9.5 -46.5t-10 -46.5t-26.5 -37t-39 -24.5t-47.5 -9zM316 765q-25 0 -40.5 -15t-15.5 -40q0 -24 15.5 -39.5t39.5 -15.5q23 0 38.5 15.5t16.5 38.5t-15 39.5t-39 16.5z" />
    <glyph glyph-name="utilde" unicode="&#x169;" horiz-adv-x="631" 
d="M311 -16q-50 0 -94 16.5t-76.5 47.5t-51.5 76t-19 101v324h83v-324q0 -81 44.5 -123t113.5 -42q34 0 63 13t50 35.5t32.5 52.5t11.5 64v326h83v-549h-83v57q-31 -35 -71.5 -55t-85.5 -20zM387 687q14 0 32.5 8t41.5 21v-70q-12 -7 -26 -12q-12 -5 -24 -8.5t-26 -3.5
q-18 0 -36 6t-37 15q-16 8 -30 16.5t-36 8.5q-27 0 -44.5 -13l-32.5 -24v77q17 10 36.5 16.5t41.5 6.5q16 0 34.5 -6t40.5 -16q20 -10 36.5 -16t28.5 -6z" />
    <glyph glyph-name="wacute" unicode="&#x1e83;" horiz-adv-x="797" 
d="M706 551h86l-198 -564h-26l-169 400l-170 -400h-26l-198 564h86l131 -390l164 406h26l163 -406l131 390v0zM426 621h-54l80 175h102l-128 -175v0z" />
    <glyph glyph-name="wcircumflex" unicode="&#x175;" horiz-adv-x="797" 
d="M706 551h86l-198 -564h-26l-169 400l-170 -400h-26l-198 564h86l131 -390l164 406h26l163 -406l131 390v0zM300 621h-73l157 175h28l157 -175h-73l-98 94l-98 -94v0z" />
    <glyph glyph-name="wdieresis" unicode="&#x1e85;" horiz-adv-x="797" 
d="M706 551h86l-198 -564h-26l-169 400l-170 -400h-26l-198 564h86l131 -390l164 406h26l163 -406l131 390v0zM281 740q26 1 43.5 -16.5t17.5 -42.5q0 -23 -17.5 -40.5t-42.5 -18.5q-24 0 -42.5 17.5t-18.5 41.5t17.5 41.5t42.5 17.5zM516 740q26 0 43 -17t17 -43
q0 -24 -17.5 -41t-41.5 -18q-24 0 -43 18t-19 41q0 12 5 22.5t13.5 18.5t19.5 13.5t23 5.5z" />
    <glyph glyph-name="wgrave" unicode="&#x1e81;" horiz-adv-x="797" 
d="M706 551h86l-198 -564h-26l-169 400l-170 -400h-26l-198 564h86l131 -390l164 406h26l163 -406l131 390v0zM368 622l-127 175h101l81 -175h-55v0z" />
    <glyph glyph-name="yacute" unicode="&#xfd;" horiz-adv-x="536" 
d="M100 -226l124 283l-219 493h90l174 -413l171 413h91l-340 -776h-91v0zM292 621h-54l80 175h102l-128 -175v0z" />
    <glyph glyph-name="ycircumflex" unicode="&#x177;" horiz-adv-x="536" 
d="M100 -226l124 283l-219 493h90l174 -413l171 413h91l-340 -776h-91v0zM170 621h-73l157 175h28l157 -175h-73l-98 94l-98 -94v0z" />
    <glyph glyph-name="ydieresis" unicode="&#xff;" horiz-adv-x="536" 
d="M100 -226l124 283l-219 493h90l174 -413l171 413h91l-340 -776h-91v0zM150 740q26 1 43.5 -16.5t17.5 -42.5q0 -23 -17.5 -40.5t-42.5 -18.5q-24 0 -42.5 17.5t-18.5 41.5t17.5 41.5t42.5 17.5zM385 740q26 0 43 -17t17 -43q0 -24 -17.5 -41t-41.5 -18q-24 0 -43 18
t-19 41q0 12 5 22.5t13.5 18.5t19.5 13.5t23 5.5z" />
    <glyph glyph-name="ygrave" unicode="&#x1ef3;" horiz-adv-x="536" 
d="M100 -226l124 283l-219 493h90l174 -413l171 413h91l-340 -776h-91v0zM245 622l-127 175h101l81 -175h-55v0z" />
    <glyph glyph-name="zacute" unicode="&#x17a;" horiz-adv-x="447" 
d="M133 75h309v-75h-437v26l299 448h-260v76h387v-27l-298 -448v0zM245 621h-54l80 175h102l-128 -175v0z" />
    <glyph glyph-name="zcaron" unicode="&#x17e;" horiz-adv-x="447" 
d="M133 75h309v-75h-437v26l299 448h-260v76h387v-27l-298 -448v0zM141 797l98 -93l98 93h73l-157 -175h-28l-157 175h73v0z" />
    <glyph glyph-name="zdotaccent" unicode="&#x17c;" horiz-adv-x="447" 
d="M133 75h309v-75h-437v26l299 448h-260v76h387v-27l-298 -448v0zM223 738q26 1 43.5 -16.5t17.5 -42.5q0 -23 -17.5 -40.5t-42.5 -18.5q-24 0 -42.5 17.5t-18.5 41.5t17.5 41.5t42.5 17.5z" />
    <glyph glyph-name="space" unicode=" " horiz-adv-x="317" 
 />
    <glyph glyph-name="Tcommaaccent" unicode="&#x162;" horiz-adv-x="570" 
d="M560 733v-78h-231v-655h-89v655h-230v78h550v0zM234 -45h96l-69 -222h-63z" />
    <glyph glyph-name="A" unicode="A" horiz-adv-x="684" 
d="M584 0l-77 185h-330l-77 -185h-95l324 746h26l324 -746h-95zM209 263h266l-133 320z" />
    </font>
</defs>
</svg>
